<svg width="65" height="65" viewBox="0 0 65 65" fill="none" xmlns="http://www.w3.org/2000/svg">
<ellipse cx="32.3841" cy="32.1918" rx="32.1541" ry="32.1918" fill="#333333"/>
<path d="M34.4471 46.6853H29.206C28.3306 46.6853 27.6184 45.9909 27.6184 45.1372V33.6098H24.5607C23.6853 33.6098 22.9731 32.9151 22.9731 32.0617V27.1222C22.9731 26.2685 23.6853 25.5741 24.5607 25.5741H27.6184V23.1006C27.6184 20.6479 28.4082 18.5613 29.9021 17.0666C31.4028 15.565 33.5 14.7715 35.9669 14.7715L39.964 14.7778C40.838 14.7793 41.5488 15.4737 41.5488 16.3259V20.9121C41.5488 21.7658 40.837 22.4602 39.9618 22.4602L37.2706 22.4612C36.4498 22.4612 36.2408 22.6216 36.1962 22.6708C36.1225 22.7524 36.0349 22.983 36.0349 23.6197V25.5739H39.7595C40.0399 25.5739 40.3116 25.6413 40.5451 25.7684C41.0487 26.0428 41.3618 26.5617 41.3618 27.1224L41.3598 32.062C41.3598 32.9151 40.6477 33.6095 39.7723 33.6095H36.0349V45.1372C36.0349 45.9909 35.3225 46.6853 34.4471 46.6853ZM29.5371 44.8144H34.116V32.7722C34.116 32.2022 34.5916 31.7386 35.1759 31.7386H39.4412L39.4429 27.445H35.1757C34.5914 27.445 34.116 26.9814 34.116 26.4114V23.6197C34.116 22.8887 34.1921 22.0575 34.7579 21.4327C35.4416 20.6774 36.519 20.5902 37.2701 20.5902L39.6302 20.5893V16.6483L35.9654 16.6424C32.0008 16.6424 29.5371 19.1172 29.5371 23.1006V26.4114C29.5371 26.9812 29.0617 27.445 28.4774 27.445H24.8918V31.7386H28.4774C29.0617 31.7386 29.5371 32.2022 29.5371 32.7722V44.8144ZM39.9603 16.6487H39.9605H39.9603Z" fill="white"/>
</svg>
