<svg width="65" height="65" viewBox="0 0 65 65" fill="none" xmlns="http://www.w3.org/2000/svg">
<ellipse cx="32.1541" cy="32.1918" rx="32.1541" ry="32.1918" fill="#333333"/>
<path d="M39.7072 14.7715H24.6011C19.6847 14.7715 15.6851 18.6467 15.6851 23.4102V38.0466C15.6851 42.8098 19.6847 46.6851 24.6011 46.6851H39.7075C44.6236 46.6851 48.6233 42.8098 48.6233 38.0466V23.4102C48.6233 18.6467 44.6236 14.7715 39.7072 14.7715V14.7715ZM46.6923 38.0466C46.6923 41.7782 43.5589 44.8141 39.7072 44.8141H24.6011C20.7495 44.8141 17.616 41.7782 17.616 38.0466V23.4102C17.616 19.6784 20.7495 16.6424 24.6011 16.6424H39.7075C43.5589 16.6424 46.6923 19.6784 46.6923 23.4102V38.0466Z" fill="white"/>
<path d="M32.1538 22.0024C27.1876 22.0024 23.1475 25.9168 23.1475 30.7284C23.1475 35.54 27.1876 39.4543 32.1538 39.4543C37.12 39.4543 41.1601 35.54 41.1601 30.7284C41.1601 25.9168 37.12 22.0024 32.1538 22.0024ZM32.1538 37.5835C28.2526 37.5835 25.0784 34.5084 25.0784 30.7284C25.0784 26.9487 28.2526 23.8733 32.1538 23.8733C36.0552 23.8733 39.2291 26.9487 39.2291 30.7284C39.2291 34.5084 36.0552 37.5835 32.1538 37.5835Z" fill="white"/>
<path d="M41.3756 18.9033C39.908 18.9033 38.7144 20.0601 38.7144 21.4818C38.7144 22.9038 39.908 24.0605 41.3756 24.0605C42.8432 24.0605 44.0371 22.9038 44.0371 21.4818C44.0371 20.0599 42.8432 18.9033 41.3756 18.9033ZM41.3756 22.1894C40.973 22.1894 40.6453 21.8719 40.6453 21.4818C40.6453 21.0915 40.973 20.7742 41.3756 20.7742C41.7784 20.7742 42.1061 21.0915 42.1061 21.4818C42.1061 21.8719 41.7784 22.1894 41.3756 22.1894Z" fill="white"/>
</svg>
