<svg width="65" height="65" viewBox="0 0 65 65" fill="none" xmlns="http://www.w3.org/2000/svg">
<ellipse cx="32.846" cy="32.1918" rx="32.1541" ry="32.1918" fill="#333333"/>
<path d="M38.0438 29.2917L30.7238 25.4112C30.3029 25.188 29.8055 25.1964 29.3929 25.4332C28.9801 25.6703 28.7339 26.0891 28.7339 26.554V34.2485C28.7339 34.7112 28.9786 35.1293 29.3886 35.3666C29.6027 35.4905 29.8401 35.5527 30.078 35.5527C30.2959 35.5527 30.5143 35.5006 30.7152 35.3957L38.0355 31.582C38.47 31.3555 38.7413 30.9178 38.7433 30.4395C38.745 29.9611 38.4771 29.5215 38.0438 29.2917ZM30.6756 33.2806V27.5298L36.1464 30.4301L30.6756 33.2806Z" fill="white"/>
<path d="M49.2668 24.3095L49.2653 24.2948C49.2372 24.0364 48.9579 21.738 47.8047 20.5689C46.4717 19.1939 44.9605 19.0269 44.2338 18.9468C44.1736 18.9402 44.1185 18.934 44.0692 18.9277L44.0113 18.9218C39.631 18.6132 33.0158 18.571 32.9495 18.5708L32.9437 18.5706L32.9379 18.5708C32.8717 18.571 26.2564 18.6132 21.8367 18.9218L21.7783 18.9277C21.7313 18.9338 21.6795 18.9394 21.6231 18.9458C20.9047 19.0261 19.4097 19.1934 18.0729 20.6182C16.9745 21.7747 16.657 24.0239 16.6244 24.2766L16.6206 24.3095C16.6108 24.417 16.377 26.9767 16.377 29.5465V31.9487C16.377 34.5185 16.6108 37.0783 16.6206 37.186L16.6224 37.2022C16.6505 37.4564 16.9295 39.7127 18.0775 40.8822C19.3308 42.2112 20.9155 42.3871 21.7679 42.4816C21.9027 42.4966 22.0187 42.5093 22.0978 42.5228L22.1744 42.533C24.7036 42.7662 32.6333 42.8811 32.9695 42.8857L32.9796 42.886L32.9897 42.8857C33.056 42.8855 39.6709 42.8434 44.0513 42.5348L44.1092 42.5289C44.1645 42.5218 44.2267 42.5154 44.295 42.5086C45.0093 42.4351 46.4962 42.2825 47.8145 40.8771C48.9129 39.7203 49.2307 37.4711 49.263 37.2186L49.2668 37.1858C49.2767 37.078 49.5107 34.5185 49.5107 31.9487V29.5465C49.5105 26.9767 49.2767 24.4172 49.2668 24.3095ZM47.5688 31.9487C47.5688 34.3272 47.3545 36.7768 47.3342 37.0016C47.2518 37.621 46.9169 39.0441 46.3817 39.6076C45.5566 40.4872 44.709 40.5744 44.0902 40.6378C44.0154 40.6454 43.9461 40.6527 43.8834 40.6603C39.6467 40.9572 33.2812 41.0027 32.988 41.0045C32.6591 40.9998 24.8454 40.8839 22.3933 40.6633C22.2677 40.6434 22.1319 40.6282 21.9889 40.6126C21.2631 40.532 20.2696 40.4218 19.5057 39.6076L19.4878 39.589C18.962 39.0583 18.6366 37.7276 18.554 37.0089C18.5386 36.839 18.3186 34.3605 18.3186 31.9487V29.5465C18.3186 27.1707 18.5325 24.7239 18.5532 24.4944C18.6515 23.7647 18.9928 22.4279 19.5057 21.8876C20.3561 20.9814 21.2527 20.881 21.8458 20.8146C21.9024 20.8082 21.9552 20.8023 22.004 20.7962C26.3025 20.4979 32.7137 20.4536 32.9437 20.4518C33.1738 20.4533 39.5827 20.4979 43.843 20.7962C43.8953 20.8026 43.9524 20.8089 44.0138 20.8158C44.6238 20.8832 45.5457 20.9851 46.3918 21.8594L46.3997 21.8675C46.9255 22.3983 47.2508 23.7522 47.3335 24.4853C47.3481 24.6457 47.5688 27.1295 47.5688 29.5465V31.9487Z" fill="white"/>
</svg>
