<svg width="96" height="126" viewBox="0 0 96 126" fill="none" xmlns="http://www.w3.org/2000/svg">
<path d="M54.1832 77.6006C53.6553 77.5656 53.1274 77.5338 52.5925 77.5051C52.5256 78.5199 52.4623 79.5314 52.3989 80.5462C52.8916 80.5716 53.3843 80.5971 53.8805 80.6289C54.4366 80.6607 55.7071 80.737 55.8478 79.2451C55.9358 78.3036 55.5452 77.6864 54.1832 77.6006Z" fill="#EC008C"/>
<path d="M54.6128 73.2336C54.0321 73.1986 53.4479 73.1636 52.8531 73.135C52.7968 74.0448 52.737 74.9514 52.6807 75.8611C53.3001 75.8929 53.916 75.9279 54.5354 75.9693C54.7336 75.9905 54.9346 75.9733 55.125 75.919C55.3154 75.8646 55.4907 75.7742 55.6395 75.6539C55.7883 75.5336 55.9071 75.386 55.9879 75.221C56.0688 75.056 56.1099 74.8773 56.1085 74.6969C56.1234 74.5106 56.0959 74.3236 56.0276 74.1473C55.9594 73.9711 55.8518 73.8093 55.7116 73.6722C55.5714 73.535 55.4015 73.4253 55.2125 73.3499C55.0235 73.2744 54.8194 73.2349 54.6128 73.2336Z" fill="#EC008C"/>
<path d="M90.8231 77.5911C90.6706 77.3074 90.3997 77.09 90.0699 76.9867C89.1408 76.6909 88.2117 76.4046 87.2756 76.1279C86.9437 76.0315 86.5832 76.0577 86.2726 76.2007C85.9621 76.3437 85.7267 76.592 85.618 76.8913L84.5622 79.8464L83.9639 79.681L84.9528 76.7004C85.0513 76.398 85.0132 76.0726 84.847 75.7955C84.6808 75.5183 84.4 75.3119 84.066 75.2213C83.1298 74.9668 82.1866 74.7218 81.2505 74.4865C80.9496 74.4073 80.6269 74.4318 80.3448 74.5552C80.0627 74.6786 79.8412 74.8921 79.7231 75.1545C79.0509 74.1779 77.8015 73.4844 75.982 73.0964C74.0112 72.686 72.431 72.8228 71.2837 73.4145C71.3014 73.1294 71.2042 72.8483 71.01 72.6231C70.8159 72.3979 70.538 72.2439 70.2279 72.1898C69.2707 72.0244 68.3123 71.8706 67.3527 71.7285C67.0083 71.678 66.6558 71.7532 66.3727 71.9375C66.0895 72.1218 65.899 72.4002 65.8429 72.7114L64.4985 80.0628C64.4105 80.5463 64.2662 80.6608 64.2662 80.6608C64.174 80.6721 64.0804 80.6721 63.9882 80.6608C63.9166 80.6541 63.8473 80.6346 63.7841 80.6035C63.7841 80.6035 63.675 80.454 63.7454 79.9673L64.8715 72.5842C64.9165 72.271 64.8229 71.9543 64.6111 71.7031C64.5082 71.5778 64.3786 71.4724 64.2299 71.3932C64.0812 71.314 63.9164 71.2625 63.7454 71.2418C63.1471 71.1687 62.5523 71.105 61.9575 71.0382C62.1528 70.7172 62.2417 70.3521 62.2136 69.9865C62.1856 69.621 62.0417 69.2705 61.7992 68.9769C61.2677 68.3407 60.7891 67.6855 60.3245 67.0524C59.774 66.2636 59.1785 65.5013 58.5403 64.7685H58.5895C58.908 64.9101 59.2588 64.982 59.6137 64.9784C60.047 64.9763 60.4733 64.8791 60.856 64.6953C61.1501 64.7885 61.4593 64.8369 61.771 64.8385C62.2993 64.8431 62.8148 64.6911 63.2386 64.4058H63.5095C64.237 64.3928 64.9621 64.3257 65.6775 64.2054C65.9485 64.1673 66.2194 64.1291 66.4869 64.0973C67.4114 63.9846 68.3263 63.8146 69.2249 63.5883C69.5769 63.5088 69.9288 63.4356 70.2807 63.3625C70.8333 63.2416 71.4069 63.1207 71.9524 62.9808C72.8772 62.7242 73.7814 62.4106 74.6588 62.0424C75.6408 61.5985 76.6851 61.2775 77.7628 61.088C78.1115 61.0542 78.4492 60.9573 78.7557 60.8032C79.0622 60.6491 79.3313 60.4409 79.5471 60.191C79.7386 59.9602 79.8779 59.6976 79.957 59.4181C80.0361 59.1387 80.0535 58.8479 80.0082 58.5623C79.9182 58.0498 79.633 57.5818 79.2018 57.2391C78.7706 56.8964 78.2206 56.7006 77.6467 56.6855C76.6894 56.6092 75.6899 56.2084 74.6341 55.7853C74.1168 55.5785 73.5784 55.3654 73.0188 55.1777C72.3607 54.9487 71.6603 54.7801 71.048 54.6274C70.7875 54.5638 70.5377 54.5034 70.2983 54.4397C70.1342 54.3895 69.9732 54.3311 69.8162 54.2648C69.1002 53.9402 68.3151 53.759 67.5145 53.7336C67.2976 53.7334 67.081 53.7493 66.867 53.7813C66.7635 53.7971 66.6587 53.8046 66.5538 53.8035C66.2239 53.7989 65.8961 53.755 65.5789 53.6731C65.798 53.5236 65.9903 53.3444 66.149 53.1419C66.2665 52.9925 66.3645 52.8313 66.4411 52.6616C66.9669 52.5476 67.4795 52.3889 67.9721 52.1876C68.317 52.0722 68.6306 51.8916 68.8922 51.6579C69.1537 51.4242 69.3572 51.1428 69.4889 50.8325L69.6438 50.7911C70.3476 50.6035 71.7554 50.2217 72.1073 48.8825V48.8666L72.3888 48.7744C72.7748 48.6717 73.1333 48.4985 73.442 48.2654C73.7508 48.0323 74.0032 47.7443 74.1837 47.4193C74.2268 47.325 74.2633 47.2283 74.2928 47.1298C74.3737 47.0916 74.4547 47.0471 74.5426 46.9994C74.5686 46.9885 74.5957 46.98 74.6236 46.9739C75.9433 46.5604 76.4536 45.8669 76.6155 45.2466C76.9006 45.1417 77.1822 45.024 77.4672 44.8904C77.8566 44.7266 78.1951 44.4782 78.4524 44.1673C78.7097 43.8565 78.8779 43.4929 78.9418 43.109C79.1879 42.9818 79.4231 42.8383 79.6457 42.6796C79.9528 42.5063 80.2139 42.2739 80.4104 41.999C80.6069 41.7241 80.7339 41.4134 80.7824 41.0891V41.0636C81.1516 40.9273 81.485 40.7224 81.7609 40.4621C82.0367 40.2018 82.2489 39.8919 82.3837 39.5526C82.446 39.3857 82.4862 39.2128 82.5034 39.0373C83.2331 38.6296 83.7573 37.9799 83.9639 37.2273C84.3893 36.8358 84.7306 36.3763 84.9704 35.8722C85.0267 35.7672 85.1006 35.6241 85.1429 35.5541C85.8467 34.8988 86.4943 34.2054 87.1067 33.5342L87.8528 32.7198C88.0556 32.5065 88.2032 32.2549 88.2847 31.9834C88.3662 31.7119 88.3796 31.4273 88.324 31.1506C88.2683 30.8738 88.145 30.6117 87.963 30.3835C87.781 30.1553 87.545 29.9667 87.2721 29.8315L87.2228 29.8029C86.8659 29.5927 86.4486 29.4821 86.0227 29.4848C85.9178 29.4858 85.8132 29.4933 85.7095 29.507C85.6094 29.5207 85.5107 29.5409 85.4138 29.5675C83.5486 30.0764 81.6845 30.5886 79.8216 31.1039C79.513 30.9958 79.1848 30.9408 78.8538 30.9417C78.1471 30.9566 77.468 31.1927 76.9323 31.6097C76.7119 31.5565 76.4847 31.5297 76.2565 31.5301C75.5483 31.5524 74.8699 31.7939 74.335 32.2141L74.2294 32.2872L74.0816 32.3699C73.8589 32.3163 73.6293 32.2896 73.3988 32.2904C72.9932 32.3 72.5941 32.3852 72.2265 32.5407C71.8589 32.6961 71.5308 32.9185 71.2626 33.1938C71.0284 33.1314 70.7853 33.1003 70.5412 33.1016C70.0682 33.1157 69.6068 33.2373 69.1995 33.4553C68.7923 33.6732 68.4525 33.9804 68.2114 34.3485C68.1469 34.3453 68.0823 34.3453 68.0178 34.3485C67.2492 34.3691 66.5171 34.6495 65.966 35.1342L65.864 35.2169C65.7375 35.2908 65.6196 35.3761 65.512 35.4714C65.4511 35.4682 65.39 35.4682 65.3291 35.4714C64.2486 35.4714 63.3828 36.2571 63.2843 36.3462C63.1858 36.4353 63.0767 36.5561 62.9746 36.6643C62.8465 36.6464 62.7171 36.6368 62.5875 36.6357C62.1942 36.6465 61.8084 36.7361 61.4579 36.8978C61.1074 37.0595 60.8008 37.2893 60.5603 37.5709L60.5287 37.6059C60.3002 37.7666 60.0914 37.9489 59.9058 38.1498H59.8143C59.4457 38.1596 59.0837 38.2407 58.7528 38.3878C58.4219 38.5349 58.1298 38.7444 57.8962 39.0023H57.8751C57.4856 39.2953 57.1485 39.6408 56.8756 40.0266C56.4205 40.0824 55.9835 40.2246 55.5935 40.4439C55.2035 40.6632 54.8692 40.9546 54.6127 41.299L54.4825 41.4485C54.2263 41.7188 54.0185 42.0236 53.8666 42.3519C53.6372 42.3862 53.4151 42.4528 53.2085 42.5491C53.1582 42.297 53.0594 42.0547 52.9164 41.8334C52.9164 41.8143 52.8952 41.7984 52.8882 41.7825C53.1543 41.3035 53.37 40.803 53.5323 40.2875L53.5604 40.1857C53.8077 39.5429 53.8077 38.8435 53.5604 38.2007C53.8148 37.8037 54.0224 37.3836 54.1798 36.9474C54.4789 36.1108 54.8238 35.1597 54.1798 34.199C54.1222 34.1121 54.0575 34.0291 53.9862 33.9509C54.2471 33.3615 54.4463 32.7512 54.581 32.1282C54.6832 31.7715 54.6958 31.3987 54.6179 31.0371C54.5399 30.6754 54.3734 30.3341 54.1305 30.0382L54.1094 30.016C54.2279 29.635 54.323 29.2485 54.3945 28.8581C54.4719 28.4223 54.6479 27.4394 53.8736 26.6155C53.8173 26.5582 53.761 26.5073 53.7047 26.4564C53.8188 26.0866 53.8988 25.7089 53.944 25.3272C54.0113 24.9565 53.991 24.5772 53.8842 24.2142C53.7774 23.8512 53.5867 23.5128 53.3246 23.2214L53.2436 23.145C53.2683 22.9987 53.2965 22.8587 53.3176 22.7251C53.3387 22.5915 53.3633 22.4643 53.3844 22.3338C53.3877 22.3149 53.3877 22.2956 53.3844 22.2766C53.4852 21.8976 53.4905 21.503 53.3997 21.122C53.3089 20.7409 53.1245 20.3832 52.8601 20.0753C52.8146 20.0245 52.7652 19.9767 52.7122 19.9322C52.8016 19.5585 52.8557 19.1786 52.8741 18.7966C52.9152 18.4382 52.8738 18.0761 52.7527 17.7329C52.6316 17.3897 52.4333 17.0728 52.1703 16.8021C52.0937 16.7278 52.0101 16.6596 51.9204 16.5985C51.9847 16.1769 51.9977 15.7502 51.9591 15.3261C51.8817 14.2827 51.4101 13.707 50.9033 13.3889C50.9033 13.0962 50.9279 12.794 50.9244 12.4855C50.9448 12.0999 50.862 11.7156 50.6831 11.365C50.5042 11.0145 50.2345 10.7082 49.8968 10.4719C50.0411 8.78912 49.4358 8.07022 48.8691 7.74257C48.8535 7.38877 48.7598 7.04135 48.5936 6.72071C48.4274 6.40007 48.1921 6.11265 47.9013 5.87532C47.8107 5.31145 47.6574 4.75727 47.4438 4.2212C47.3264 3.93026 47.2346 3.63137 47.1693 3.32733C47.039 2.3325 46.5831 1.39547 45.8601 0.636203C45.6617 0.435735 45.4187 0.275425 45.147 0.165785C44.8753 0.0561449 44.581 -0.00035067 44.2835 1.63765e-06C44.1975 0.000574177 44.1118 0.00588549 44.0266 0.0159064C43.6867 0.0533023 43.3622 0.165716 43.0817 0.343234C42.8012 0.520752 42.5733 0.757922 42.4182 1.03383C41.8199 2.08992 41.278 3.14284 41.2181 4.38025C41.1261 4.84512 40.9476 5.29254 40.6902 5.70355C40.3091 6.36967 40.0286 7.079 39.8562 7.81255C39.2297 8.27062 38.7194 9.05633 38.8004 10.4051C38.3006 10.7232 37.8185 11.2671 37.6882 12.3137V12.3868C37.6327 12.7514 37.615 13.1199 37.6354 13.4875C37.3126 13.7116 37.0563 14.0045 36.8893 14.34C36.7083 14.7279 36.6242 15.1472 36.643 15.5678C36.643 15.6028 36.643 15.6346 36.643 15.6665C36.6302 15.9393 36.6408 16.2126 36.6747 16.484C36.1749 16.8021 35.7315 17.4065 35.6822 18.4498C35.6633 18.945 35.7237 19.44 35.8617 19.9195C35.6041 20.1893 35.4128 20.5055 35.3006 20.8471C35.1883 21.1888 35.1577 21.5481 35.2106 21.9012C35.2372 22.33 35.3055 22.7557 35.4148 23.1736C35.154 23.4608 34.9616 23.7935 34.8496 24.1509C34.7375 24.5083 34.7083 24.8827 34.7637 25.2508V25.3972C34.7734 25.7771 34.836 26.1543 34.9502 26.5201C34.8705 26.5871 34.7964 26.6594 34.7285 26.7364C33.9472 27.6143 34.2041 28.645 34.3167 29.0903L34.3449 29.2144C34.401 29.4913 34.4738 29.7653 34.5631 30.0351C33.8311 30.789 33.7184 31.7178 34.2111 32.7994L34.2358 32.8566C34.3228 33.2304 34.4526 33.595 34.6229 33.9445C34.5598 34.0151 34.5022 34.0895 34.4505 34.1672C33.7748 35.1501 34.1795 36.1871 34.4505 36.8742C34.6077 37.3093 34.797 37.7344 35.0171 38.1466C34.5244 39.0755 34.9572 39.9662 35.1473 40.3543L35.1825 40.4274C35.2881 40.6374 35.3725 40.8378 35.4605 41.0413C35.5485 41.2449 35.6505 41.4994 35.7737 41.7475C35.5546 42.0982 35.4462 42.4965 35.4605 42.8991C35.1554 42.6343 34.7755 42.4505 34.3625 42.3678C34.0459 41.8555 33.6474 41.3882 33.18 40.9809C32.9349 40.7389 32.6392 40.5433 32.31 40.4051C31.9808 40.267 31.6246 40.1892 31.2619 40.1761C31.0684 39.9439 30.8713 39.7371 30.6848 39.5399L30.4982 39.3427C30.2495 39.0674 29.939 38.8431 29.587 38.6846C29.2351 38.5261 28.8499 38.4371 28.457 38.4234H28.2529L28.0242 38.1753C27.8623 38.0003 27.7004 37.8222 27.5279 37.6631C27.0148 37.1778 26.3102 36.8953 25.5676 36.8774C25.4821 36.8726 25.3963 36.8726 25.3107 36.8774C25.0529 36.5553 24.7152 36.2923 24.3247 36.1095C23.9342 35.9266 23.5017 35.829 23.0619 35.8245C22.9276 35.8235 22.7935 35.832 22.6607 35.8499C22.4848 35.6814 22.3088 35.5096 22.1223 35.3473C21.612 34.8561 20.907 34.5678 20.162 34.5457C20.06 34.5394 19.9577 34.5394 19.8558 34.5457C19.6126 34.227 19.2894 33.9649 18.9126 33.7808C18.5358 33.5967 18.1161 33.4958 17.6879 33.4865C17.4077 33.486 17.1293 33.528 16.8644 33.6105C16.7236 33.5055 16.5758 33.4006 16.428 33.2924C15.9263 32.9122 15.298 32.6949 14.6437 32.6753C14.4417 32.6742 14.2404 32.6978 14.0454 32.7453C13.5112 32.3132 12.8262 32.0643 12.1097 32.0423C11.8418 32.0417 11.5756 32.0804 11.3214 32.1568C11.2729 32.1246 11.2224 32.0948 11.1701 32.0677L11.0997 32.0264C10.6102 31.7035 10.0233 31.5237 9.41748 31.5111C9.23288 31.5116 9.04884 31.5297 8.86845 31.5651C8.77053 31.5867 8.67008 31.5973 8.56931 31.5969C8.07401 31.5585 7.58648 31.4612 7.11935 31.3075C6.85188 31.2311 6.5844 31.158 6.31341 31.0943C5.96148 31.0148 5.60955 30.8939 5.21538 30.7762C4.27358 30.4282 3.28172 30.2033 2.26971 30.1082H2.12188C1.65519 30.1077 1.20175 30.2484 0.833749 30.5078C0.465749 30.7672 0.204397 31.1304 0.0912616 31.5397C-0.0363676 31.9714 -0.0300308 32.4266 0.109649 32.8553C0.249328 33.284 0.516956 33.6697 0.883111 33.97C1.4611 34.5068 1.99508 35.0809 2.48086 35.6877C3.00426 36.3238 3.56462 36.9344 4.15958 37.5168C4.20885 38.2039 4.59248 38.9864 5.76442 39.6194C5.90871 40.3224 6.37677 41.0414 7.46424 41.6139C7.48207 41.7317 7.50672 41.8485 7.53813 41.9638C7.65685 42.3255 7.86674 42.6574 8.15131 42.9333C8.43587 43.2093 8.78735 43.4219 9.17815 43.5543C9.25343 43.616 9.33468 43.6713 9.42096 43.7198C9.43232 43.7906 9.44878 43.8608 9.47024 43.9297C9.7311 44.5889 10.2665 45.13 10.9624 45.4375C11.2369 45.552 11.5044 45.6474 11.7613 45.7556C11.8182 45.951 11.8997 46.1399 12.0042 46.3186C12.2299 46.6603 12.5361 46.9529 12.9011 47.1756C13.266 47.3982 13.6807 47.5455 14.1158 47.6069C14.3481 48.3227 14.9393 49.0511 16.3189 49.4106C16.5365 49.9821 16.9906 50.4552 17.5858 50.7307C18.017 50.981 18.4935 51.1609 18.9936 51.2619C19.1505 51.6086 19.3964 51.9166 19.7109 52.1605C20.0254 52.4044 20.3996 52.5772 20.8025 52.6647H20.8518C21.2283 52.757 21.6014 52.8365 21.9815 52.9192C22.0826 53.1379 22.2229 53.3399 22.3968 53.5173C22.1449 53.5687 21.9013 53.6489 21.6718 53.7558C21.3301 53.8642 20.9759 53.9368 20.616 53.9721C20.141 54.0343 19.6708 54.1235 19.2082 54.2393C18.6979 54.3793 18.1524 54.5034 17.5436 54.6338C17.1917 54.7038 16.8644 54.7769 16.5336 54.8565C15.546 55.1074 14.5812 55.4264 13.6477 55.8108C12.7492 56.1992 11.8046 56.4938 10.8322 56.6887C8.96697 56.9337 8.54817 58.2474 8.59041 58.9854C8.58869 59.0098 8.58869 59.0342 8.59041 59.0586C8.65011 59.5581 8.88872 60.0264 9.26987 60.3922C9.65103 60.7579 10.1539 61.0011 10.702 61.0849L10.871 61.1199C11.618 61.2427 12.3508 61.428 13.06 61.6734C13.3521 61.7847 13.6407 61.9024 13.9328 62.0169C15.1773 62.583 16.51 62.9745 17.885 63.178C18.082 63.2034 18.2897 63.2193 18.5008 63.232C18.6592 63.232 18.902 63.2639 19.0604 63.2861C19.7046 63.7246 20.4888 63.9623 21.2952 63.9637C21.436 63.9637 21.5838 63.9637 21.7281 63.9446C22.5777 64.2451 23.488 64.3796 24.3992 64.339C24.6702 64.339 24.9342 64.339 25.1277 64.3613C25.2942 64.3937 25.4587 64.434 25.6204 64.4822C26.1878 64.6567 26.781 64.7533 27.3801 64.7685C27.7019 64.7698 28.0225 64.7334 28.3339 64.6603C28.5281 64.7052 28.7257 64.7371 28.9251 64.7558C27.6217 66.1031 26.4677 67.5627 25.4797 69.1137C25.2769 69.4336 25.1811 69.7996 25.2036 70.1677C25.226 70.5357 25.366 70.89 25.6064 71.1877C25.6899 71.2833 25.7829 71.3717 25.8844 71.4518C25.0445 71.3614 24.1945 71.3818 23.3611 71.5122C21.7527 71.7603 20.5456 72.2438 19.7291 72.9659C19.639 72.858 19.5296 72.7645 19.4053 72.6892C19.2614 72.6026 19.0999 72.5425 18.9302 72.5125C18.7604 72.4825 18.5859 72.4831 18.4164 72.5142C15.3475 73.0741 12.2541 73.7421 9.23447 74.4992C9.05035 74.5463 8.87973 74.629 8.7345 74.7416C8.58926 74.8542 8.47286 74.994 8.39335 75.1513C8.07137 75.0911 7.74372 75.0592 7.41496 75.0558C6.6143 75.0704 5.82064 75.1938 5.06055 75.4217C3.0299 75.9974 1.67847 76.8722 1.04499 78.0174C0.791216 78.4969 0.651042 79.0191 0.633467 79.5504C0.615892 80.0818 0.72129 80.6106 0.942912 81.1029C1.5412 82.6076 2.82224 83.2947 4.15958 83.6668L3.25866 83.9499C2.94274 84.0489 2.68049 84.2532 2.52549 84.521C2.37049 84.7888 2.33442 85.0999 2.42458 85.3909C3.12844 87.6336 4.56784 88.7724 6.72871 88.7724C7.4821 88.7591 8.22871 88.6411 8.94234 88.4224C10.2762 88.0375 14.3375 86.8574 13.1303 82.8557C12.613 81.1125 11.2299 80.3618 9.82569 79.9928L10.6492 79.7828C10.9677 79.7027 11.2412 79.5172 11.4153 79.2632C11.5894 79.0092 11.6514 78.7052 11.5889 78.4118C11.5889 78.3577 11.5537 78.31 11.5431 78.2559L12.247 78.0873L14.3269 85.6009C14.3978 85.8585 14.5621 86.0872 14.7937 86.2504C15.0253 86.4136 15.3108 86.5018 15.6044 86.5011C15.7124 86.5022 15.8201 86.4905 15.9247 86.4661C16.7694 86.2753 17.621 86.0908 18.4692 85.9158C18.8086 85.8458 19.1034 85.657 19.2892 85.3909C19.4744 85.1227 19.5363 84.7996 19.4616 84.4907L17.5542 76.9422L18.4058 76.78C18.4895 77.5723 18.6259 78.3595 18.8141 79.1371C19.349 81.5483 20.0846 84.8343 24.1987 84.9138C22.4235 85.8139 21.0629 87.2581 20.3626 88.9855C19.6866 90.5481 19.5867 92.2662 20.0775 93.8842C20.3541 94.8796 20.8669 95.8087 21.5803 96.6072C21.7413 96.7857 21.9441 96.9296 22.1742 97.0287C22.4042 97.1277 22.6558 97.1793 22.9106 97.1798C23.1289 97.1807 23.3453 97.1429 23.5476 97.0684C24.2363 97.798 25.0929 98.3829 26.0576 98.7823C27.0222 99.1817 28.0717 99.386 29.1327 99.381C29.7034 99.3792 30.2721 99.3216 30.8291 99.2092C27.9855 101.503 27.088 105.024 28.6295 108.361C28.7931 108.693 28.9861 109.012 29.2067 109.315C29.2735 109.417 29.3404 109.516 29.4037 109.617C29.5527 109.857 29.7695 110.055 30.0318 110.194C30.2941 110.332 30.5924 110.404 30.8959 110.403C31.1217 110.403 31.3453 110.363 31.554 110.285C32.2444 111.047 33.1144 111.658 34.1003 112.076C35.0862 112.494 36.163 112.707 37.2518 112.7C37.802 112.696 38.3504 112.642 38.8883 112.538C38.193 113.118 37.5997 113.79 37.1287 114.532C36.0498 116.221 35.7083 118.213 36.1714 120.118C36.4021 121.206 36.9255 122.227 37.6953 123.089C37.8562 123.269 38.0594 123.414 38.2902 123.513C38.5209 123.613 38.7733 123.665 39.0291 123.665C39.2335 123.665 39.4363 123.632 39.6274 123.566C40.3258 124.336 41.2062 124.954 42.2039 125.375C43.2015 125.796 44.291 126.009 45.392 126C46.8289 125.998 48.2388 125.648 49.4745 124.985C50.4606 124.465 51.3186 123.768 51.9959 122.937C52.6731 122.106 53.1552 121.158 53.4126 120.153C53.6693 119.131 53.695 118.072 53.4881 117.041C53.2813 116.009 52.8463 115.026 52.209 114.15C50.4704 111.758 47.9612 110.492 44.9521 110.492C44.4219 110.494 43.8926 110.531 43.3684 110.604C43.1784 110.629 43.0165 110.67 42.8159 110.705C43.6515 110.015 44.3212 109.177 44.7832 108.243C45.0595 108.799 45.4029 109.325 45.8073 109.812C46.0319 110.08 46.3469 110.275 46.7048 110.368C47.0626 110.461 47.4442 110.447 47.7922 110.327C48.4943 111.072 49.3689 111.668 50.354 112.074C51.3392 112.479 52.411 112.684 53.4935 112.674C54.5219 112.674 55.5404 112.492 56.492 112.14C57.5754 111.757 58.5573 111.172 59.3736 110.422C60.1898 109.673 60.822 108.777 61.229 107.792C61.669 106.683 61.8299 105.5 61.7002 104.328C61.5705 103.156 61.1533 102.026 60.4791 101.018C59.8049 100.01 58.8905 99.1512 57.8027 98.5032C56.7148 97.8552 55.4808 97.4346 54.1904 97.272C53.75 97.2129 53.3053 97.1831 52.8601 97.1829C52.2492 97.1837 51.6403 97.2445 51.0441 97.3643C51.8506 96.6783 52.4947 95.8515 52.9375 94.934C53.2191 95.5057 53.5734 96.0459 53.9933 96.5436C54.2173 96.8117 54.5316 97.0069 54.8889 97.0999C55.2462 97.1928 55.6272 97.1784 55.9747 97.0589C56.6768 97.8047 57.5518 98.4019 58.5376 98.8082C59.5235 99.2144 60.5961 99.4197 61.6795 99.4096C62.7078 99.4085 63.7261 99.2271 64.6779 98.8752C65.7555 98.484 66.7299 97.892 67.5375 97.1379C68.3452 96.3838 68.9681 95.4843 69.3657 94.4982C70.0969 92.6509 70.0439 90.6241 69.217 88.8101C68.39 86.996 66.8479 85.5238 64.8891 84.6784C66.108 84.6671 67.2833 84.2672 68.2078 83.5491C68.2873 83.7399 68.3851 83.9241 68.5 84.0995C69.1581 85.0792 70.3652 85.7472 72.0791 86.0939C72.8212 86.2597 73.5813 86.3503 74.3456 86.3643C75.074 86.3743 75.7957 86.2363 76.4572 85.9603C76.4516 86.1715 76.5087 86.3802 76.6226 86.5647C76.7971 86.8384 77.0843 87.0385 77.4215 87.1214C78.2626 87.3314 79.1002 87.5477 79.9378 87.7767C80.1037 87.8213 80.2777 87.8359 80.4498 87.8195C80.622 87.8031 80.7888 87.7562 80.9408 87.6813C81.093 87.6076 81.2275 87.5071 81.3362 87.3859C81.445 87.2646 81.5259 87.125 81.5742 86.9751L82.711 83.5396L83.2002 83.6796L81.9403 87.0832C81.8324 87.3832 81.8603 87.7095 82.0179 87.9909C82.1756 88.2723 82.4501 88.4857 82.7814 88.5847C83.6143 88.8286 84.4448 89.083 85.2731 89.3481C85.4137 89.3907 85.5611 89.4122 85.7095 89.4117C85.9824 89.4128 86.2489 89.3367 86.4717 89.1941C86.6944 89.0515 86.8623 88.8496 86.9518 88.6165L90.8759 78.5009C90.991 78.2031 90.972 77.8764 90.8231 77.5911ZM7.70357 79.3407C7.44666 78.574 7.02431 77.8329 5.9122 78.1446C5.02533 78.3959 4.63119 78.9335 4.88459 79.6397C5.58845 81.5483 10.9378 79.9005 11.9232 83.1865C12.7292 85.8649 10.5155 86.7556 8.60098 87.3218C5.48285 88.2252 4.31091 86.9083 3.75485 85.0951C4.62061 84.8215 5.48636 84.5565 6.35212 84.2999C6.70405 85.2764 7.05598 86.0717 8.46372 85.6709C8.64341 85.6391 8.81306 85.5716 8.96047 85.4734C9.10788 85.3753 9.22939 85.2487 9.31623 85.103C9.40306 84.9573 9.45308 84.796 9.46268 84.6307C9.47227 84.4654 9.44121 84.3003 9.37173 84.1472C8.76289 82.264 3.43459 83.7018 2.25209 80.7244C1.63621 79.153 2.12189 77.5434 5.52508 76.5891C8.24905 75.832 9.89609 76.4587 10.3642 78.6599C9.4726 78.8741 8.58575 79.101 7.70357 79.3407ZM16.0268 76.0515C16.7588 78.9547 17.4908 81.86 18.2228 84.7675C17.3641 84.9414 16.5066 85.1259 15.6502 85.321C14.8501 82.4326 14.0489 79.5421 13.2465 76.6495C12.2154 76.8818 11.1947 77.1299 10.1706 77.3843L9.64268 75.6666C12.6552 74.9159 15.6878 74.2606 18.7402 73.7007C18.8704 74.2829 18.9971 74.865 19.1273 75.4471C18.0891 75.6348 17.0579 75.8384 16.0268 76.0515ZM58.5015 79.7987C58.1743 82.4899 55.4221 82.3658 54.3065 82.3022C52.7615 82.2036 51.2201 82.1241 49.6716 82.0763L50.0939 71.3595C51.7925 71.4168 53.4935 71.5016 55.1969 71.614C57.393 71.7603 59.1491 72.4252 58.8781 74.6932C58.7303 75.9243 57.8751 76.7322 56.3653 76.8531V76.8818C58.2974 77.2539 58.674 78.3482 58.5015 79.7987ZM44.382 75.5775C45.7545 75.5775 47.1306 75.5775 48.5031 75.6125C48.5031 76.1628 48.4714 76.71 48.4574 77.2603C47.1024 77.2285 45.7475 77.2189 44.3926 77.2253C44.3926 78.2719 44.3926 79.3152 44.4207 80.3586C45.8941 80.3586 47.3699 80.3734 48.848 80.4031C48.848 80.9503 48.8163 81.5006 48.7952 82.0477C46.4701 81.9905 44.1403 81.9905 41.8058 82.0477C41.6979 78.4765 41.5806 74.9042 41.4539 71.3309C43.9597 71.2673 46.469 71.2673 48.9677 71.3309C48.9677 71.878 48.936 72.4283 48.9219 72.9755C47.3946 72.9405 45.8742 72.9278 44.3468 72.9341C44.3644 73.8216 44.375 74.7091 44.382 75.5839V75.5775ZM33.5601 82.5185C32.7471 82.5885 31.9341 82.6712 31.1212 82.7539L29.7381 72.1071C31.0297 71.9735 32.3248 71.8494 33.6093 71.7476C35.0617 74.1164 36.4447 76.5053 37.7586 78.9144H37.7903C37.6284 76.446 37.4665 73.9754 37.3046 71.5027C38.1986 71.4549 39.0925 71.4168 39.9864 71.3818C40.1459 74.953 40.3043 78.5242 40.4615 82.0954C39.3106 82.1368 38.1563 82.1909 37.002 82.264C35.6693 79.7192 34.2534 77.203 32.7541 74.7155H32.7189L33.5601 82.5185ZM39.9441 70.1921C39.0362 70.2239 38.1305 70.2653 37.2272 70.3162C37.055 70.3255 36.8866 70.3654 36.7315 70.4336C36.5764 70.5018 36.4376 70.597 36.3232 70.7137C36.2088 70.8304 36.121 70.9663 36.0648 71.1137C36.0085 71.2611 35.9849 71.417 35.9954 71.5726L36.1186 73.4113C35.6752 72.6606 35.2247 71.9162 34.7672 71.1846C34.6452 70.9828 34.4606 70.8178 34.2361 70.7098C34.0116 70.6019 33.757 70.5557 33.5037 70.577H33.4545C36.3566 69.6746 39.0366 68.27 41.3448 66.4417C41.3448 66.5021 41.3448 66.5626 41.3448 66.623C41.38 67.0747 41.4117 67.5264 41.4363 67.9813C41.4821 68.7066 41.5595 69.4318 41.6545 70.1571H41.4117C41.1479 70.1634 40.8926 70.2422 40.6797 70.3829C40.4633 70.2505 40.205 70.1857 39.9441 70.1985V70.1921ZM47.3171 70.1221C47.2045 69.575 47.0954 69.0119 47.0039 68.398C46.8948 67.6727 46.835 66.9475 46.7963 66.2063C47.1341 66.5095 47.4931 66.8054 47.8731 67.0938C49.6782 68.4534 51.7061 69.5512 53.8842 70.348C52.6313 70.2748 51.3749 70.2112 50.1396 70.173C49.9448 70.165 49.7506 70.1988 49.573 70.2716C49.3992 70.192 49.2082 70.1475 49.0134 70.1412C48.4503 70.1348 47.8837 70.1348 47.3171 70.1285V70.1221ZM77.7804 59.0967C77.6854 59.165 77.5705 59.207 77.4496 59.2176C75.25 59.4816 73.3953 60.6268 71.3295 61.1612C70.4989 61.3775 69.5276 61.5557 68.6935 61.7529C67.8843 61.9564 67.0614 62.1126 66.23 62.2205C65.3281 62.3669 64.4173 62.4647 63.5025 62.5131C63.2944 62.5136 63.0863 62.5029 62.8796 62.4813C62.7633 62.4611 62.6458 62.4472 62.5276 62.44C62.4386 62.4369 62.351 62.4609 62.2789 62.5082C62.2068 62.5555 62.1543 62.6234 62.13 62.7008C62.106 62.769 62.0594 62.8288 61.9964 62.8721C61.9334 62.9154 61.8571 62.94 61.778 62.9426C61.634 62.9314 61.4928 62.9003 61.3592 62.8503C61.1573 62.7886 60.946 62.7553 60.7328 62.7517C60.4481 62.7503 60.1705 62.8317 59.9409 62.9839C59.8481 63.0465 59.7364 63.082 59.6207 63.0857C59.5854 63.0872 59.5504 63.0806 59.5186 63.0666C58.4277 62.5831 57.1924 63.108 56.0345 62.5163C55.3306 62.1473 54.208 62.5609 53.3985 61.9851C53.3883 61.9762 53.3761 61.9694 53.3628 61.965C53.3494 61.9606 53.3353 61.9588 53.3211 61.9596C53.2595 61.9677 53.2024 61.9934 53.1581 62.0329C53.1138 62.0724 53.0846 62.1236 53.0747 62.1791C53.0506 62.3155 53.0711 62.4553 53.1336 62.5813C53.1961 62.7073 53.298 62.8141 53.4267 62.8885C54.2879 63.541 55.1102 64.2344 55.8902 64.9657C57.0938 65.9995 57.949 67.2624 58.9344 68.5984C48.8656 63.3084 45.8531 58.1997 44.9697 55.8744C52.7757 58.3491 60.981 59.639 69.2531 59.6916C72.1087 59.7098 74.961 59.513 77.7804 59.1031V59.0967ZM85.6215 32.1822C84.9669 32.9012 84.3193 33.6169 83.6049 34.2658C82.8905 34.9147 82.9468 35.9676 81.8136 36.1935C82.2535 37.4277 80.983 37.5263 80.3214 38.0226C80.244 38.083 80.1419 38.2198 80.17 38.2612C80.9161 39.3809 79.5788 39.3013 79.1142 39.7149C78.7905 40.0075 77.7663 39.9439 78.5758 40.736C78.8045 40.9586 78.4808 41.0827 78.3189 41.2036C77.8614 41.5116 77.3562 41.7571 76.8196 41.932C76.4677 42.0656 76.0383 42.2151 76.6401 42.6159C77.0378 42.8863 76.7035 43.109 76.4431 43.2521C76.0362 43.4389 75.6179 43.6045 75.1902 43.7484C74.7643 43.8915 74.2364 43.8025 74.5321 44.5882C74.7503 45.1735 73.7649 45.148 73.3566 45.4439C72.9484 45.7397 71.6286 45.4184 72.2234 46.6208C72.2938 46.7703 71.8715 46.9548 71.6321 47.0344C70.9951 47.2443 70.3476 47.4352 69.6156 47.6706C70.5482 48.5549 69.7915 48.7903 68.9997 49.0066C68.5281 49.1306 68.0565 49.2738 67.5709 49.3692C67.1767 49.4456 66.8424 49.4806 67.3069 49.9068C67.6589 50.2249 67.3386 50.3808 67.0535 50.4953C66.2199 50.837 65.3152 51.0137 64.3999 51.0138C64.6533 52.0731 64.4633 52.3117 63.309 52.4421C62.4714 52.5407 61.6478 52.3912 61.0566 53.3232C60.7363 53.8322 59.6172 53.8131 58.8323 53.9181C58.3326 53.9849 58.0053 54.0962 58.2798 54.6274C58.1637 54.6974 58.0194 54.7515 58.1074 54.9074C58.1164 54.9348 58.1343 54.9591 58.1587 54.9773C58.1832 54.9954 58.2131 55.0065 58.2446 55.0092C58.3137 55.0003 58.3772 54.9699 58.4241 54.9233C58.5936 54.8803 58.7689 54.8589 58.945 54.8596C59.5433 54.8596 60.1486 55.0728 60.7469 55.0728C61.0642 55.0787 61.3768 55.0026 61.6478 54.8533C61.7944 55.01 61.9807 55.1323 62.1909 55.2099C62.4011 55.2874 62.6289 55.3179 62.855 55.2986C63.1259 55.2986 63.404 55.2732 63.6785 55.2732C63.9348 55.2661 64.1903 55.3028 64.4316 55.3813C65.0911 55.6066 65.789 55.726 66.4939 55.7344C66.712 55.7347 66.9298 55.7188 67.145 55.6867C67.2474 55.6716 67.351 55.6642 67.4547 55.6644C68.2571 55.6644 68.9504 56.1098 69.6472 56.3006C70.4602 56.5169 71.4069 56.7078 72.2269 56.9941C73.7543 57.5094 75.2149 58.2824 76.8549 58.5432C72.5226 59.1349 60.0184 59.7775 45.2654 55.2064L85.6215 32.1822ZM44.7304 2.45892C44.9303 2.82079 45.0635 3.20976 45.1246 3.61044C45.297 4.61882 45.9094 5.51905 45.8707 6.56878C45.8643 6.7058 45.9085 6.84084 45.9965 6.95259C46.0844 7.06434 46.211 7.14643 46.3563 7.18589C46.4955 7.24574 46.6121 7.3413 46.6916 7.46067C46.7711 7.58003 46.81 7.7179 46.8033 7.85709C46.842 8.44239 46.564 9.06587 47.6444 9.31399C48.0421 9.40306 47.7676 10.3924 47.8063 10.9681C47.838 11.4007 47.5705 11.951 48.4151 11.951H48.489C48.841 11.951 48.841 12.2691 48.841 12.5045C48.841 13.058 48.8093 13.6052 48.7741 14.1523C48.7741 14.5054 48.4926 14.9984 48.9958 14.9984C49.1465 14.9912 49.2955 14.9666 49.4393 14.9253C49.4821 14.911 49.5274 14.9035 49.573 14.903C49.8581 14.903 49.8581 15.2529 49.8792 15.4788C49.9096 16.1695 49.8169 16.8601 49.6047 17.5242C49.5202 17.8423 49.4815 18.119 49.8229 18.119C49.9224 18.1173 50.021 18.1011 50.115 18.0713C50.2066 18.0474 50.3012 18.0335 50.3965 18.0299C50.7872 18.0299 50.8189 18.3703 50.8013 18.7075C50.7589 19.3261 50.6215 19.9363 50.393 20.5207C50.298 20.772 50.0728 21.176 50.5795 21.176H50.664H50.8083C51.5122 21.176 51.4031 21.5959 51.3256 22.0253C51.243 22.5707 51.1255 23.1113 50.9737 23.6444C50.84 24.0484 50.4176 24.4874 51.0441 24.4874C51.1883 24.4833 51.3319 24.4684 51.4735 24.4429H51.5614C51.9134 24.4429 51.8817 24.8882 51.8535 25.1618C51.7482 25.8432 51.5386 26.508 51.2306 27.1372C51.1039 27.4298 50.9737 27.7956 51.4207 27.7956C51.488 27.7948 51.5552 27.7884 51.6212 27.7766C51.7128 27.7598 51.8059 27.7512 51.8993 27.7511C52.4624 27.7511 52.392 28.171 52.3216 28.5718C52.1646 29.542 51.7871 30.4723 51.213 31.3043C51.2488 31.3462 51.2939 31.3809 51.3454 31.4061C51.3969 31.4313 51.4538 31.4465 51.5122 31.4506C51.6635 31.4506 51.7761 31.3456 51.8993 31.3043C52.0363 31.2488 52.1826 31.2144 52.3322 31.2025C52.5504 31.2025 52.6102 31.3584 52.5187 31.7846C52.313 32.875 51.8138 33.903 51.0652 34.7779C52.6243 35.0356 52.6348 35.0961 52.1668 36.3939C51.8747 37.2241 51.2869 37.8826 50.7203 38.7288C50.8094 38.7228 50.8988 38.7228 50.9878 38.7288C51.8782 38.7288 51.6635 39.2727 51.5016 39.8198C51.1657 40.7767 50.6541 41.6757 49.9883 42.4792C51.1884 42.581 51.3679 42.7973 50.9033 43.688C50.4775 44.4991 50.2593 45.4407 49.3266 45.991C49.1331 46.1119 48.7213 46.4395 49.2457 46.6017C50.1185 46.8785 49.6891 47.327 49.5237 47.7437C49.1718 48.6471 48.4327 49.3342 47.7641 50.0881C47.8654 50.132 47.9756 50.1569 48.0879 50.1613C48.3483 50.1613 48.4644 49.98 48.5805 49.805C48.6967 49.6301 48.8832 49.242 49.0275 49.242H49.0768C50.5936 49.242 50.2382 47.8614 50.8857 47.2348C51.206 46.9167 51.3292 46.3345 51.8183 46.3345C52.021 46.3472 52.2152 46.4123 52.3779 46.5222C52.4232 46.5516 52.477 46.5682 52.5327 46.5699C52.7052 46.5699 52.7756 46.3536 52.8108 46.2041C52.9656 45.6506 53.4232 45.2498 53.7012 44.7822C53.8138 44.585 54.0531 44.2637 54.2044 44.2637C54.3204 44.2839 54.4382 44.2945 54.5564 44.2955C55.6122 44.2955 55.5242 43.2362 56.0169 42.7273C56.3688 42.3774 56.594 41.932 57.1114 41.932C57.2544 41.9352 57.3954 41.9633 57.5267 42.0147C57.5922 42.0408 57.6628 42.0548 57.7343 42.0561C57.956 42.0561 58.0863 41.897 58.22 41.6776C58.4446 41.207 58.7839 40.7884 59.2125 40.4529C59.399 40.3161 59.5644 40.0521 59.7685 40.0521C59.8882 40.0521 60.0184 40.157 60.1662 40.4592C60.2331 40.5928 60.314 40.6469 60.402 40.6469C60.5604 40.6469 60.7293 40.4783 60.8243 40.3065C61.0409 39.8284 61.3841 39.4057 61.8238 39.0755C62.0666 38.9133 62.2813 38.5411 62.5276 38.5411C62.6719 38.5411 62.8338 38.662 63.0204 39.0087C63.0767 39.1137 63.1435 39.1518 63.2104 39.1518C63.3547 39.1518 63.5131 38.9642 63.6327 38.8337C63.9846 38.4425 64.3366 38.0385 64.7343 37.6663C64.884 37.5307 65.0674 37.4293 65.2692 37.3705C65.4456 37.549 65.6887 37.6623 65.9519 37.6886C66.4411 37.6886 66.6277 36.9887 67.0077 36.7343C67.3878 36.4798 67.5744 36.2221 67.9404 36.2221C68.1292 36.2307 68.3107 36.2906 68.4612 36.3939C68.5225 36.4354 68.596 36.4598 68.6724 36.4639C68.9399 36.4639 69.1158 36.1235 69.3551 35.9836C69.7388 35.7577 69.9605 34.9784 70.4637 34.9784C70.6679 34.9784 70.9283 35.112 71.2591 35.4746C71.2728 35.4919 71.2907 35.5061 71.3114 35.516C71.3322 35.5259 71.3553 35.5314 71.3788 35.5318C71.597 35.5318 71.875 35.0992 72.1389 34.9656C72.5542 34.7557 72.8428 34.1704 73.3214 34.1704C73.6091 34.1988 73.8731 34.3278 74.057 34.5298C74.0778 34.5497 74.1029 34.5656 74.1307 34.5766C74.1585 34.5875 74.1886 34.5932 74.2189 34.5934C74.511 34.5934 74.8875 34.0749 75.2359 33.8904C75.5843 33.7059 75.8378 33.4101 76.1791 33.4101C76.2964 33.4195 76.4102 33.451 76.5132 33.5025C76.6163 33.554 76.7062 33.6244 76.7774 33.7091C76.8025 33.7375 76.834 33.7607 76.8698 33.7772C76.9056 33.7936 76.9449 33.803 76.9851 33.8046C77.2103 33.8046 77.4074 33.4865 77.6326 33.4006C78.0268 33.2542 78.3576 32.8184 78.7764 32.8184C78.8936 32.827 79.0076 32.8575 79.1112 32.9078C79.2148 32.9582 79.3057 33.0274 79.3782 33.1111C79.3927 33.1261 79.4105 33.138 79.4306 33.1463C79.4506 33.1545 79.4724 33.1588 79.4944 33.1588C79.5929 33.1588 79.6914 33.0857 79.7935 33.057C81.4875 32.5862 83.1838 32.1197 84.8824 31.6574L44.6354 54.6688C44.6354 54.6147 44.6354 54.5861 44.6354 54.5861L44.7304 2.45892ZM44.1814 56.2179C45.1844 58.8613 48.5841 64.4058 60.0465 70.0394L60.1028 70.1157C58.5614 69.7277 57.2874 69.4795 56.0732 69.0915C53.5753 68.3308 51.2503 67.168 49.2105 65.6592C47.919 64.6291 46.7555 63.475 45.7405 62.2173C45.5328 61.9724 45.3392 61.7115 45.1105 61.4825C45.0158 61.3974 44.8915 61.3445 44.7586 61.333C44.5791 61.3521 44.558 61.5238 44.5685 61.6511C44.7023 63.9859 44.5685 66.3304 44.9416 68.6493C45.0155 69.1328 45.1105 69.6036 45.202 70.0903C44.7339 70.0903 44.2659 70.0903 43.7943 70.1094C43.6922 69.3618 43.6077 68.6143 43.562 67.854C43.4529 66.0695 43.2382 64.2818 43.3156 62.4909C43.3156 62.3286 43.3755 62.1314 43.1608 62.0424C43.122 62.0227 43.0785 62.0118 43.0341 62.0105C42.8898 62.0105 42.8335 62.1569 42.742 62.2587C39.4057 66.289 34.8446 68.5189 29.5199 69.6354L28.8653 69.7722C39.8808 64.2436 43.1924 58.8327 44.1814 56.2179ZM59.3814 71.9035V71.9512V71.9353L59.3286 71.8844L59.3814 71.9035ZM5.79608 32.9648C6.72166 33.1843 7.62263 33.5278 8.5834 33.5278C8.83315 33.5282 9.08218 33.5036 9.32598 33.4546C9.36097 33.4498 9.39654 33.4498 9.43153 33.4546C9.66079 33.485 9.87634 33.572 10.0545 33.7059C10.4486 33.935 10.7794 34.2499 11.2369 34.2499C11.4899 34.2413 11.7345 34.1662 11.9408 34.0336C11.9949 33.9978 12.0603 33.9788 12.1273 33.9795C12.5215 33.9795 13.0283 34.5203 13.4401 34.797C13.6407 34.937 13.8096 35.1151 13.9856 35.1151C14.1615 35.1151 14.2354 35.0292 14.3833 34.797C14.4058 34.7466 14.4441 34.7032 14.4934 34.6721C14.5428 34.6411 14.6011 34.6237 14.6612 34.6221C14.8502 34.651 15.0261 34.7283 15.1681 34.8447C15.5869 35.1374 15.9916 35.4491 16.4104 35.745C16.5336 35.8372 16.7165 36.0185 16.8608 36.0185C16.8832 36.0176 16.9051 36.0119 16.9246 36.0019C16.9442 35.992 16.9609 35.9781 16.9735 35.9613C17.2761 35.5668 17.5119 35.4269 17.7055 35.4269C18.1524 35.4269 18.4094 36.1553 18.7824 36.3462C19.0428 36.4734 19.2012 36.941 19.4863 36.941C19.6165 36.941 19.7748 36.8424 19.9825 36.572C20.0029 36.5412 20.0318 36.5157 20.0663 36.4979C20.1008 36.4801 20.1398 36.4706 20.1796 36.4702C20.3714 36.505 20.5449 36.5969 20.6723 36.7311C21.0489 37.0492 21.3762 37.4277 21.7703 37.7681C21.9182 37.9059 22.0863 38.0247 22.27 38.1212C22.4795 37.9119 22.7659 37.7785 23.076 37.7458C23.6883 37.7458 23.9206 38.5952 24.3852 38.8814C24.6069 39.0246 24.7653 39.4445 24.9694 39.4445C25.082 39.4445 25.2087 39.3141 25.3635 38.9323C25.3773 38.8898 25.4061 38.8525 25.4455 38.8261C25.4848 38.7997 25.5327 38.7856 25.5817 38.786C25.7575 38.8055 25.9197 38.8811 26.0393 38.9991C26.3653 39.3776 26.7306 39.727 27.1302 40.0425C27.359 40.1793 27.4575 40.8219 27.7813 40.8219C27.9186 40.8219 28.0945 40.7073 28.3374 40.3892C28.3511 40.3684 28.3707 40.3512 28.3942 40.3395C28.4177 40.3277 28.4442 40.3219 28.4711 40.3224C28.6489 40.3561 28.8068 40.4479 28.9145 40.5801C29.2803 40.9282 29.6079 41.3075 29.8929 41.7125C30.1146 42.0561 30.2237 42.5491 30.5405 42.5491C30.6953 42.5491 30.8924 42.4314 31.188 42.1229C31.2021 42.1064 31.2202 42.0932 31.241 42.0843C31.2618 42.0755 31.2847 42.0712 31.3077 42.072C31.4555 42.072 31.6385 42.2279 31.7652 42.336C32.2526 42.7759 32.6378 43.2994 32.8984 43.8756C33.0146 44.1333 33.0779 44.4482 33.3348 44.4482C33.4977 44.4305 33.6503 44.3671 33.7712 44.2669C33.8131 44.2334 33.8667 44.2143 33.9226 44.2128C34.1126 44.2128 34.2499 44.4737 34.3871 44.6009C34.8821 45.0756 35.2652 45.6361 35.5133 46.2487C35.5837 46.4077 35.6681 46.6845 35.823 46.6845C35.8534 46.6845 35.8831 46.6755 35.9074 46.659C36.1254 46.5234 36.3792 46.4422 36.643 46.4236C37.3152 46.4236 37.368 47.3079 37.734 47.696C37.9331 47.9904 38.0759 48.313 38.1563 48.6503C38.2302 48.8253 38.2971 49.1306 38.4695 49.1306H38.5082C38.6126 49.1044 38.7202 49.0905 38.8285 49.0893C39.4444 49.0893 39.6661 49.6237 40.0321 49.9641C40.1472 50.1029 40.3153 50.1981 40.5037 50.2313C40.581 50.2302 40.6551 50.2029 40.7113 50.1549C41.0386 49.9036 40.648 49.77 40.5037 49.5919C40.0638 49.0034 39.367 48.5803 39.1804 47.8296C39.0678 47.3747 38.6173 46.9135 39.4549 46.5413C39.8913 46.3504 39.4549 46.0355 39.2332 45.816C38.4813 45.0849 37.9451 44.1944 37.6741 43.2267C37.5862 42.9086 37.4947 42.5555 37.9768 42.5555H38.1282H38.3147C38.7335 42.5555 38.7088 42.3328 38.4379 42.0434C37.7903 41.3404 37.551 40.4529 37.1498 39.6544C36.8964 39.1327 36.6782 38.7924 37.6038 38.7001C38.1387 38.6492 37.7586 38.2484 37.6038 38.1148C37.0644 37.5771 36.6758 36.9302 36.4706 36.2285C36.0131 35.0547 36.094 34.9561 37.5264 34.8098C37.1287 33.9986 36.5163 33.2892 36.3403 32.4176C36.2664 32.0264 35.8406 31.6128 36.1996 31.2598C36.23 31.2243 36.2689 31.1956 36.3134 31.1757C36.3579 31.1559 36.4068 31.1455 36.4565 31.1452C36.7028 31.1452 36.9633 31.3838 37.2906 31.3838C37.3489 31.384 37.407 31.3765 37.463 31.3615C37.0097 30.5623 36.6692 29.7149 36.4494 28.839C36.3579 28.3905 36.0975 27.7702 36.8295 27.7702C36.9754 27.7732 37.1205 27.7903 37.2624 27.8211C37.3128 27.8252 37.3634 27.8252 37.4137 27.8211C37.7164 27.8211 37.6601 27.5412 37.5475 27.2676C37.2905 26.6314 36.9245 26.0206 36.9034 25.3081C36.9034 24.8437 36.7943 24.3283 37.2554 24.3283C37.5143 24.3495 37.7646 24.4235 37.9874 24.5447C37.7445 23.5108 37.3926 22.6774 37.3398 21.7963C37.3117 21.44 37.2659 21.0901 37.7164 21.0901C37.7933 21.092 37.8699 21.1005 37.9451 21.1155C38.0169 21.1294 38.09 21.1369 38.1633 21.1378C38.5153 21.1378 38.473 20.9024 38.3499 20.5875C38.0824 19.9067 37.7797 19.2355 37.8114 18.4944C37.8114 18.2113 37.8396 17.9123 38.1633 17.9123C38.2337 17.915 38.3035 17.9257 38.371 17.9441C38.5032 17.9877 38.6421 18.0124 38.7827 18.0172C39.2191 18.0172 39.1347 17.6323 39.0186 17.2538C38.8589 16.7567 38.7807 16.2413 38.7863 15.7237C38.8074 15.3325 38.6983 14.8871 39.2614 14.8871C39.3477 14.8887 39.4336 14.8972 39.5183 14.9126C39.5592 14.9166 39.6005 14.9166 39.6415 14.9126C39.9934 14.9126 39.9547 14.5945 39.9054 14.3527C39.7771 13.7792 39.7451 13.1916 39.8104 12.6095C39.8526 12.3455 39.8526 11.9097 40.1623 11.9097H40.2608C41.2885 11.9097 40.9119 11.2576 40.9647 10.7295C41.0351 10.0933 40.5811 9.2122 41.8129 9.04042C41.8586 9.04042 41.929 8.93545 41.9255 8.88137C41.7742 7.23361 43.2664 6.01847 43.3614 4.42796C43.4155 3.81014 43.6007 3.2075 43.9069 2.65296L43.7837 54.5511C43.7837 54.5511 43.7837 54.5893 43.7837 54.6497L2.95948 32.1441C3.92378 32.3445 4.83882 32.7198 5.79608 32.9648ZM17.0825 56.7142C17.98 56.5042 18.9654 56.3165 19.8312 56.078C20.6969 55.8394 21.6225 55.8521 22.453 55.5372C22.5941 55.4672 22.7459 55.4168 22.9035 55.3877C22.9231 55.3828 22.9438 55.3828 22.9634 55.3877C23.2604 55.5178 23.5871 55.5832 23.9171 55.5785C24.6456 55.5785 25.3635 55.3082 25.9865 55.2064C27.3104 55.0458 28.6451 54.9682 29.9809 54.9742C30.4173 54.9742 30.3927 54.5956 30.4736 54.3698C30.5827 54.0867 30.4208 54.0517 30.2378 54.0517H30.0372H29.995C28.7949 53.9753 27.6405 53.969 26.6727 53.0369C26.2363 52.617 25.265 52.6711 24.5224 52.5057C24.2303 52.4294 23.7657 52.2894 23.9382 52.0063C24.3746 51.3096 24.1036 51.2301 23.7341 51.2301H23.4033C23.3241 51.2326 23.2449 51.2262 23.1675 51.211C22.5692 51.087 21.9815 50.9756 21.4078 50.8293C21.1615 50.7625 20.7814 50.6003 21.0277 50.3426C21.9076 49.4678 20.8166 49.7064 20.5139 49.611C19.9438 49.436 19.3138 49.4551 18.7824 49.1402C18.5607 49.0098 18.17 48.8889 18.4058 48.6344C19.1625 47.7819 18.3003 48.0205 17.8603 47.8042C17.1987 47.4861 15.8684 47.7787 16.1359 46.4236C16.1957 46.1405 15.5587 46.1659 15.3264 45.9751C14.8196 45.5775 13.3802 45.9496 13.9187 44.6168C14.0243 44.3814 13.5668 44.3369 13.3239 44.251C12.8383 44.0728 12.3385 43.9106 11.8599 43.7102C11.7085 43.6466 11.4763 43.3921 11.5079 43.3921C12.4546 42.177 10.8991 42.4792 10.5296 42.0879C10.16 41.6966 9.08664 41.808 9.82569 40.8918C10.0298 40.6405 9.59342 40.5356 9.3893 40.4052C8.73119 39.9725 7.57333 39.9248 7.89359 38.7383C7.95693 38.5093 7.54167 38.4202 7.34107 38.2739C6.84485 37.9303 5.96498 37.8158 6.3873 36.9315C6.40842 36.8774 6.29581 36.7502 6.21838 36.6866C4.81065 35.5318 3.86046 34.0272 2.54775 32.8025L43.0834 55.1873C28.3338 59.7552 15.8508 59.1126 11.515 58.5242C13.4612 58.1488 15.1786 57.1531 17.0825 56.7142ZM35.1613 62.2523C34.9347 62.3661 34.6778 62.4211 34.4188 62.4114C34.2393 62.4114 34.0669 62.3954 33.912 62.3923H33.8662C33.1624 62.3923 32.4585 62.7867 31.9412 62.7867C31.8943 62.79 31.8473 62.79 31.8004 62.7867C31.6515 62.7651 31.5008 62.7544 31.3499 62.7549C30.727 62.7549 30.1146 62.9171 29.5058 62.9171C29.1801 62.9232 28.8573 62.8612 28.5626 62.7358C28.5028 62.7135 28.4218 62.6499 28.3866 62.6499C28.1115 62.8182 27.7863 62.9069 27.454 62.9044C26.7713 62.9044 26.0991 62.5863 25.4515 62.5131C24.4274 62.4018 23.2977 62.6372 22.3299 62.0932C22.2486 62.0433 22.1536 62.0146 22.0554 62.0105H22.0096C21.8011 62.0639 21.5858 62.0928 21.3691 62.0964C20.9435 62.0875 20.5359 61.9395 20.2218 61.6797C19.8241 61.3902 18.8985 61.403 18.2263 61.3266C16.6637 61.1453 15.3335 60.4773 13.9398 59.9524C13.0631 59.6483 12.1571 59.4183 11.2334 59.2653C11.1261 59.2429 11.0229 59.2065 10.9272 59.1572C13.6476 59.5324 16.3966 59.7122 19.1484 59.6948C27.4205 59.6425 35.6259 58.3527 43.4318 55.8776C42.5167 58.3174 39.2473 63.8301 27.8165 69.4382C29.7154 66.6278 32.2118 64.1854 35.1613 62.2523ZM27.82 71.9321L28.4711 71.8017C28.4284 71.9489 28.4153 72.1019 28.4324 72.2534L28.4641 72.4888C28.2136 72.2784 27.9345 72.0978 27.6335 71.9512C27.696 71.9482 27.7583 71.9418 27.82 71.9321ZM20.1514 78.9112C19.5356 76.1469 18.9196 73.4399 23.6426 72.7051C28.3796 72.0403 28.7491 74.7855 29.1398 77.5816C29.5304 80.3777 29.8894 83.037 25.6204 83.6255C21.3726 84.2967 20.7603 81.6787 20.1514 78.9112ZM29.1785 97.8414C28.2116 97.8514 27.2587 97.6322 26.4147 97.2059C25.5706 96.7795 24.8648 96.1607 24.3676 95.4111C23.989 94.848 23.7408 94.2214 23.638 93.5691C23.5351 92.9168 23.5798 92.2524 23.7693 91.6162C24.0018 90.6889 24.4689 89.8228 25.1338 89.0861C25.7988 88.3493 26.6435 87.7617 27.6018 87.3695C28.2041 87.1412 28.8198 86.9426 29.446 86.7747H29.277C25.5149 86.7747 20.996 90.3819 22.9422 95.6433C22.3822 95.0118 21.98 94.2783 21.7633 93.493C21.3419 92.0501 21.4873 90.5199 22.1747 89.1631C22.862 87.8063 24.0487 86.707 25.5325 86.0526C26.4949 85.6227 27.5525 85.3954 28.626 85.3878C29.6173 85.3925 30.5962 85.5877 31.4977 85.9603C32.5118 86.3422 33.4083 86.9404 34.1107 87.7038C34.8131 88.4672 35.3004 89.373 35.5309 90.3438C36.365 93.5598 34.4751 96.5754 31.1388 97.5583C30.5054 97.7433 29.8441 97.8388 29.1785 97.8414ZM43.6711 112.156C44.1103 112.096 44.5537 112.065 44.9979 112.064C47.4227 112.064 49.397 113.056 50.8223 115.022C51.3354 115.712 51.6869 116.489 51.8553 117.307C52.0238 118.124 52.0056 118.964 51.8019 119.774C51.5982 120.585 51.2133 121.349 50.6709 122.02C50.1284 122.692 49.4398 123.256 48.6474 123.678C47.6754 124.198 46.5673 124.473 45.4378 124.476C44.5148 124.49 43.6023 124.297 42.7818 123.915C41.9613 123.532 41.2585 122.972 40.736 122.284C40.285 121.707 39.9815 121.046 39.8476 120.349C39.7137 119.653 39.7527 118.938 39.9617 118.257C40.6093 116.03 42.1718 114.535 44.5368 113.724C44.8606 113.613 45.1985 113.562 45.5328 113.479C44.4023 113.465 43.2866 113.712 42.2918 114.198C41.2969 114.683 40.456 115.391 39.8491 116.253C38.4942 118.069 38.3323 120.07 39.0678 122.138C38.4731 121.471 38.0683 120.682 37.8888 119.841C37.5093 118.304 37.7818 116.695 38.6525 115.331C39.1524 114.481 39.8677 113.75 40.7399 113.197C41.6121 112.645 42.6165 112.287 43.6711 112.153V112.156ZM39.2191 110.884C38.5987 111.067 37.9504 111.161 37.2976 111.163C36.3654 111.174 35.4454 110.972 34.6224 110.576C33.7994 110.18 33.1 109.603 32.5887 108.899C31.452 107.308 31.4238 105.6 32.2368 103.889C32.6275 103.069 33.2058 102.333 33.9337 101.73C34.6616 101.127 35.5226 100.67 36.46 100.389C36.6324 100.343 36.8074 100.304 36.9844 100.275C37.1357 100.234 37.2906 100.183 37.4419 100.135H37.2554C33.3102 100.135 29.1011 104.006 30.9206 108.873C30.6695 108.517 30.4404 108.148 30.2343 107.769C28.8265 104.7 29.8824 101.484 32.9864 99.6832C34.0634 99.0553 35.3191 98.7237 36.6008 98.7289C36.9756 98.7288 37.3497 98.7553 37.7199 98.8084C38.8944 98.9375 40.0121 99.3389 40.9642 99.9738C41.9164 100.609 42.6707 101.455 43.1538 102.432C43.5852 103.211 43.825 104.066 43.8567 104.937C43.8885 105.808 43.7114 106.675 43.3376 107.478C42.9639 108.282 42.4024 109.003 41.6915 109.591C40.9806 110.18 40.1372 110.623 39.2191 110.89V110.884ZM44.7198 101.748C44.1135 100.545 43.178 99.5026 42.0019 98.7178C40.8258 97.933 39.4477 97.4321 37.9979 97.2625C37.5423 97.2019 37.0824 97.1711 36.6219 97.1702C36.0175 97.1752 35.4156 97.2402 34.827 97.3643C35.6353 96.6905 36.2842 95.8756 36.7345 94.969C37.0082 95.5238 37.3506 96.0488 37.7551 96.534C37.9148 96.7257 38.1216 96.8812 38.3592 96.9883C38.5968 97.0954 38.8586 97.1511 39.1241 97.1511C39.3335 97.1519 39.5411 97.1174 39.7365 97.0493C40.4376 97.7962 41.3124 98.3941 42.2985 98.8004C43.2846 99.2067 44.3577 99.4115 45.4413 99.4001C45.9638 99.3988 46.4848 99.3509 46.9968 99.257C46.0618 100.014 45.3229 100.948 44.8325 101.993C44.7938 101.916 44.7621 101.834 44.7198 101.748ZM52.846 98.7225C53.2088 98.7222 53.5712 98.7466 53.9299 98.7957C55.0723 98.919 56.1617 99.3008 57.0973 99.9058C58.033 100.511 58.7847 101.319 59.2828 102.257C59.7185 103.006 59.9765 103.83 60.0403 104.675C60.1041 105.519 59.9724 106.367 59.6535 107.163C59.3345 107.959 58.8355 108.687 58.1881 109.299C57.5408 109.911 56.7593 110.394 55.8937 110.718C55.1465 110.995 54.3468 111.137 53.5393 111.138C52.6563 111.152 51.782 110.977 50.9872 110.629C50.1925 110.281 49.4995 109.769 48.9642 109.134C47.7007 107.563 47.5881 105.842 48.3623 104.073C48.7308 103.213 49.3049 102.438 50.0435 101.802C50.7821 101.167 51.6669 100.686 52.6348 100.396C52.9867 100.281 53.3387 100.221 53.7117 100.132C51.2482 100.186 49.3126 101.086 47.9471 102.937C46.5816 104.789 46.4337 106.802 47.215 108.895C46.2204 107.74 45.7285 106.295 45.832 104.833C45.8715 103.873 46.1548 102.934 46.6601 102.088C47.1654 101.242 47.8791 100.513 48.746 99.9568C49.9292 99.1564 51.3681 98.7255 52.846 98.7289V98.7225ZM47.8028 97.4374C47.0568 97.7141 46.2582 97.8568 45.4519 97.8573C44.5688 97.871 43.6946 97.6967 42.8998 97.3486C42.1051 97.0004 41.412 96.4882 40.8767 95.8533C39.6098 94.2819 39.5007 92.5578 40.2714 90.7923C40.6403 89.933 41.2145 89.1578 41.9531 88.5222C42.6916 87.8865 43.5762 87.4061 44.5439 87.1151C44.8958 86.9974 45.2477 86.9369 45.5997 86.851C43.1361 86.9019 41.2005 87.8053 39.8385 89.6567C38.4766 91.508 38.3252 93.5184 39.1065 95.6115C38.1136 94.4547 37.6207 93.0107 37.7199 91.5494C37.7601 90.5897 38.0441 89.6512 38.5501 88.8067C39.056 87.9621 39.7702 87.2342 40.6374 86.6793C41.8135 85.8745 43.2482 85.4389 44.7234 85.4387C45.0862 85.4397 45.4484 85.4641 45.8073 85.5118C46.9513 85.6341 48.0426 86.0159 48.9796 86.6215C49.9167 87.2271 50.6693 88.037 51.1673 88.9759C51.6036 89.7242 51.8628 90.5464 51.9283 91.3901C51.9938 92.2339 51.8641 93.0807 51.5476 93.8767C51.2311 94.6727 50.7347 95.4004 50.09 96.0134C49.4452 96.6265 48.6663 97.1114 47.8028 97.4374ZM52.7298 88.2666C52.1053 87.1099 51.1717 86.1122 50.0134 85.3635C48.8551 84.6149 47.5088 84.1389 46.0959 83.9786C45.6553 83.9218 45.2107 83.8931 44.7656 83.8927C42.9275 83.8918 41.139 84.431 39.6696 85.4291C38.391 86.259 37.3871 87.3886 36.7662 88.696C35.9166 86.8292 34.2901 85.3385 32.2368 84.5448C31.1419 84.0948 29.9554 83.8554 28.7527 83.8418C29.1758 83.5708 29.5408 83.2323 29.8296 82.843V82.9002C29.869 83.1893 30.0237 83.4554 30.2648 83.6486C30.5058 83.8419 30.8166 83.949 31.1388 83.9499C31.1892 83.953 31.2397 83.953 31.2901 83.9499C32.096 83.8641 32.8984 83.7845 33.7043 83.7146C33.8766 83.7005 34.0441 83.6556 34.197 83.5824C34.3499 83.5092 34.4851 83.4092 34.5947 83.2883C34.8167 83.0444 34.923 82.7311 34.8904 82.4167L34.7003 80.664C35.0875 81.3701 35.4675 82.0795 35.8406 82.7857C35.9513 83.0037 36.1337 83.1855 36.363 83.3062C36.5923 83.4269 36.8573 83.4806 37.1216 83.4601C38.2584 83.3901 39.3986 83.3328 40.5389 83.2947C40.7775 83.2825 41.0082 83.2133 41.2076 83.0943C41.3954 83.1921 41.6068 83.2467 41.8234 83.2533H41.8622C44.1708 83.1939 46.476 83.1939 48.7776 83.2533C48.9249 83.2592 49.0721 83.2387 49.2105 83.1929C49.347 83.2438 49.4923 83.2729 49.6399 83.2788C51.1532 83.3265 52.6982 83.4028 54.2432 83.5078C54.4543 83.5078 54.7183 83.5301 55.0104 83.5301C56.7278 83.5301 58.0546 83.0306 58.8816 82.1113C59.3316 82.884 60.0364 83.511 60.8982 83.9054C59.0856 83.9193 57.3251 84.4552 55.8726 85.4355C54.5844 86.2743 53.5753 87.4163 52.9551 88.7374C52.8636 88.5751 52.7932 88.4193 52.7052 88.2666H52.7298ZM67.4195 88.9759C67.8552 89.7256 68.1131 90.5491 68.177 91.3939C68.2408 92.2387 68.109 93.0863 67.7901 93.8825C67.4712 94.6787 66.9721 95.406 66.3248 96.0181C65.6774 96.6302 64.896 97.1136 64.0304 97.4374C63.2844 97.7141 62.4859 97.8568 61.6795 97.8573C60.7965 97.871 59.9222 97.6967 59.1274 97.3486C58.3327 97.0004 57.6397 96.4882 57.1044 95.8533C55.8445 94.2819 55.7318 92.5578 56.5026 90.7923C56.8696 89.9346 57.4411 89.1605 58.1765 88.525C58.9119 87.8895 59.7931 87.4081 60.7575 87.1151C61.1094 86.9974 61.4613 86.9369 61.8133 86.851C59.3673 86.9019 57.4105 87.8053 56.0521 89.6567C54.6936 91.508 54.5353 93.5184 55.3201 95.6115C54.3257 94.4554 53.8326 93.0109 53.9335 91.5494C53.973 90.5899 54.2564 89.6515 54.7617 88.807C55.267 87.9624 55.9807 87.2344 56.8474 86.6793C58.0261 85.8742 59.4631 85.4387 60.9404 85.4387C61.3032 85.4398 61.6655 85.4642 62.0244 85.5118C63.1705 85.632 64.2642 86.0128 65.2033 86.6186C66.1425 87.2244 66.8965 88.0354 67.3949 88.9759H67.4195ZM68.4401 80.8294C68.0882 82.4199 66.7121 83.8641 63.5623 83.4251C60.7152 83.0434 59.487 81.6533 59.7368 79.6429C60.0606 77.1235 60.382 74.6052 60.7011 72.088C61.6549 72.1898 62.6121 72.2947 63.5659 72.4061C63.1905 74.8682 62.8162 77.3292 62.4432 79.7892C62.2496 81.1029 62.8339 81.6978 63.7911 81.825C64.9419 81.9841 65.5824 81.4179 65.7971 80.2345C66.2476 77.783 66.6957 75.3305 67.1415 72.8769C68.0917 73.02 69.0384 73.1727 69.9886 73.3317C69.4561 75.8405 68.9316 78.3397 68.4155 80.8294H68.4401ZM77.527 82.8811C76.7281 85.5595 74.3174 85.3273 72.3677 84.9297C69.2003 84.2935 68.9258 82.6139 69.4502 80.7944C70.3406 80.9534 71.2098 81.1125 72.1143 81.2906C71.875 82.2926 71.7272 83.1388 73.1701 83.4346C73.3428 83.4889 73.5268 83.5078 73.7086 83.49C73.8905 83.4722 74.0657 83.4182 74.2215 83.3317C74.3774 83.2453 74.5102 83.1286 74.6101 82.9902C74.7101 82.8518 74.7748 82.695 74.7995 82.5312C75.3239 80.6226 69.9499 79.4425 70.601 76.3346C70.9529 74.6964 72.2656 73.529 75.7181 74.2415C78.4772 74.8332 79.5507 76.1215 78.7306 78.24C77.8403 78.0269 76.9464 77.8201 76.056 77.6293C76.2601 76.8499 76.3129 76.0165 75.1832 75.7811C74.2752 75.5871 73.6488 75.8734 73.4693 76.6018C72.966 78.574 78.4878 79.5983 77.5024 82.8811H77.527ZM85.7341 88.2252C84.8965 87.958 84.0577 87.7004 83.2178 87.4522L84.8543 82.9098C83.8478 82.6107 82.8377 82.3245 81.8242 82.0509C81.3221 83.5799 80.8176 85.1078 80.3108 86.6347C79.4638 86.4014 78.6145 86.1809 77.7628 85.9731C78.8163 82.5249 79.8721 79.0788 80.9302 75.6348C81.8687 75.866 82.8072 76.1088 83.7457 76.3632C83.2882 77.7311 82.8342 79.101 82.3837 80.4731C83.4114 80.753 84.4355 81.0425 85.4561 81.3415C85.9453 79.98 86.4415 78.6218 86.9272 77.2603C87.8539 77.5339 88.776 77.817 89.6934 78.1096L85.7341 88.2252Z" fill="#EC008C"/>
<path d="M26.3701 77.9282C25.9196 75.2148 25.522 74.06 23.9312 74.2891C22.3405 74.5181 22.3686 75.7396 22.9036 78.4244C23.4385 81.1092 23.8608 82.2639 25.3355 82.038C26.8101 81.8122 26.8171 80.6416 26.3701 77.9282ZM25.2791 80.8451C25.2283 80.8632 25.1751 80.875 25.1208 80.8801C25.075 80.8801 25.0328 80.8801 25.0258 80.9183C24.6738 80.6384 24.3219 78.8284 24.1987 78.2335C23.8855 76.643 23.8081 75.7269 23.9348 75.5169C23.9984 75.488 24.0678 75.4707 24.1389 75.4661C24.1927 75.4617 24.2469 75.4617 24.3007 75.4661H24.3219C24.5542 75.6474 24.804 76.5444 25.068 78.1317C25.163 78.7011 25.4657 80.5239 25.2791 80.8451Z" fill="#EC008C"/>
<path d="M92.8505 77.0154H92.2275V76.8118H93.7444V77.0154H93.1179V78.6631H92.8505V77.0154Z" fill="#EC008C"/>
<path d="M95.6905 77.8488C95.6905 77.5911 95.6553 77.2794 95.6589 77.0503C95.5885 77.2667 95.504 77.4989 95.3984 77.7533L95.0465 78.6504H94.8459L94.494 77.7692C94.399 77.5084 94.318 77.2698 94.2582 77.0503C94.2582 77.2794 94.2371 77.5911 94.2195 77.8679L94.1667 78.6631H93.9062L94.047 76.8118H94.399L94.7509 77.7056C94.8354 77.9347 94.9057 78.1382 94.955 78.3418C95.0078 78.1573 95.0782 77.9537 95.1697 77.7056L95.5216 76.8118H95.8735L96.0002 78.6631H95.7433L95.6905 77.8488Z" fill="#EC008C"/>
</svg>
