<svg width="65" height="65" viewBox="0 0 65 65" fill="none" xmlns="http://www.w3.org/2000/svg">
<ellipse cx="32.3836" cy="32.1918" rx="32.1541" ry="32.1918" fill="white"/>
<path d="M33.4466 48.6853H28.2055C27.3301 48.6853 26.618 47.9909 26.618 47.1372V35.6098H23.5602C22.6848 35.6098 21.9727 34.9151 21.9727 34.0617V29.1222C21.9727 28.2685 22.6848 27.5741 23.5602 27.5741H26.618V25.1006C26.618 22.6479 27.4077 20.5613 28.9016 19.0666C30.4023 17.565 32.4995 16.7715 34.9664 16.7715L38.9635 16.7778C39.8375 16.7793 40.5483 17.4737 40.5483 18.3259V22.9121C40.5483 23.7658 39.8365 24.4602 38.9613 24.4602L36.2701 24.4612C35.4494 24.4612 35.2404 24.6216 35.1957 24.6708C35.122 24.7524 35.0344 24.983 35.0344 25.6197V27.5739H38.759C39.0394 27.5739 39.3111 27.6413 39.5446 27.7684C40.0482 28.0428 40.3613 28.5617 40.3613 29.1224L40.3593 34.062C40.3593 34.9151 39.6472 35.6095 38.7718 35.6095H35.0344V47.1372C35.0344 47.9909 34.322 48.6853 33.4466 48.6853ZM28.5366 46.8144H33.1155V34.7722C33.1155 34.2022 33.5911 33.7386 34.1754 33.7386H38.4407L38.4424 29.445H34.1752C33.5909 29.445 33.1155 28.9814 33.1155 28.4114V25.6197C33.1155 24.8887 33.1916 24.0575 33.7574 23.4327C34.4411 22.6774 35.5185 22.5902 36.2696 22.5902L38.6297 22.5893V18.6483L34.9649 18.6424C31.0003 18.6424 28.5366 21.1172 28.5366 25.1006V28.4114C28.5366 28.9812 28.0612 29.445 27.4769 29.445H23.8913V33.7386H27.4769C28.0612 33.7386 28.5366 34.2022 28.5366 34.7722V46.8144ZM38.9598 18.6487H38.96H38.9598Z" fill="#005A2F"/>
</svg>
