<svg width="20" height="33" viewBox="0 0 20 33" fill="none" xmlns="http://www.w3.org/2000/svg">
<path d="M12.4466 32.6853H7.2055C6.33008 32.6853 5.61795 31.9909 5.61795 31.1372V19.6098H2.56021C1.68478 19.6098 0.972656 18.9151 0.972656 18.0617V13.1222C0.972656 12.2685 1.68478 11.5741 2.56021 11.5741H5.61795V9.10055C5.61795 6.64795 6.40773 4.5613 7.90165 3.06656C9.4023 1.565 11.4995 0.771484 13.9664 0.771484L17.9635 0.777815C18.8375 0.779276 19.5483 1.47369 19.5483 2.32588V6.91213C19.5483 7.76578 18.8365 8.46019 17.9613 8.46019L15.2701 8.46117C14.4494 8.46117 14.2404 8.62162 14.1957 8.67081C14.122 8.75237 14.0344 8.98295 14.0344 9.61966V11.5739H17.759C18.0394 11.5739 18.3111 11.6413 18.5446 11.7684C19.0482 12.0428 19.3613 12.5617 19.3613 13.1224L19.3593 18.062C19.3593 18.9151 18.6472 19.6095 17.7718 19.6095H14.0344V31.1372C14.0344 31.9909 13.322 32.6853 12.4466 32.6853ZM7.53659 30.8144H12.1155V18.7722C12.1155 18.2022 12.5911 17.7386 13.1754 17.7386H17.4407L17.4424 13.445H13.1752C12.5909 13.445 12.1155 12.9814 12.1155 12.4114V9.61966C12.1155 8.88872 12.1916 8.05747 12.7574 7.4327C13.4411 6.67741 14.5185 6.59024 15.2696 6.59024L17.6297 6.58927V2.64825L13.9649 2.64241C10.0003 2.64241 7.53659 5.11717 7.53659 9.10055V12.4114C7.53659 12.9812 7.06118 13.445 6.4769 13.445H2.8913V17.7386H6.4769C7.06118 17.7386 7.53659 18.2022 7.53659 18.7722V30.8144ZM17.9598 2.64874H17.96H17.9598Z" fill="#005A2F"/>
</svg>
