<svg width="45" height="61" viewBox="0 0 45 61" fill="none" xmlns="http://www.w3.org/2000/svg">
<path d="M43.9699 37.564C43.8961 37.4266 43.7649 37.3213 43.6053 37.2714C43.1555 37.1281 42.7057 36.9895 42.2525 36.8556C42.0918 36.8089 41.9173 36.8216 41.7669 36.8908C41.6166 36.9601 41.5026 37.0803 41.45 37.2252L40.9388 38.6558L40.6492 38.5757L41.128 37.1328C41.1756 36.9863 41.1572 36.8288 41.0767 36.6946C40.9963 36.5605 40.8603 36.4605 40.6986 36.4167C40.2454 36.2934 39.7888 36.1749 39.3356 36.0609C39.1899 36.0226 39.0337 36.0345 38.8971 36.0942C38.7605 36.1539 38.6533 36.2573 38.5961 36.3843C38.2707 35.9115 37.6658 35.5758 36.785 35.3879C35.8308 35.1893 35.0658 35.2555 34.5104 35.5419C34.5189 35.4039 34.4719 35.2678 34.3779 35.1588C34.2839 35.0498 34.1494 34.9753 33.9992 34.949C33.5358 34.8689 33.0718 34.7945 32.6073 34.7257C32.4405 34.7013 32.2699 34.7377 32.1328 34.8269C31.9957 34.9161 31.9035 35.0509 31.8763 35.2016L31.2254 38.7605C31.1829 38.9946 31.113 39.0501 31.113 39.0501C31.0684 39.0556 31.0231 39.0556 30.9784 39.0501C30.9438 39.0468 30.9102 39.0374 30.8796 39.0224C30.8796 39.0224 30.8268 38.95 30.8609 38.7143L31.4061 35.14C31.4278 34.9883 31.3825 34.835 31.28 34.7134C31.2302 34.6528 31.1674 34.6017 31.0954 34.5634C31.0234 34.525 30.9437 34.5001 30.8609 34.4901C30.5712 34.4547 30.2833 34.4239 29.9953 34.3915C30.0899 34.2361 30.1329 34.0593 30.1193 33.8824C30.1057 33.7054 30.0361 33.5357 29.9186 33.3936C29.6614 33.0856 29.4296 32.7684 29.2047 32.4619C28.9382 32.08 28.6499 31.7109 28.3409 31.3562H28.3648C28.5189 31.4247 28.6888 31.4595 28.8606 31.4578C29.0704 31.4568 29.2768 31.4097 29.462 31.3208C29.6044 31.3659 29.7541 31.3893 29.905 31.3901C30.1608 31.3923 30.4103 31.3187 30.6155 31.1806H30.7467C31.0989 31.1743 31.4499 31.1418 31.7962 31.0836C31.9274 31.0651 32.0586 31.0466 32.1881 31.0312C32.6357 30.9767 33.0786 30.8944 33.5137 30.7848C33.684 30.7463 33.8544 30.7109 34.0248 30.6755C34.2923 30.617 34.57 30.5584 34.8341 30.4907C35.2818 30.3665 35.7196 30.2147 36.1443 30.0364C36.6198 29.8215 37.1253 29.6661 37.6471 29.5744C37.8159 29.558 37.9794 29.5111 38.1278 29.4365C38.2761 29.3619 38.4064 29.2611 38.5109 29.1401C38.6036 29.0284 38.671 28.9012 38.7093 28.7659C38.7476 28.6306 38.7561 28.4898 38.7341 28.3516C38.6906 28.1035 38.5525 27.8769 38.3437 27.711C38.135 27.5451 37.8687 27.4503 37.5909 27.443C37.1274 27.406 36.6435 27.212 36.1324 27.0072C35.882 26.9071 35.6213 26.8039 35.3504 26.713C35.0318 26.6022 34.6927 26.5205 34.3962 26.4466C34.2702 26.4158 34.1492 26.3866 34.0333 26.3558C33.9539 26.3314 33.8759 26.3031 33.7999 26.2711C33.4533 26.1139 33.0732 26.0262 32.6856 26.0139C32.5806 26.0138 32.4757 26.0215 32.3721 26.037C32.322 26.0446 32.2713 26.0483 32.2205 26.0478C32.0608 26.0455 31.9021 26.0243 31.7485 25.9846C31.8546 25.9122 31.9477 25.8255 32.0245 25.7274C32.0814 25.6551 32.1289 25.5771 32.166 25.4949C32.4205 25.4397 32.6686 25.3629 32.9071 25.2654C33.0741 25.2095 33.2259 25.1221 33.3526 25.009C33.4792 24.8959 33.5777 24.7596 33.6414 24.6094L33.7164 24.5894C34.0572 24.4985 34.7387 24.3137 34.9091 23.6654V23.6577L35.0454 23.613C35.2322 23.5633 35.4058 23.4794 35.5553 23.3666C35.7048 23.2537 35.827 23.1143 35.9143 22.957C35.9352 22.9113 35.9529 22.8645 35.9671 22.8168C36.0063 22.7983 36.0455 22.7768 36.0881 22.7537C36.1007 22.7484 36.1138 22.7443 36.1273 22.7413C36.7662 22.5411 37.0133 22.2054 37.0916 21.9051C37.2297 21.8543 37.366 21.7973 37.504 21.7326C37.6925 21.6534 37.8564 21.5331 37.9809 21.3826C38.1055 21.2321 38.1869 21.0561 38.2179 20.8702C38.337 20.8087 38.4509 20.7392 38.5586 20.6623C38.7073 20.5784 38.8337 20.4659 38.9289 20.3328C39.024 20.1997 39.0855 20.0493 39.1089 19.8923V19.88C39.2877 19.814 39.4491 19.7148 39.5826 19.5888C39.7162 19.4628 39.8189 19.3128 39.8842 19.1485C39.9143 19.0677 39.9338 18.984 39.9421 18.899C40.2954 18.7016 40.5492 18.3871 40.6492 18.0228C40.8551 17.8332 41.0204 17.6108 41.1365 17.3667C41.1637 17.3159 41.1995 17.2466 41.22 17.2127C41.5607 16.8955 41.8742 16.5597 42.1707 16.2348L42.5319 15.8406C42.6301 15.7373 42.7015 15.6154 42.741 15.484C42.7805 15.3526 42.787 15.2148 42.76 15.0808C42.7331 14.9468 42.6734 14.82 42.5853 14.7095C42.4972 14.599 42.3829 14.5077 42.2508 14.4422L42.2269 14.4284C42.0541 14.3266 41.8521 14.2731 41.6459 14.2744C41.5952 14.2749 41.5445 14.2785 41.4943 14.2851C41.4458 14.2918 41.398 14.3016 41.3512 14.3144C40.4481 14.5608 39.5457 14.8088 38.6438 15.0582C38.4944 15.0059 38.3355 14.9793 38.1753 14.9797C37.8331 14.987 37.5043 15.1012 37.245 15.3031C37.1383 15.2774 37.0283 15.2644 36.9179 15.2646C36.575 15.2754 36.2466 15.3923 35.9876 15.5957L35.9365 15.6311L35.8649 15.6712C35.7571 15.6452 35.6459 15.6323 35.5344 15.6327C35.338 15.6373 35.1448 15.6786 34.9668 15.7538C34.7888 15.8291 34.63 15.9367 34.5002 16.07C34.3868 16.0398 34.2691 16.0247 34.1509 16.0254C33.9219 16.0322 33.6985 16.0911 33.5014 16.1966C33.3042 16.3021 33.1397 16.4508 33.023 16.629C32.9918 16.6275 32.9605 16.6275 32.9293 16.629C32.5571 16.639 32.2027 16.7747 31.9359 17.0094L31.8865 17.0495C31.8253 17.0852 31.7682 17.1265 31.7161 17.1727C31.6866 17.1711 31.6571 17.1711 31.6276 17.1727C31.1045 17.1727 30.6854 17.5531 30.6376 17.5962C30.5899 17.6393 30.5371 17.6978 30.4877 17.7502C30.4257 17.7415 30.3631 17.7369 30.3003 17.7363C30.1099 17.7416 29.9231 17.7849 29.7534 17.8632C29.5837 17.9415 29.4353 18.0528 29.3189 18.1891L29.3036 18.206C29.193 18.2838 29.0919 18.3721 29.002 18.4694H28.9577C28.7793 18.4741 28.604 18.5134 28.4438 18.5846C28.2836 18.6558 28.1422 18.7572 28.0291 18.8821H28.0189C27.8304 19.0239 27.6672 19.1912 27.535 19.378C27.3147 19.405 27.1031 19.4738 26.9143 19.58C26.7255 19.6862 26.5637 19.8272 26.4395 19.994L26.3764 20.0663C26.2524 20.1972 26.1518 20.3448 26.0783 20.5037C25.9672 20.5203 25.8597 20.5525 25.7597 20.5992C25.7353 20.4771 25.6875 20.3598 25.6182 20.2527C25.6182 20.2435 25.608 20.2358 25.6046 20.2281C25.7334 19.9962 25.8378 19.7538 25.9164 19.5042L25.93 19.455C26.0497 19.1438 26.0497 18.8052 25.93 18.494C26.0532 18.3018 26.1537 18.0984 26.2299 17.8872C26.3747 17.4822 26.5417 17.0217 26.2299 16.5567C26.202 16.5146 26.1707 16.4744 26.1362 16.4365C26.2625 16.1512 26.3589 15.8558 26.4241 15.5541C26.4736 15.3814 26.4797 15.201 26.442 15.0259C26.4043 14.8508 26.3236 14.6856 26.2061 14.5423L26.1958 14.5315C26.2532 14.3471 26.2992 14.16 26.3338 13.971C26.3713 13.76 26.4565 13.2841 26.0817 12.8853C26.0544 12.8576 26.0272 12.8329 25.9999 12.8083C26.0551 12.6292 26.0939 12.4464 26.1157 12.2616C26.1484 12.0821 26.1385 11.8985 26.0868 11.7228C26.0351 11.547 25.9428 11.3832 25.8159 11.2421L25.7767 11.2051C25.7886 11.1343 25.8023 11.0665 25.8125 11.0018C25.8227 10.9372 25.8346 10.8756 25.8448 10.8124C25.8464 10.8032 25.8464 10.7939 25.8448 10.7847C25.8937 10.6012 25.8962 10.4102 25.8522 10.2257C25.8083 10.0412 25.719 9.86807 25.591 9.71901C25.569 9.6944 25.5451 9.67125 25.5194 9.64971C25.5627 9.46878 25.5889 9.28486 25.5978 9.09993C25.6177 8.92645 25.5976 8.75113 25.539 8.58496C25.4804 8.4188 25.3844 8.26539 25.257 8.13434C25.22 8.09836 25.1795 8.06538 25.1361 8.03578C25.1672 7.83168 25.1735 7.62511 25.1548 7.41978C25.1173 6.91465 24.889 6.63591 24.6437 6.48191C24.6437 6.34023 24.6556 6.19393 24.6539 6.04455C24.6637 5.85788 24.6237 5.67182 24.5371 5.50213C24.4505 5.33243 24.3199 5.18411 24.1564 5.06972C24.2262 4.25505 23.9332 3.90701 23.6589 3.74839C23.6513 3.5771 23.6059 3.40891 23.5255 3.25368C23.445 3.09844 23.3311 2.9593 23.1903 2.8444C23.1465 2.57141 23.0723 2.30312 22.9688 2.0436C22.912 1.90274 22.8675 1.75804 22.8359 1.61085C22.7728 1.12923 22.5522 0.675584 22.2021 0.308003C22.1061 0.210951 21.9884 0.133341 21.8569 0.0802611C21.7253 0.0271813 21.5829 -0.000169769 21.4388 7.9283e-07C21.3972 0.000277975 21.3557 0.00284932 21.3144 0.00770073C21.1499 0.0258051 20.9928 0.0802274 20.857 0.166169C20.7212 0.25211 20.6109 0.366931 20.5358 0.500505C20.2461 1.01179 19.9838 1.52153 19.9548 2.1206C19.9102 2.34565 19.8238 2.56226 19.6992 2.76124C19.5147 3.08373 19.3789 3.42714 19.2954 3.78227C18.9922 4.00403 18.7451 4.38441 18.7843 5.03738C18.5424 5.19138 18.3089 5.45472 18.2459 5.96139V5.99681C18.219 6.17331 18.2105 6.3517 18.2203 6.52965C18.0641 6.63814 17.94 6.77994 17.8591 6.94237C17.7715 7.13018 17.7308 7.33315 17.7399 7.53682C17.7399 7.55376 17.7399 7.56916 17.7399 7.58456C17.7337 7.71664 17.7388 7.84897 17.7552 7.98034C17.5133 8.13434 17.2986 8.42694 17.2747 8.93207C17.2655 9.17178 17.2948 9.41143 17.3616 9.64355C17.2369 9.77417 17.1443 9.92726 17.09 10.0927C17.0356 10.2581 17.0208 10.432 17.0464 10.603C17.0593 10.8105 17.0924 11.0167 17.1452 11.219C17.019 11.358 16.9259 11.5191 16.8716 11.6921C16.8174 11.8651 16.8032 12.0464 16.83 12.2246V12.2955C16.8347 12.4794 16.8651 12.662 16.9203 12.8391C16.8817 12.8715 16.8459 12.9065 16.813 12.9438C16.4347 13.3688 16.5591 13.8678 16.6137 14.0834L16.6273 14.1435C16.6544 14.2776 16.6897 14.4102 16.7329 14.5408C16.3785 14.9058 16.324 15.3555 16.5625 15.8791L16.5745 15.9068C16.6166 16.0877 16.6794 16.2642 16.7619 16.4335C16.7313 16.4676 16.7035 16.5036 16.6784 16.5413C16.3513 17.0171 16.5472 17.5192 16.6784 17.8518C16.7545 18.0625 16.8462 18.2683 16.9527 18.4678C16.7142 18.9175 16.9237 19.3487 17.0158 19.5366L17.0328 19.572C17.0839 19.6736 17.1248 19.7707 17.1674 19.8692C17.21 19.9678 17.2594 20.091 17.319 20.2111C17.2129 20.3809 17.1605 20.5737 17.1674 20.7686C17.0197 20.6404 16.8358 20.5514 16.6358 20.5114C16.4825 20.2634 16.2896 20.0371 16.0633 19.84C15.9447 19.7228 15.8015 19.6281 15.6421 19.5612C15.4828 19.4943 15.3103 19.4567 15.1348 19.4503C15.041 19.3379 14.9456 19.2378 14.8553 19.1423L14.765 19.0469C14.6446 18.9136 14.4943 18.805 14.3239 18.7283C14.1535 18.6515 13.967 18.6084 13.7768 18.6018H13.678L13.5673 18.4817C13.4889 18.397 13.4105 18.3107 13.327 18.2337C13.0786 17.9988 12.7375 17.862 12.378 17.8534C12.3366 17.851 12.295 17.851 12.2536 17.8534C12.1288 17.6974 11.9653 17.5701 11.7763 17.4816C11.5872 17.3931 11.3778 17.3458 11.1649 17.3436C11.0999 17.3431 11.035 17.3472 10.9707 17.3559C10.8855 17.2743 10.8003 17.1911 10.71 17.1126C10.463 16.8748 10.1217 16.7352 9.76095 16.7245C9.7116 16.7215 9.66207 16.7215 9.61272 16.7245C9.49498 16.5702 9.33851 16.4433 9.15609 16.3542C8.97367 16.2651 8.7705 16.2162 8.56319 16.2117C8.42752 16.2115 8.29275 16.2318 8.16449 16.2718C8.09634 16.2209 8.02478 16.1701 7.95322 16.1178C7.71033 15.9337 7.4062 15.8285 7.0894 15.819C6.99161 15.8185 6.89417 15.8299 6.79974 15.8529C6.54116 15.6437 6.20949 15.5232 5.86265 15.5125C5.73296 15.5123 5.60407 15.531 5.481 15.568C5.4575 15.5524 5.43305 15.538 5.40775 15.5249L5.37366 15.5048C5.1367 15.3485 4.85253 15.2615 4.55926 15.2554C4.46989 15.2556 4.38079 15.2644 4.29346 15.2815C4.24605 15.292 4.19742 15.2971 4.14864 15.2969C3.90885 15.2783 3.67282 15.2312 3.44667 15.1568C3.31718 15.1198 3.18769 15.0844 3.05649 15.0536C2.88611 15.0151 2.71573 14.9566 2.52491 14.8996C2.06896 14.7311 1.58877 14.6222 1.09883 14.5762H1.02726C0.801325 14.576 0.581799 14.6441 0.40364 14.7696C0.225482 14.8952 0.098954 15.0711 0.0441822 15.2692C-0.0176065 15.4782 -0.0145387 15.6986 0.0530839 15.9061C0.120707 16.1137 0.250272 16.3004 0.427538 16.4458C0.707359 16.7057 0.96587 16.9836 1.20105 17.2774C1.45444 17.5853 1.72573 17.8809 2.01377 18.1629C2.03762 18.4955 2.22334 18.8744 2.79071 19.1808C2.86057 19.5212 3.08716 19.8692 3.61364 20.1464C3.62227 20.2034 3.63421 20.26 3.64941 20.3158C3.70689 20.4909 3.8085 20.6516 3.94627 20.7852C4.08403 20.9188 4.2542 21.0217 4.44339 21.0858C4.47984 21.1157 4.51917 21.1425 4.56094 21.1659C4.56644 21.2002 4.57441 21.2342 4.5848 21.2676C4.71109 21.5867 4.97031 21.8486 5.30721 21.9975C5.44011 22.053 5.5696 22.0992 5.69398 22.1515C5.72153 22.2461 5.76099 22.3376 5.81155 22.4241C5.92083 22.5895 6.06908 22.7312 6.24576 22.839C6.42244 22.9468 6.62322 23.0181 6.83383 23.0478C6.94628 23.3943 7.23252 23.747 7.90041 23.921C8.00578 24.1977 8.22561 24.4267 8.51378 24.5601C8.7225 24.6813 8.95319 24.7684 9.1953 24.8173C9.27129 24.9851 9.39033 25.1342 9.54259 25.2523C9.69485 25.3704 9.87599 25.4541 10.0711 25.4964H10.0949C10.2772 25.5411 10.4578 25.5796 10.6418 25.6196C10.6908 25.7255 10.7587 25.8233 10.8429 25.9092C10.7209 25.9341 10.603 25.9729 10.4919 26.0247C10.3265 26.0771 10.155 26.1123 9.98075 26.1294C9.75078 26.1594 9.52315 26.2027 9.29923 26.2587C9.05218 26.3265 8.78809 26.3866 8.49333 26.4497C8.32295 26.4836 8.1645 26.519 8.00434 26.5575C7.52625 26.679 7.05916 26.8334 6.60721 27.0195C6.17223 27.2076 5.71492 27.3502 5.24417 27.4445C4.34115 27.5631 4.1384 28.1992 4.15885 28.5564C4.15802 28.5682 4.15802 28.5801 4.15885 28.5919C4.18775 28.8337 4.30327 29.0604 4.4878 29.2375C4.67232 29.4145 4.91576 29.5323 5.18113 29.5728L5.26293 29.5898C5.6246 29.6492 5.97938 29.7389 6.32269 29.8577C6.46411 29.9116 6.60381 29.9686 6.74523 30.0241C7.34776 30.2981 7.99294 30.4877 8.6586 30.5862C8.75401 30.5985 8.85453 30.6062 8.95676 30.6123C9.03343 30.6123 9.15099 30.6277 9.22766 30.6385C9.53954 30.8508 9.91919 30.9659 10.3096 30.9666C10.3777 30.9666 10.4493 30.9666 10.5192 30.9573C10.9305 31.1028 11.3712 31.1679 11.8123 31.1483C11.9435 31.1483 12.0713 31.1483 12.165 31.1591C12.2456 31.1747 12.3252 31.1943 12.4036 31.2176C12.6782 31.3021 12.9654 31.3488 13.2555 31.3562C13.4112 31.3568 13.5664 31.3392 13.7172 31.3038C13.8112 31.3256 13.9069 31.341 14.0034 31.35C13.3724 32.0023 12.8137 32.7089 12.3354 33.4598C12.2373 33.6147 12.1908 33.7919 12.2017 33.9701C12.2126 34.1483 12.2803 34.3198 12.3967 34.4639C12.4372 34.5102 12.4822 34.553 12.5313 34.5917C12.1247 34.548 11.7132 34.5579 11.3097 34.621C10.5311 34.7411 9.94667 34.9752 9.55139 35.3248C9.50777 35.2725 9.4548 35.2272 9.39465 35.1908C9.32495 35.1489 9.24676 35.1198 9.1646 35.1053C9.08244 35.0907 8.99791 35.091 8.91587 35.1061C7.43016 35.3771 5.93252 35.7005 4.47066 36.0671C4.38152 36.0899 4.29892 36.1299 4.22861 36.1844C4.15829 36.2389 4.10194 36.3066 4.06345 36.3828C3.90757 36.3536 3.74895 36.3382 3.58978 36.3366C3.20216 36.3436 2.81793 36.4033 2.44995 36.5137C1.46686 36.7924 0.81259 37.2159 0.505906 37.7703C0.383049 38.0025 0.315187 38.2553 0.306678 38.5125C0.29817 38.7697 0.349196 39.0258 0.456489 39.2641C0.746135 39.9926 1.36632 40.3252 2.01377 40.5054L1.5776 40.6424C1.42466 40.6904 1.2977 40.7892 1.22266 40.9189C1.14762 41.0485 1.13015 41.1992 1.1738 41.3401C1.51456 42.4258 2.21142 42.9771 3.25755 42.9771C3.62229 42.9707 3.98374 42.9136 4.32923 42.8077C4.97497 42.6214 6.94116 42.05 6.35676 40.1127C6.1063 39.2688 5.4367 38.9053 4.75688 38.7267L5.15559 38.625C5.30978 38.5862 5.44218 38.4964 5.52647 38.3735C5.61075 38.2505 5.64074 38.1033 5.61049 37.9613C5.61049 37.9351 5.59345 37.912 5.58834 37.8858L5.9291 37.8042L6.93605 41.4417C6.97036 41.5664 7.04993 41.6771 7.16205 41.7561C7.27417 41.8351 7.41237 41.8779 7.55454 41.8775C7.60682 41.8781 7.65895 41.8724 7.70959 41.8606C8.1185 41.7682 8.53082 41.6789 8.94143 41.5942C9.10573 41.5603 9.24846 41.4689 9.33841 41.3401C9.42807 41.2102 9.45803 41.0538 9.4219 40.9042L8.49845 37.2498L8.91076 37.1713C8.95129 37.5549 9.0173 37.9359 9.1084 38.3124C9.36738 39.4797 9.72348 41.0706 11.7152 41.1091C10.8558 41.5448 10.1971 42.244 9.85808 43.0803C9.53084 43.8368 9.48243 44.6685 9.72006 45.4519C9.85396 45.9338 10.1022 46.3836 10.4476 46.7701C10.5255 46.8566 10.6237 46.9263 10.7351 46.9742C10.8465 47.0221 10.9683 47.0471 11.0916 47.0474C11.1973 47.0478 11.3021 47.0295 11.4 46.9935C11.7335 47.3466 12.1482 47.6298 12.6152 47.8232C13.0822 48.0166 13.5903 48.1155 14.1039 48.113C14.3802 48.1122 14.6556 48.0843 14.9252 48.0299C13.5485 49.1402 13.114 50.845 13.8603 52.4605C13.9395 52.6211 14.033 52.7756 14.1397 52.9225C14.1721 52.9718 14.2045 53.0195 14.2351 53.0688C14.3073 53.1845 14.4122 53.2808 14.5392 53.3477C14.6662 53.4145 14.8106 53.4496 14.9575 53.4492C15.0669 53.4492 15.1751 53.4298 15.2762 53.3922C15.6104 53.7607 16.0316 54.0569 16.5089 54.2591C16.9862 54.4614 17.5075 54.5645 18.0346 54.5611C18.301 54.5594 18.5665 54.5331 18.8269 54.4825C18.4903 54.7634 18.203 55.089 17.975 55.4481C17.4527 56.2657 17.2874 57.2303 17.5115 58.1524C17.6232 58.6793 17.8766 59.1732 18.2493 59.5907C18.3272 59.6777 18.4256 59.7479 18.5373 59.7961C18.649 59.8443 18.7712 59.8694 18.895 59.8695C18.994 59.8696 19.0922 59.8535 19.1847 59.8217C19.5228 60.1943 19.949 60.4935 20.432 60.6974C20.915 60.9012 21.4425 61.0046 21.9755 60.9999C22.6711 60.9991 23.3537 60.8295 23.9519 60.5086C24.4293 60.2567 24.8447 59.9193 25.1726 59.517C25.5005 59.1147 25.7339 58.6561 25.8585 58.1693C25.9827 57.6744 25.9952 57.1619 25.8951 56.6626C25.7949 56.1632 25.5843 55.6873 25.2758 55.2633C24.4341 54.1052 23.2193 53.4923 21.7625 53.4923C21.5058 53.4931 21.2496 53.5111 20.9958 53.5462C20.9038 53.5585 20.8254 53.5785 20.7283 53.5955C21.1329 53.2614 21.4571 52.8557 21.6808 52.4035C21.8145 52.6724 21.9808 52.927 22.1766 53.1627C22.2853 53.2927 22.4378 53.3873 22.611 53.4322C22.7843 53.4772 22.969 53.4702 23.1375 53.4122C23.4774 53.7728 23.9008 54.0615 24.3778 54.2579C24.8547 54.4543 25.3736 54.5536 25.8977 54.5487C26.3956 54.5485 26.8886 54.4607 27.3493 54.29C27.8738 54.1046 28.3492 53.8212 28.7443 53.4585C29.1395 53.0957 29.4456 52.6617 29.6426 52.1848C29.8556 51.6482 29.9335 51.0754 29.8707 50.5081C29.8079 49.9408 29.606 49.3934 29.2796 48.9055C28.9532 48.4177 28.5105 48.0018 27.9838 47.688C27.4572 47.3743 26.8597 47.1707 26.235 47.092C26.0218 47.0634 25.8065 47.049 25.591 47.0489C25.2953 47.0492 25.0005 47.0787 24.7118 47.1367C25.1023 46.8046 25.4141 46.4043 25.6285 45.9601C25.7648 46.2369 25.9364 46.4984 26.1396 46.7394C26.2481 46.8692 26.4002 46.9637 26.5732 47.0087C26.7462 47.0537 26.9306 47.0467 27.0988 46.9888C27.4388 47.3499 27.8624 47.639 28.3397 47.8357C28.8169 48.0324 29.3362 48.1318 29.8607 48.1269C30.3586 48.1264 30.8515 48.0385 31.3123 47.8682C31.834 47.6788 32.3057 47.3922 32.6967 47.0271C33.0878 46.662 33.3893 46.2266 33.5818 45.7491C33.9358 44.8548 33.9102 43.8736 33.5098 42.9954C33.1095 42.1171 32.3629 41.4044 31.4146 40.9951C32.0047 40.9896 32.5737 40.796 33.0213 40.4484C33.0597 40.5408 33.1071 40.6299 33.1627 40.7148C33.4813 41.1891 34.0657 41.5126 34.8954 41.6804C35.2547 41.7606 35.6227 41.8045 35.9927 41.8113C36.3454 41.8162 36.6947 41.7493 37.015 41.6157C37.0123 41.718 37.0399 41.819 37.0951 41.9083C37.1796 42.0408 37.3186 42.1377 37.4818 42.1778C37.889 42.2795 38.2945 42.3842 38.7001 42.4951C38.7804 42.5167 38.8646 42.5237 38.9479 42.5158C39.0313 42.5079 39.1121 42.4851 39.1856 42.4489C39.2593 42.4132 39.3244 42.3646 39.3771 42.3059C39.4297 42.2472 39.4689 42.1796 39.4923 42.107L40.0426 40.4438L40.2795 40.5115L39.6695 42.1594C39.6173 42.3046 39.6308 42.4626 39.7071 42.5988C39.7834 42.735 39.9163 42.8383 40.0767 42.8862C40.4799 43.0043 40.882 43.1275 41.283 43.2558C41.3511 43.2764 41.4225 43.2868 41.4943 43.2866C41.6264 43.2872 41.7554 43.2503 41.8633 43.1813C41.9711 43.1123 42.0524 43.0145 42.0957 42.9016L43.9955 38.0044C44.0512 37.8602 44.042 37.7021 43.9699 37.564ZM3.72951 38.411C3.60513 38.0398 3.40066 37.681 2.86226 37.8319C2.4329 37.9536 2.24209 38.2138 2.36476 38.5557C2.70552 39.4797 5.2953 38.682 5.77237 40.2728C6.16254 41.5695 5.09083 42.0007 4.16396 42.2749C2.6544 42.7122 2.08703 42.0747 1.81783 41.1968C2.23696 41.0644 2.6561 40.9361 3.07523 40.8118C3.24561 41.2846 3.41599 41.6696 4.09751 41.4756C4.18451 41.4602 4.26664 41.4275 4.33801 41.38C4.40937 41.3325 4.4682 41.2712 4.51024 41.2007C4.55227 41.1301 4.57649 41.052 4.58114 40.972C4.58578 40.892 4.57075 40.8121 4.53711 40.7379C4.24235 39.8262 1.66278 40.5223 1.0903 39.0809C0.792133 38.3201 1.02727 37.5409 2.67484 37.0789C3.99359 36.7123 4.79097 37.0157 5.01757 38.0814C4.58594 38.1851 4.15659 38.295 3.72951 38.411ZM7.75898 36.8186C8.11337 38.2241 8.46776 39.6307 8.82215 41.0382C8.40643 41.1224 7.99128 41.2117 7.57669 41.3062C7.18935 39.9079 6.80146 38.5085 6.413 37.1081C5.91378 37.2205 5.41966 37.3407 4.92385 37.4639L4.66828 36.6323C6.12674 36.2688 7.59486 35.9516 9.07263 35.6805C9.13567 35.9623 9.197 36.2442 9.26004 36.526C8.75742 36.6169 8.2582 36.7154 7.75898 36.8186ZM28.3222 38.6327C28.1637 39.9356 26.8313 39.8755 26.2912 39.8447C25.5433 39.797 24.797 39.7585 24.0473 39.7354L24.2518 34.5471C25.0742 34.5748 25.8977 34.6159 26.7223 34.6703C27.7855 34.7411 28.6357 35.063 28.5045 36.161C28.4329 36.757 28.0189 37.1482 27.288 37.2067V37.2205C28.2234 37.4007 28.4057 37.9305 28.3222 38.6327ZM21.4865 36.5891C22.151 36.5891 22.8172 36.5891 23.4817 36.6061C23.4817 36.8725 23.4663 37.1374 23.4595 37.4038C22.8036 37.3884 22.1476 37.3838 21.4916 37.3869C21.4916 37.8935 21.4916 38.3986 21.5053 38.9038C22.2186 38.9038 22.933 38.911 23.6486 38.9253C23.6486 39.1902 23.6333 39.4566 23.6231 39.7215C22.4974 39.6938 21.3695 39.6938 20.2393 39.7215C20.1871 37.9926 20.1303 36.2632 20.069 34.5332C21.2821 34.5024 22.4969 34.5024 23.7066 34.5332C23.7066 34.7981 23.6913 35.0645 23.6844 35.3294C22.945 35.3125 22.2089 35.3063 21.4695 35.3094C21.478 35.739 21.4831 36.1687 21.4865 36.5922V36.5891ZM16.2473 39.9494C15.8538 39.9833 15.4602 40.0234 15.0666 40.0634L14.397 34.909C15.0223 34.8443 15.6493 34.7842 16.2712 34.735C16.9743 35.8818 17.6439 37.0383 18.28 38.2046H18.2953C18.2169 37.0096 18.1386 35.8135 18.0602 34.6164C18.493 34.5933 18.9257 34.5748 19.3585 34.5579C19.4357 36.2868 19.5124 38.0157 19.5885 39.7446C19.0313 39.7646 18.4725 39.7908 17.9137 39.8262C17.2685 38.5942 16.583 37.3761 15.8572 36.1718H15.8401L16.2473 39.9494ZM19.338 33.9819C18.8985 33.9973 18.46 34.0173 18.0227 34.042C17.9393 34.0465 17.8578 34.0658 17.7827 34.0988C17.7076 34.1318 17.6404 34.1779 17.585 34.2344C17.5297 34.2909 17.4872 34.3567 17.4599 34.4281C17.4327 34.4994 17.4213 34.5749 17.4264 34.6503L17.486 35.5404C17.2713 35.1769 17.0532 34.8166 16.8317 34.4624C16.7727 34.3647 16.6833 34.2848 16.5746 34.2325C16.4659 34.1803 16.3427 34.1579 16.2201 34.1682H16.1962C17.6012 33.7314 18.8987 33.0514 20.0161 32.1662C20.0161 32.1955 20.0161 32.2247 20.0161 32.254C20.0332 32.4727 20.0485 32.6914 20.0604 32.9116C20.0826 33.2627 20.1201 33.6138 20.1661 33.965H20.0485C19.9208 33.968 19.7972 34.0062 19.6941 34.0743C19.5894 34.0102 19.4643 33.9788 19.338 33.985V33.9819ZM22.9075 33.948C22.853 33.6831 22.8002 33.4105 22.7559 33.1133C22.703 32.7622 22.6741 32.4111 22.6553 32.0523C22.8189 32.1991 22.9927 32.3423 23.1767 32.4819C24.0506 33.1402 25.0323 33.6716 26.0868 34.0574C25.4802 34.0219 24.872 33.9911 24.2739 33.9727C24.1796 33.9688 24.0856 33.9851 23.9996 34.0204C23.9155 33.9818 23.823 33.9603 23.7287 33.9573C23.4561 33.9542 23.1818 33.9542 22.9075 33.9511V33.948ZM37.6556 28.6103C37.6096 28.6434 37.554 28.6637 37.4954 28.6689C36.4306 28.7967 35.5327 29.3511 34.5325 29.6098C34.1304 29.7145 33.6602 29.8008 33.2564 29.8962C32.8646 29.9948 32.4663 30.0704 32.0637 30.1226C31.6271 30.1935 31.1862 30.2408 30.7433 30.2643C30.6425 30.2645 30.5418 30.2594 30.4417 30.2489C30.3854 30.2391 30.3285 30.2324 30.2713 30.2289C30.2282 30.2274 30.1858 30.239 30.1509 30.2619C30.116 30.2848 30.0906 30.3177 30.0788 30.3552C30.0672 30.3882 30.0446 30.4171 30.0141 30.4381C29.9836 30.4591 29.9467 30.471 29.9084 30.4722C29.8387 30.4668 29.7703 30.4518 29.7057 30.4275C29.6079 30.3977 29.5056 30.3816 29.4024 30.3798C29.2646 30.3791 29.1302 30.4186 29.019 30.4922C28.9741 30.5225 28.92 30.5397 28.864 30.5415C28.8469 30.5422 28.8299 30.539 28.8146 30.5323C28.2864 30.2982 27.6884 30.5523 27.1278 30.2658C26.7871 30.0872 26.2435 30.2874 25.8517 30.0087C25.8467 30.0044 25.8408 30.0011 25.8344 29.9989C25.8279 29.9968 25.821 29.9959 25.8142 29.9963C25.7844 30.0003 25.7567 30.0127 25.7353 30.0318C25.7138 30.0509 25.6997 30.0757 25.6949 30.1026C25.6832 30.1686 25.6932 30.2363 25.7234 30.2973C25.7537 30.3583 25.803 30.41 25.8653 30.446C26.2822 30.7619 26.6804 31.0976 27.058 31.4517C27.6407 31.9522 28.0547 32.5635 28.5317 33.2103C23.6572 30.6493 22.1987 28.176 21.7711 27.0503C25.5501 28.2484 29.5226 28.8728 33.5273 28.8983C34.9098 28.9071 36.2907 28.8118 37.6556 28.6134V28.6103ZM41.4517 15.5803C41.1348 15.9283 40.8213 16.2748 40.4754 16.589C40.1295 16.9032 40.1568 17.4129 39.6082 17.5223C39.8211 18.1198 39.2061 18.1675 38.8858 18.4078C38.8483 18.437 38.7989 18.5032 38.8125 18.5233C39.1737 19.0653 38.5262 19.0268 38.3013 19.227C38.1446 19.3687 37.6488 19.3379 38.0407 19.7214C38.1514 19.8292 37.9947 19.8892 37.9163 19.9478C37.6948 20.0969 37.4502 20.2157 37.1905 20.3004C37.0201 20.3651 36.8122 20.4375 37.1036 20.6315C37.2961 20.7624 37.1342 20.8702 37.0082 20.9395C36.8112 21.0299 36.6087 21.1101 36.4016 21.1798C36.1954 21.2491 35.9399 21.206 36.083 21.5863C36.1886 21.8697 35.7116 21.8574 35.5139 22.0006C35.3163 22.1438 34.6774 21.9883 34.9653 22.5704C34.9994 22.6428 34.7949 22.7321 34.6791 22.7706C34.3707 22.8722 34.0572 22.9647 33.7028 23.0786C34.1543 23.5067 33.788 23.6207 33.4046 23.7254C33.1763 23.7855 32.948 23.8548 32.7129 23.901C32.5221 23.9379 32.3602 23.9549 32.5851 24.1612C32.7555 24.3152 32.6004 24.3907 32.4624 24.4461C32.0589 24.6116 31.6209 24.6971 31.1778 24.6972C31.3004 25.21 31.2084 25.3255 30.6496 25.3886C30.2441 25.4364 29.8454 25.364 29.5591 25.8152C29.4041 26.0616 28.8623 26.0524 28.4823 26.1032C28.2404 26.1355 28.0819 26.1894 28.2148 26.4466C28.1586 26.4805 28.0888 26.5067 28.1314 26.5821C28.1357 26.5954 28.1444 26.6072 28.1562 26.616C28.1681 26.6248 28.1826 26.6301 28.1978 26.6314C28.2313 26.6271 28.262 26.6124 28.2847 26.5898C28.3668 26.569 28.4516 26.5587 28.5369 26.559C28.8265 26.559 29.1196 26.6622 29.4092 26.6622C29.5628 26.6651 29.7142 26.6282 29.8454 26.556C29.9163 26.6318 30.0065 26.6911 30.1083 26.7286C30.2101 26.7661 30.3204 26.7809 30.4298 26.7716C30.561 26.7716 30.6956 26.7592 30.8285 26.7592C30.9526 26.7558 31.0763 26.7736 31.1931 26.8116C31.5124 26.9206 31.8502 26.9785 32.1915 26.9825C32.2971 26.9827 32.4025 26.975 32.5067 26.9594C32.5563 26.9521 32.6064 26.9485 32.6566 26.9487C33.0451 26.9487 33.3808 27.1643 33.7181 27.2567C34.1117 27.3614 34.57 27.4538 34.967 27.5924C35.7065 27.8419 36.4135 28.2161 37.2075 28.3424C35.1101 28.6288 29.0565 28.9399 21.9142 26.7269L41.4517 15.5803ZM21.6552 1.19043C21.752 1.36562 21.8164 1.55393 21.846 1.74791C21.9295 2.2361 22.226 2.67192 22.2072 3.18012C22.2041 3.24646 22.2256 3.31184 22.2681 3.36594C22.3107 3.42004 22.372 3.45978 22.4424 3.47889C22.5097 3.50786 22.5662 3.55412 22.6047 3.61191C22.6432 3.6697 22.662 3.73645 22.6587 3.80383C22.6775 4.08719 22.5429 4.38903 23.066 4.50915C23.2585 4.55227 23.1256 5.03122 23.1443 5.30996C23.1597 5.5194 23.0302 5.78582 23.4391 5.78582H23.4749C23.6452 5.78582 23.6452 5.93983 23.6452 6.05379C23.6452 6.32175 23.6299 6.58663 23.6129 6.85151C23.6129 7.02245 23.4766 7.26115 23.7202 7.26115C23.7931 7.25763 23.8653 7.24573 23.9349 7.22573C23.9556 7.21884 23.9775 7.21519 23.9996 7.21495C24.1376 7.21495 24.1376 7.38436 24.1479 7.4937C24.1626 7.82808 24.1177 8.16243 24.015 8.48392C23.9741 8.63793 23.9553 8.77191 24.1206 8.77191C24.1688 8.77105 24.2165 8.76326 24.262 8.74881C24.3064 8.73722 24.3522 8.73049 24.3983 8.72879C24.5874 8.72879 24.6028 8.89357 24.5943 9.05681C24.5738 9.35628 24.5072 9.65172 24.3966 9.93462C24.3506 10.0563 24.2416 10.2519 24.4869 10.2519H24.5278H24.5977C24.9384 10.2519 24.8856 10.4551 24.8481 10.663C24.8081 10.9271 24.7512 11.1888 24.6777 11.4469C24.613 11.6425 24.4085 11.855 24.7118 11.855C24.7816 11.853 24.8512 11.8458 24.9197 11.8335H24.9623C25.1327 11.8335 25.1173 12.0491 25.1037 12.1815C25.0527 12.5114 24.9512 12.8332 24.8021 13.1378C24.7408 13.2795 24.6778 13.4566 24.8941 13.4566C24.9267 13.4562 24.9592 13.4531 24.9912 13.4474C25.0355 13.4392 25.0806 13.4351 25.1258 13.4351C25.3985 13.4351 25.3644 13.6383 25.3303 13.8324C25.2543 14.3021 25.0715 14.7525 24.7936 15.1553C24.8109 15.1756 24.8327 15.1924 24.8577 15.2046C24.8826 15.2168 24.9102 15.2241 24.9384 15.2261C25.0117 15.2261 25.0662 15.1753 25.1258 15.1553C25.1922 15.1284 25.263 15.1117 25.3354 15.106C25.441 15.106 25.47 15.1814 25.4257 15.3878C25.3261 15.9157 25.0845 16.4133 24.722 16.8369C25.4768 16.9617 25.4819 16.9909 25.2553 17.6193C25.1139 18.0212 24.8294 18.34 24.5551 18.7496C24.5982 18.7468 24.6415 18.7468 24.6846 18.7496C25.1156 18.7496 25.0117 19.013 24.9333 19.2779C24.7707 19.7411 24.523 20.1763 24.2007 20.5653C24.7817 20.6146 24.8686 20.7193 24.6437 21.1505C24.4375 21.5432 24.3319 21.9991 23.8804 22.2655C23.7866 22.324 23.5873 22.4826 23.8412 22.5612C24.2637 22.6951 24.0559 22.9123 23.9758 23.114C23.8054 23.5514 23.4476 23.884 23.1239 24.249C23.173 24.2703 23.2263 24.2823 23.2806 24.2844C23.4067 24.2844 23.4629 24.1967 23.5192 24.112C23.5754 24.0273 23.6657 23.8394 23.7355 23.8394H23.7594C24.4937 23.8394 24.3217 23.171 24.6352 22.8676C24.7902 22.7136 24.8498 22.4318 25.0867 22.4318C25.1848 22.4379 25.2788 22.4695 25.3576 22.5227C25.3795 22.5369 25.4056 22.5449 25.4325 22.5458C25.516 22.5458 25.5501 22.441 25.5671 22.3687C25.6421 22.1007 25.8636 21.9067 25.9982 21.6803C26.0527 21.5848 26.1686 21.4293 26.2418 21.4293C26.298 21.439 26.355 21.4442 26.4122 21.4447C26.9233 21.4447 26.8808 20.9318 27.1193 20.6854C27.2897 20.516 27.3987 20.3004 27.6492 20.3004C27.7184 20.302 27.7867 20.3156 27.8502 20.3405C27.8819 20.3531 27.9161 20.3599 27.9507 20.3605C28.0581 20.3605 28.1211 20.2835 28.1859 20.1772C28.2946 19.9494 28.4589 19.7467 28.6664 19.5843C28.7567 19.5181 28.8367 19.3903 28.9355 19.3903C28.9935 19.3903 29.0565 19.4411 29.1281 19.5874C29.1604 19.6521 29.1996 19.6783 29.2422 19.6783C29.3189 19.6783 29.4007 19.5966 29.4467 19.5135C29.5516 19.282 29.7177 19.0774 29.9306 18.9175C30.0481 18.839 30.1521 18.6588 30.2713 18.6588C30.3412 18.6588 30.4196 18.7173 30.5099 18.8852C30.5371 18.936 30.5695 18.9545 30.6019 18.9545C30.6717 18.9545 30.7484 18.8636 30.8063 18.8005C30.9767 18.611 31.1471 18.4155 31.3396 18.2353C31.4121 18.1696 31.5009 18.1205 31.5986 18.0921C31.684 18.1785 31.8017 18.2333 31.9291 18.2461C32.1659 18.2461 32.2562 17.9073 32.4403 17.7841C32.6243 17.6609 32.7146 17.5361 32.8918 17.5361C32.9832 17.5403 33.071 17.5693 33.1439 17.6193C33.1736 17.6394 33.2092 17.6512 33.2462 17.6532C33.3757 17.6532 33.4608 17.4884 33.5767 17.4206C33.7624 17.3113 33.8698 16.934 34.1134 16.934C34.2122 16.934 34.3383 16.9986 34.4985 17.1742C34.5051 17.1826 34.5137 17.1894 34.5238 17.1943C34.5339 17.1991 34.545 17.2017 34.5564 17.2019C34.662 17.2019 34.7966 16.9925 34.9244 16.9278C35.1255 16.8262 35.2652 16.5428 35.4969 16.5428C35.6362 16.5566 35.764 16.619 35.853 16.7168C35.8631 16.7265 35.8752 16.7342 35.8887 16.7395C35.9022 16.7447 35.9167 16.7475 35.9314 16.7476C36.0728 16.7476 36.2551 16.4966 36.4238 16.4073C36.5924 16.318 36.7151 16.1747 36.8804 16.1747C36.9372 16.1793 36.9922 16.1945 37.0421 16.2194C37.092 16.2444 37.1356 16.2785 37.17 16.3195C37.1822 16.3332 37.1974 16.3445 37.2148 16.3524C37.2321 16.3604 37.2511 16.3649 37.2706 16.3657C37.3796 16.3657 37.475 16.2117 37.584 16.1701C37.7749 16.0993 37.935 15.8883 38.1378 15.8883C38.1945 15.8925 38.2497 15.9072 38.2999 15.9316C38.35 15.956 38.394 15.9895 38.4291 16.03C38.4361 16.0372 38.4448 16.043 38.4545 16.047C38.4642 16.051 38.4747 16.0531 38.4854 16.0531C38.5331 16.0531 38.5808 16.0177 38.6302 16.0038C39.4503 15.7759 40.2715 15.55 41.0939 15.3262L21.6092 26.4666C21.6092 26.4405 21.6092 26.4266 21.6092 26.4266L21.6552 1.19043ZM21.3894 27.2166C21.875 28.4964 23.5209 31.1806 29.0702 33.908L29.0974 33.9449C28.3511 33.757 27.7344 33.6369 27.1466 33.449C25.9373 33.0808 24.8117 32.5179 23.8241 31.7874C23.1989 31.2887 22.6356 30.73 22.1442 30.1211C22.0437 30.0025 21.95 29.8762 21.8392 29.7653C21.7934 29.7241 21.7332 29.6985 21.6688 29.693C21.5819 29.7022 21.5717 29.7854 21.5768 29.847C21.6416 30.9773 21.5768 32.1123 21.7574 33.235C21.7932 33.4691 21.8392 33.697 21.8835 33.9326C21.6569 33.9326 21.4303 33.9326 21.202 33.9419C21.1526 33.5799 21.1117 33.218 21.0895 32.85C21.0367 31.986 20.9328 31.1206 20.9703 30.2535C20.9703 30.175 20.9992 30.0795 20.8953 30.0364C20.8765 30.0269 20.8555 30.0216 20.834 30.021C20.7641 30.021 20.7369 30.0918 20.6926 30.1411C19.0773 32.0923 16.8692 33.1718 14.2914 33.7124L13.9745 33.7786C19.3074 31.1021 20.9106 28.4825 21.3894 27.2166ZM28.7481 34.8104V34.8335V34.8258L28.7226 34.8012L28.7481 34.8104ZM2.80604 15.9591C3.25414 16.0654 3.69032 16.2317 4.15546 16.2317C4.27637 16.2319 4.39693 16.22 4.51496 16.1963C4.5319 16.194 4.54912 16.194 4.56606 16.1963C4.67705 16.211 4.7814 16.2531 4.86764 16.318C5.05846 16.4288 5.21862 16.5813 5.44011 16.5813C5.56256 16.5772 5.681 16.5408 5.78087 16.4766C5.80705 16.4593 5.83874 16.4501 5.87118 16.4504C6.062 16.4504 6.30735 16.7122 6.50669 16.8462C6.60381 16.9139 6.6856 17.0002 6.77079 17.0002C6.85598 17.0002 6.89176 16.9586 6.96332 16.8462C6.97423 16.8218 6.99277 16.8008 7.01667 16.7857C7.04057 16.7707 7.06879 16.7623 7.09791 16.7615C7.18941 16.7755 7.27456 16.8129 7.34327 16.8693C7.54602 17.011 7.74196 17.1619 7.94471 17.3051C8.00435 17.3498 8.09293 17.4376 8.16278 17.4376C8.17363 17.4371 8.18421 17.4343 8.19367 17.4295C8.20313 17.4247 8.21124 17.418 8.21732 17.4098C8.36384 17.2189 8.47799 17.1511 8.5717 17.1511C8.78808 17.1511 8.91247 17.5038 9.09307 17.5962C9.21916 17.6578 9.29583 17.8842 9.43383 17.8842C9.49687 17.8842 9.57353 17.8364 9.67406 17.7055C9.68397 17.6906 9.69795 17.6782 9.71465 17.6696C9.73136 17.661 9.75024 17.6564 9.76948 17.6562C9.86236 17.6731 9.94633 17.7175 10.008 17.7825C10.1903 17.9365 10.3488 18.1198 10.5396 18.2846C10.6112 18.3513 10.6926 18.4088 10.7815 18.4555C10.8829 18.3542 11.0216 18.2896 11.1717 18.2738C11.4682 18.2738 11.5806 18.685 11.8055 18.8236C11.9129 18.8929 11.9895 19.0961 12.0884 19.0961C12.1429 19.0961 12.2042 19.033 12.2792 18.8482C12.2859 18.8276 12.2998 18.8095 12.3188 18.7968C12.3379 18.784 12.3611 18.7772 12.3848 18.7774C12.4699 18.7868 12.5485 18.8234 12.6063 18.8805C12.7641 19.0638 12.941 19.2329 13.1345 19.3857C13.2452 19.4519 13.2929 19.763 13.4497 19.763C13.5161 19.763 13.6013 19.7075 13.7189 19.5535C13.7255 19.5434 13.735 19.5351 13.7464 19.5294C13.7578 19.5237 13.7706 19.5209 13.7836 19.5212C13.8697 19.5375 13.9461 19.5819 13.9983 19.6459C14.1754 19.8145 14.334 19.9981 14.472 20.1942C14.5793 20.3605 14.6321 20.5992 14.7855 20.5992C14.8604 20.5992 14.9559 20.5422 15.099 20.3928C15.1058 20.3848 15.1145 20.3784 15.1246 20.3742C15.1347 20.3699 15.1458 20.3678 15.1569 20.3682C15.2285 20.3682 15.3171 20.4437 15.3784 20.496C15.6143 20.709 15.8009 20.9624 15.927 21.2414C15.9832 21.3661 16.0139 21.5186 16.1383 21.5186C16.2171 21.51 16.291 21.4793 16.3496 21.4308C16.3699 21.4146 16.3958 21.4053 16.4228 21.4046C16.5148 21.4046 16.5813 21.5309 16.6477 21.5925C16.8874 21.8223 17.0728 22.0937 17.1929 22.3902C17.227 22.4672 17.2679 22.6012 17.3429 22.6012C17.3576 22.6012 17.372 22.5969 17.3838 22.5889C17.4893 22.5232 17.6121 22.4839 17.7399 22.4749C18.0653 22.4749 18.0909 22.9031 18.268 23.0909C18.3644 23.2335 18.4336 23.3896 18.4725 23.5529C18.5083 23.6376 18.5406 23.7855 18.6241 23.7855H18.6429C18.6934 23.7728 18.7455 23.766 18.7979 23.7655C19.0961 23.7655 19.2034 24.0242 19.3806 24.189C19.4364 24.2562 19.5177 24.3023 19.6089 24.3183C19.6464 24.3178 19.6822 24.3046 19.7095 24.2814C19.8679 24.1597 19.6788 24.095 19.6089 24.0088C19.396 23.7239 19.0586 23.5191 18.9683 23.1556C18.9138 22.9354 18.6957 22.7121 19.1012 22.5319C19.3125 22.4395 19.1012 22.287 18.9939 22.1808C18.6298 21.8268 18.3702 21.3957 18.2391 20.9272C18.1965 20.7732 18.1522 20.6023 18.3856 20.6023H18.4589H18.5492C18.7519 20.6023 18.74 20.4945 18.6088 20.3543C18.2953 20.014 18.1794 19.5843 17.9852 19.1978C17.8625 18.9452 17.7569 18.7804 18.205 18.7358C18.464 18.7111 18.28 18.5171 18.205 18.4524C17.9439 18.1921 17.7557 17.8789 17.6564 17.5392C17.4349 16.9709 17.4741 16.9232 18.1675 16.8523C17.975 16.4596 17.6785 16.1162 17.5933 15.6943C17.5576 15.5048 17.3514 15.3046 17.5252 15.1337C17.5399 15.1165 17.5588 15.1026 17.5803 15.093C17.6019 15.0834 17.6255 15.0784 17.6496 15.0783C17.7688 15.0783 17.8949 15.1938 18.0534 15.1938C18.0816 15.1938 18.1097 15.1902 18.1368 15.183C17.9174 14.7961 17.7526 14.3858 17.6462 13.9617C17.6019 13.7446 17.4758 13.4443 17.8302 13.4443C17.9008 13.4458 17.9711 13.454 18.0397 13.4689C18.0641 13.4709 18.0886 13.4709 18.113 13.4689C18.2595 13.4689 18.2323 13.3334 18.1777 13.201C18.0534 12.893 17.8762 12.5973 17.866 12.2523C17.866 12.0275 17.8131 11.778 18.0363 11.778C18.1617 11.7883 18.2829 11.8241 18.3907 11.8827C18.2732 11.3822 18.1028 10.9787 18.0772 10.5522C18.0636 10.3797 18.0414 10.2103 18.2595 10.2103C18.2968 10.2112 18.3339 10.2153 18.3703 10.2226C18.405 10.2293 18.4404 10.2329 18.4759 10.2334C18.6463 10.2334 18.6258 10.1194 18.5662 9.96696C18.4367 9.63739 18.2902 9.31245 18.3055 8.95363C18.3055 8.81657 18.3192 8.67181 18.4759 8.67181C18.51 8.67316 18.5437 8.67833 18.5764 8.68721C18.6404 8.70835 18.7077 8.7203 18.7758 8.72263C18.987 8.72263 18.9462 8.53628 18.8899 8.35302C18.8127 8.11239 18.7748 7.86283 18.7775 7.61228C18.7877 7.42286 18.7349 7.20725 19.0075 7.20725C19.0493 7.20803 19.0909 7.21215 19.1319 7.21957C19.1517 7.22151 19.1717 7.22151 19.1915 7.21957C19.3619 7.21957 19.3432 7.06557 19.3193 6.94853C19.2572 6.67091 19.2417 6.38641 19.2733 6.10461C19.2937 5.97679 19.2937 5.7658 19.4437 5.7658H19.4914C19.9889 5.7658 19.8066 5.4501 19.8321 5.19446C19.8662 4.88646 19.6464 4.45987 20.2427 4.37671C20.2649 4.37671 20.299 4.32589 20.2973 4.29971C20.224 3.50199 20.9464 2.9137 20.9924 2.1437C21.0186 1.84459 21.1083 1.55284 21.2565 1.28437L21.1969 26.4097C21.1969 26.4097 21.1969 26.4281 21.1969 26.4574L1.43276 15.5618C1.89961 15.6588 2.3426 15.8406 2.80604 15.9591ZM8.27012 27.4569C8.70459 27.3552 9.18167 27.2644 9.6008 27.1489C10.0199 27.0334 10.468 27.0395 10.8701 26.8871C10.9384 26.8532 11.0119 26.8288 11.0882 26.8147C11.0977 26.8123 11.1077 26.8123 11.1172 26.8147C11.261 26.8777 11.4191 26.9093 11.5789 26.9071C11.9316 26.9071 12.2792 26.7762 12.5808 26.7269C13.2217 26.6492 13.8679 26.6116 14.5146 26.6145C14.7258 26.6145 14.7139 26.4312 14.7531 26.3219C14.8059 26.1848 14.7275 26.1679 14.6389 26.1679H14.5418H14.5214C13.9404 26.1309 13.3815 26.1278 12.913 25.6766C12.7017 25.4733 12.2315 25.4995 11.872 25.4194C11.7305 25.3825 11.5056 25.3147 11.5891 25.1776C11.8004 24.8404 11.6692 24.8019 11.4903 24.8019H11.3302C11.2918 24.8031 11.2535 24.8 11.216 24.7926C10.9264 24.7326 10.6418 24.6787 10.3641 24.6078C10.2448 24.5755 10.0608 24.497 10.1801 24.3722C10.6061 23.9487 10.0779 24.0642 9.93133 24.018C9.65532 23.9333 9.35035 23.9426 9.09307 23.7901C8.98573 23.727 8.7966 23.6684 8.91076 23.5452C9.27707 23.1325 8.85965 23.248 8.64668 23.1433C8.32636 22.9893 7.68232 23.131 7.81181 22.4749C7.84078 22.3379 7.53238 22.3502 7.41993 22.2578C7.17458 22.0653 6.47773 22.2455 6.73841 21.6002C6.78952 21.4862 6.56804 21.4647 6.45047 21.4231C6.21535 21.3369 5.9734 21.2583 5.74169 21.1613C5.66842 21.1305 5.55597 21.0073 5.57131 21.0073C6.02963 20.419 5.27654 20.5653 5.09764 20.3759C4.91875 20.1865 4.39909 20.2404 4.75688 19.7968C4.85571 19.6752 4.64444 19.6244 4.54561 19.5612C4.227 19.3518 3.66645 19.3287 3.8215 18.7543C3.85217 18.6434 3.65113 18.6003 3.55401 18.5294C3.31377 18.3631 2.88781 18.3077 3.09227 17.8795C3.10249 17.8534 3.04797 17.7918 3.01049 17.761C2.32897 17.2019 1.86895 16.4735 1.23343 15.8806L20.8578 26.7177C13.7172 28.9291 7.6738 28.618 5.57472 28.3331C6.51692 28.1514 7.34837 27.6694 8.27012 27.4569ZM17.0226 30.138C16.9129 30.1931 16.7884 30.2198 16.6631 30.215C16.5762 30.215 16.4927 30.2073 16.4177 30.2058H16.3956C16.0548 30.2058 15.7141 30.3967 15.4636 30.3967C15.4409 30.3983 15.4181 30.3983 15.3954 30.3967C15.3233 30.3863 15.2504 30.3811 15.1773 30.3813C14.8758 30.3813 14.5793 30.4599 14.2846 30.4599C14.1269 30.4629 13.9706 30.4328 13.8279 30.3721C13.799 30.3613 13.7598 30.3305 13.7427 30.3305C13.6095 30.412 13.4521 30.4549 13.2912 30.4537C12.9607 30.4537 12.6353 30.2997 12.3218 30.2643C11.826 30.2104 11.279 30.3244 10.8105 30.061C10.7712 30.0368 10.7251 30.023 10.6776 30.021H10.6554C10.5545 30.0468 10.4503 30.0608 10.3454 30.0626C10.1393 30.0583 9.94197 29.9866 9.78992 29.8608C9.59739 29.7207 9.14929 29.7268 8.82386 29.6899C8.06737 29.6021 7.42335 29.2787 6.74864 29.0246C6.3242 28.8774 5.88557 28.766 5.43841 28.692C5.38644 28.6811 5.33651 28.6635 5.29018 28.6396C6.60718 28.8212 7.93804 28.9083 9.27026 28.8999C13.275 28.8745 17.2474 28.2501 21.0265 27.0518C20.5835 28.233 19.0007 30.9019 13.4667 33.6169C14.386 32.2563 15.5946 31.0739 17.0226 30.138ZM13.4684 34.8243L13.7836 34.7611C13.763 34.8324 13.7566 34.9065 13.7649 34.9798L13.7802 35.0938C13.659 34.9919 13.5238 34.9045 13.3781 34.8335C13.4084 34.8321 13.4386 34.829 13.4684 34.8243ZM9.75586 38.2031C9.45769 36.8648 9.15951 35.5542 11.446 35.1985C13.7393 34.8766 13.9182 36.2057 14.1074 37.5593C14.2965 38.913 14.4703 40.2005 12.4036 40.4854C10.3471 40.8103 10.0506 39.5429 9.75586 38.2031ZM14.1261 47.3677C13.658 47.3725 13.1967 47.2664 12.788 47.06C12.3794 46.8536 12.0377 46.554 11.797 46.1911C11.6137 45.9185 11.4936 45.6151 11.4438 45.2993C11.394 44.9835 11.4156 44.6619 11.5073 44.3539C11.6199 43.9049 11.846 43.4857 12.168 43.129C12.4899 42.7723 12.8988 42.4878 13.3628 42.298C13.6544 42.1874 13.9524 42.0913 14.2556 42.01H14.1738C12.3524 42.01 10.1648 43.7563 11.107 46.3035C10.8358 45.9978 10.6411 45.6427 10.5362 45.2625C10.3322 44.564 10.4026 43.8231 10.7354 43.1663C11.0681 42.5094 11.6426 41.9772 12.361 41.6604C12.8269 41.4523 13.3389 41.3422 13.8586 41.3385C14.3385 41.3408 14.8125 41.4353 15.2489 41.6157C15.7398 41.8006 16.1739 42.0902 16.5139 42.4598C16.854 42.8293 17.0899 43.2679 17.2015 43.7379C17.6053 45.2948 16.6903 46.7547 15.0751 47.2306C14.7685 47.3202 14.4484 47.3664 14.1261 47.3677ZM21.1424 54.2977C21.355 54.2687 21.5697 54.2538 21.7847 54.2531C22.9586 54.2531 23.9144 54.7336 24.6045 55.6853C24.8528 56.0193 25.023 56.3957 25.1046 56.7913C25.1861 57.1869 25.1773 57.5935 25.0787 57.9859C24.9801 58.3783 24.7938 58.7484 24.5311 59.0734C24.2685 59.3984 23.9352 59.6714 23.5515 59.8756C23.081 60.1274 22.5445 60.2609 21.9977 60.2622C21.5508 60.269 21.109 60.1757 20.7118 59.9905C20.3146 59.8054 19.9743 59.5342 19.7214 59.2011C19.503 58.9215 19.3561 58.6016 19.2913 58.2644C19.2265 57.9272 19.2453 57.5812 19.3465 57.2515C19.66 56.1735 20.4165 55.4497 21.5615 55.0569C21.7182 55.0031 21.8818 54.9784 22.0437 54.9384C21.4964 54.9315 20.9562 55.0512 20.4746 55.2863C19.993 55.5213 19.5859 55.8639 19.292 56.2813C18.6361 57.1606 18.5577 58.1293 18.9138 59.1303C18.6259 58.8074 18.4299 58.4256 18.343 58.0184C18.1593 57.2743 18.2912 56.495 18.7127 55.8347C18.9547 55.4232 19.301 55.0693 19.7233 54.8019C20.1456 54.5345 20.6318 54.3612 21.1424 54.2962V54.2977ZM18.987 53.6817C18.6867 53.7705 18.3728 53.8163 18.0568 53.8172C17.6055 53.8222 17.1601 53.7244 16.7616 53.5328C16.3632 53.3411 16.0246 53.0619 15.7771 52.7208C15.2268 51.9508 15.2131 51.1238 15.6067 50.2952C15.7959 49.8984 16.0758 49.5423 16.4282 49.2503C16.7806 48.9583 17.1975 48.7371 17.6513 48.6012C17.7347 48.5786 17.8195 48.5601 17.9051 48.5458C17.9784 48.5258 18.0534 48.5011 18.1266 48.478H18.0363C16.1264 48.478 14.0886 50.3522 14.9695 52.7084C14.8479 52.536 14.737 52.3576 14.6372 52.174C13.9557 50.6879 14.4669 49.131 15.9696 48.2593C16.491 47.9553 17.0989 47.7948 17.7194 47.7973C17.9009 47.7973 18.082 47.8101 18.2612 47.8358C18.8299 47.8983 19.3709 48.0927 19.8319 48.4C20.2929 48.7074 20.658 49.1173 20.8919 49.5899C21.1008 49.9673 21.2169 50.381 21.2322 50.8027C21.2476 51.2244 21.1619 51.6442 20.9809 52.0331C20.8 52.4221 20.5281 52.7711 20.184 53.0562C19.8398 53.3413 19.4315 53.5557 18.987 53.6848V53.6817ZM21.6501 49.2588C21.3565 48.6767 20.9037 48.1719 20.3343 47.792C19.7649 47.412 19.0977 47.1695 18.3958 47.0874C18.1752 47.0581 17.9526 47.0432 17.7296 47.0427C17.4371 47.0451 17.1457 47.0766 16.8607 47.1367C17.252 46.8105 17.5662 46.416 17.7842 45.977C17.9167 46.2457 18.0824 46.4998 18.2783 46.7347C18.3556 46.8275 18.4557 46.9028 18.5707 46.9547C18.6857 47.0065 18.8125 47.0335 18.941 47.0335C19.0424 47.0339 19.1429 47.0172 19.2375 46.9842C19.577 47.3458 20.0005 47.6353 20.4779 47.832C20.9552 48.0287 21.4748 48.1278 21.9994 48.1223C22.2523 48.1217 22.5046 48.0984 22.7524 48.053C22.2998 48.4195 21.942 48.8717 21.7046 49.3774C21.6859 49.3404 21.6705 49.3004 21.6501 49.2588ZM25.5842 47.7943C25.7598 47.7941 25.9353 47.8059 26.1089 47.8297C26.662 47.8894 27.1894 48.0742 27.6424 48.3671C28.0954 48.66 28.4593 49.0514 28.7004 49.5052C28.9113 49.8681 29.0362 50.2668 29.0671 50.6758C29.098 51.0848 29.0342 51.4951 28.8799 51.8806C28.7255 52.2661 28.4838 52.6182 28.1704 52.9145C27.857 53.2108 27.4787 53.4449 27.0597 53.6016C26.6979 53.7356 26.3108 53.8047 25.9198 53.8049C25.4923 53.8115 25.0691 53.7272 24.6843 53.5586C24.2995 53.3901 23.964 53.1421 23.7049 52.8347C23.0932 52.074 23.0387 51.2408 23.4135 50.3846C23.5919 49.9684 23.8699 49.5931 24.2274 49.2853C24.585 48.9775 25.0134 48.745 25.4819 48.6043C25.6523 48.5489 25.8227 48.5196 26.0033 48.4765C24.8106 48.5027 23.8736 48.9385 23.2125 49.8348C22.5514 50.7311 22.4798 51.7059 22.8581 52.7192C22.3766 52.1596 22.1384 51.4601 22.1885 50.7526C22.2076 50.2877 22.3448 49.8329 22.5894 49.4236C22.834 49.0142 23.1796 48.6612 23.5992 48.3918C24.1721 48.0043 24.8687 47.7957 25.5842 47.7973V47.7943ZM23.1426 47.1721C22.7815 47.3061 22.3949 47.3751 22.0045 47.3754C21.577 47.382 21.1537 47.2976 20.769 47.1291C20.3842 46.9605 20.0487 46.7126 19.7895 46.4052C19.1762 45.6444 19.1233 44.8097 19.4965 43.955C19.6751 43.539 19.9531 43.1637 20.3106 42.856C20.6682 42.5483 21.0964 42.3156 21.5649 42.1748C21.7353 42.1178 21.9057 42.0885 22.076 42.0469C20.8834 42.0716 19.9463 42.5089 19.2869 43.4052C18.6275 44.3015 18.5543 45.2748 18.9325 46.2881C18.4518 45.7281 18.2132 45.029 18.2612 44.3215C18.2807 43.8569 18.4182 43.4026 18.6631 42.9937C18.9081 42.5849 19.2538 42.2324 19.6737 41.9638C20.2431 41.5742 20.9376 41.3633 21.6518 41.3632C21.8274 41.3637 22.0028 41.3755 22.1766 41.3986C22.7304 41.4578 23.2587 41.6426 23.7124 41.9358C24.166 42.229 24.5304 42.6211 24.7715 43.0757C24.9827 43.4379 25.1082 43.836 25.1399 44.2444C25.1716 44.6529 25.1088 45.0629 24.9556 45.4483C24.8024 45.8336 24.562 46.1859 24.2499 46.4827C23.9378 46.7795 23.5607 47.0143 23.1426 47.1721ZM25.5279 42.7322C25.2256 42.1723 24.7736 41.6892 24.2128 41.3268C23.6521 40.9643 23.0003 40.7339 22.3163 40.6563C22.1029 40.6288 21.8877 40.6149 21.6722 40.6147C20.7824 40.6143 19.9165 40.8753 19.2051 41.3586C18.5861 41.7603 18.1001 42.3072 17.7995 42.9401C17.3882 42.0364 16.6008 41.3147 15.6067 40.9304C15.0766 40.7126 14.5022 40.5967 13.9199 40.5901C14.1248 40.4589 14.3015 40.295 14.4413 40.1065V40.1342C14.4604 40.2742 14.5353 40.403 14.652 40.4966C14.7687 40.5901 14.9191 40.642 15.0751 40.6424C15.0995 40.6439 15.124 40.6439 15.1484 40.6424C15.5385 40.6009 15.927 40.5624 16.3172 40.5285C16.4006 40.5217 16.4817 40.4999 16.5557 40.4645C16.6297 40.4291 16.6952 40.3807 16.7482 40.3221C16.8557 40.2041 16.9072 40.0524 16.8914 39.9002L16.7994 39.0516C16.9868 39.3935 17.1708 39.7369 17.3514 40.0788C17.405 40.1843 17.4933 40.2723 17.6043 40.3308C17.7153 40.3892 17.8436 40.4152 17.9716 40.4053C18.5219 40.3714 19.0739 40.3437 19.626 40.3252C19.7415 40.3193 19.8532 40.2858 19.9497 40.2282C20.0406 40.2755 20.143 40.302 20.2479 40.3052H20.2666C21.3843 40.2764 22.5003 40.2764 23.6146 40.3052C23.6859 40.308 23.7571 40.2981 23.8241 40.2759C23.8902 40.3006 23.9606 40.3147 24.032 40.3175C24.7646 40.3406 25.5126 40.3776 26.2606 40.4284C26.3628 40.4284 26.4906 40.4392 26.632 40.4392C27.4635 40.4392 28.1058 40.1974 28.5062 39.7523C28.724 40.1264 29.0652 40.4299 29.4825 40.6209C28.6049 40.6276 27.7526 40.8871 27.0494 41.3616C26.4258 41.7677 25.9372 42.3206 25.637 42.9602C25.5927 42.8816 25.5586 42.8062 25.516 42.7322H25.5279ZM32.6396 43.0757C32.8505 43.4386 32.9754 43.8373 33.0063 44.2463C33.0372 44.6553 32.9734 45.0656 32.819 45.451C32.6646 45.8365 32.423 46.1886 32.1096 46.485C31.7962 46.7813 31.4179 47.0153 30.9988 47.1721C30.6377 47.3061 30.2511 47.3751 29.8607 47.3754C29.4332 47.382 29.01 47.2976 28.6252 47.1291C28.2404 46.9605 27.9049 46.7126 27.6458 46.4052C27.0358 45.6444 26.9813 44.8097 27.3544 43.955C27.5321 43.5398 27.8088 43.165 28.1648 42.8573C28.5208 42.5497 28.9474 42.3166 29.4143 42.1748C29.5847 42.1178 29.7551 42.0885 29.9255 42.0469C28.7413 42.0716 27.794 42.5089 27.1363 43.4052C26.4787 44.3015 26.402 45.2748 26.7819 46.2881C26.3005 45.7284 26.0618 45.0291 26.1107 44.3215C26.1298 43.857 26.267 43.4027 26.5116 42.9939C26.7563 42.585 27.1018 42.2325 27.5214 41.9638C28.092 41.574 28.7877 41.3632 29.5029 41.3632C29.6785 41.3637 29.8539 41.3755 30.0277 41.3986C30.5825 41.4568 31.112 41.6411 31.5667 41.9344C32.0214 42.2277 32.3864 42.6203 32.6277 43.0757H32.6396ZM33.1337 39.1317C32.9633 39.9017 32.2972 40.6009 30.7723 40.3883C29.3939 40.2035 28.7992 39.5306 28.9202 38.5573C29.077 37.3376 29.2326 36.1184 29.3871 34.8997C29.8488 34.949 30.3122 34.9998 30.774 35.0537C30.5922 36.2457 30.411 37.4372 30.2304 38.6281C30.1367 39.2641 30.4196 39.5521 30.883 39.6137C31.4401 39.6907 31.7502 39.4166 31.8542 38.8437C32.0723 37.6569 32.2892 36.4695 32.505 35.2817C32.965 35.351 33.4234 35.4249 33.8834 35.5019C33.6256 36.7164 33.3717 37.9264 33.1218 39.1317H33.1337ZM37.5329 40.125C37.1462 41.4217 35.9791 41.3093 35.0352 41.1168C33.5017 40.8088 33.3688 39.9956 33.6227 39.1148C34.0538 39.1918 34.4746 39.2688 34.9125 39.355C34.7966 39.8401 34.7251 40.2497 35.4236 40.393C35.5073 40.4192 35.5963 40.4284 35.6843 40.4198C35.7724 40.4112 35.8572 40.385 35.9327 40.3432C36.0081 40.3013 36.0724 40.2448 36.1208 40.1778C36.1692 40.1108 36.2005 40.0349 36.2125 39.9556C36.4663 39.0316 33.8647 38.4602 34.1799 36.9557C34.3502 36.1625 34.9857 35.5974 36.6572 35.9423C37.993 36.2288 38.5126 36.8525 38.1156 37.8781C37.6846 37.7749 37.2518 37.6748 36.8208 37.5824C36.9196 37.2051 36.9451 36.8017 36.3982 36.6877C35.9586 36.5938 35.6554 36.7324 35.5685 37.085C35.3248 38.0398 37.9981 38.5357 37.521 40.125H37.5329ZM41.5062 42.7122C41.1007 42.5829 40.6946 42.4581 40.288 42.338L41.0803 40.1389C40.593 39.9941 40.104 39.8555 39.6133 39.7231C39.3702 40.4633 39.126 41.203 38.8806 41.9422C38.4706 41.8293 38.0594 41.7225 37.6471 41.6219C38.1571 39.9525 38.6682 38.2842 39.1805 36.6169C39.6349 36.7288 40.0892 36.8463 40.5436 36.9695C40.3221 37.6317 40.1023 38.295 39.8842 38.9592C40.3817 39.0947 40.8775 39.2349 41.3716 39.3796C41.6084 38.7205 41.8487 38.0629 42.0838 37.4038C42.5325 37.5362 42.9789 37.6733 43.423 37.815L41.5062 42.7122Z" fill="white"/>
</svg>
