<svg width="65" height="65" viewBox="0 0 65 65" fill="none" xmlns="http://www.w3.org/2000/svg">
<ellipse cx="32.1541" cy="32.1918" rx="32.1541" ry="32.1918" fill="white"/>
<path d="M39.7077 16.7715H24.6016C19.6852 16.7715 15.6855 20.6467 15.6855 25.4102V40.0466C15.6855 44.8098 19.6852 48.6851 24.6016 48.6851H39.708C44.6241 48.6851 48.6238 44.8098 48.6238 40.0466V25.4102C48.6238 20.6467 44.6241 16.7715 39.7077 16.7715V16.7715ZM46.6928 40.0466C46.6928 43.7782 43.5594 46.8141 39.7077 46.8141H24.6016C20.75 46.8141 17.6165 43.7782 17.6165 40.0466V25.4102C17.6165 21.6784 20.75 18.6424 24.6016 18.6424H39.708C43.5594 18.6424 46.6928 21.6784 46.6928 25.4102V40.0466Z" fill="#005A2F"/>
<path d="M32.1538 24.0024C27.1876 24.0024 23.1475 27.9168 23.1475 32.7284C23.1475 37.54 27.1876 41.4543 32.1538 41.4543C37.12 41.4543 41.1601 37.54 41.1601 32.7284C41.1601 27.9168 37.12 24.0024 32.1538 24.0024ZM32.1538 39.5835C28.2526 39.5835 25.0784 36.5084 25.0784 32.7284C25.0784 28.9487 28.2526 25.8733 32.1538 25.8733C36.0552 25.8733 39.2291 28.9487 39.2291 32.7284C39.2291 36.5084 36.0552 39.5835 32.1538 39.5835Z" fill="#005A2F"/>
<path d="M41.3761 20.9033C39.9085 20.9033 38.7148 22.0601 38.7148 23.4818C38.7148 24.9038 39.9085 26.0605 41.3761 26.0605C42.8437 26.0605 44.0376 24.9038 44.0376 23.4818C44.0376 22.0599 42.8437 20.9033 41.3761 20.9033ZM41.3761 24.1894C40.9735 24.1894 40.6458 23.8719 40.6458 23.4818C40.6458 23.0915 40.9735 22.7742 41.3761 22.7742C41.7789 22.7742 42.1066 23.0915 42.1066 23.4818C42.1066 23.8719 41.7789 24.1894 41.3761 24.1894Z" fill="#005A2F"/>
</svg>
