<svg width="34" height="33" viewBox="0 0 34 33" fill="none" xmlns="http://www.w3.org/2000/svg">
<path d="M24.7077 0.771484H9.60163C4.68522 0.771484 0.685547 4.64673 0.685547 9.4102V24.0466C0.685547 28.8098 4.68522 32.6851 9.60163 32.6851H24.708C29.6241 32.6851 33.6238 28.8098 33.6238 24.0466V9.4102C33.6238 4.64673 29.6241 0.771484 24.7077 0.771484V0.771484ZM31.6928 24.0466C31.6928 27.7782 28.5594 30.8141 24.7077 30.8141H9.60163C5.74997 30.8141 2.61653 27.7782 2.61653 24.0466V9.4102C2.61653 5.67836 5.74997 2.64239 9.60163 2.64239H24.708C28.5594 2.64239 31.6928 5.67836 31.6928 9.4102V24.0466Z" fill="#005A2F"/>
</svg>
