<svg width="608" height="280" viewBox="0 0 608 280" fill="none" xmlns="http://www.w3.org/2000/svg">
<path d="M239.412 260.23L239.64 259.432L240.78 256.468L240.894 254.53H241.236V253.276L241.464 252.478L240.552 250.768L237.93 248.032L237.246 246.55L237.018 243.244L237.36 239.482H237.588L238.272 236.86L239.07 235.036L240.552 231.844L241.692 229.222L241.92 227.854L242.49 227.17L243.402 224.434L244.656 221.014L246.138 217.822L247.392 214.402L248.646 211.78V210.868L249.33 209.956L250.584 206.194L251.04 205.738L251.268 204.37L251.952 203.686L252.066 202.888L252.294 202.66L252.522 201.292L253.89 198.67L254.346 197.188L255.372 193.882H255.714L255.828 193.084L256.626 191.944L257.424 190.462L257.766 188.638L258.792 185.788L259.59 184.192L260.958 180.544L262.44 177.352H262.668L263.01 175.186L264.15 171.994L265.29 168.574L265.632 168.346L266.202 164.812L266.088 163.102L265.974 159.226L265.746 158.998L265.518 157.972L265.176 157.402V156.946L264.15 155.122L263.694 154.894L263.352 154.096L262.212 153.07H261.87L261.072 152.272L258.45 151.474L258.222 151.246L254.46 150.904L253.89 151.246L250.812 151.702L247.506 152.842L240.894 155.578L240.21 156.262L238.842 156.946L238.386 157.744L237.588 157.972L237.36 158.428H236.79L236.448 159.112L235.764 159.226L235.536 159.796L234.738 160.366L231.774 162.646L230.178 163.444L228.468 163.216L226.416 160.366L225.732 159.796L225.276 158.884L223.908 157.402L222.426 155.35L222.312 154.894L222.084 154.78L220.26 152.158L218.778 151.246V151.018L217.98 150.676L216.954 150.562L215.244 151.018L212.052 152.386L208.518 153.298L205.896 154.324L204.072 154.552L203.73 154.894L202.134 155.35L200.424 156.262L197.574 157.174L195.75 157.402L195.522 157.744L194.838 157.858L191.304 158.998L184.692 161.962L181.158 163.33L180.246 163.9L178.536 164.356L178.194 164.926L177.396 165.04L176.598 165.61L170.67 169.714L168.048 172.336L167.82 173.134L165.996 175.072L165.882 175.756H165.54V176.326L164.97 176.896L164.4 178.72L164.058 179.062L163.716 180.43L163.146 183.964L162.69 187.612L162.918 189.55L163.602 192.97L164.628 196.39L166.68 199.354L168.96 202.09L170.328 203.23L173.292 205.282L174.09 206.08L175.116 206.194V206.422H175.686L178.194 207.22L178.536 207.562L182.07 207.904L183.78 207.79L185.376 205.966L185.49 205.168L185.832 201.178L185.718 199.24L185.376 198.67V196.504L184.692 195.136L183.438 193.768L182.64 193.54L181.842 192.97L181.044 192.742L180.816 192.286H180.246L180.132 192.058L177.966 189.094L177.396 187.384L177.738 184.192L178.422 182.71L180.246 179.86L180.93 179.404L182.07 178.036L182.868 177.808L184.35 176.668L185.148 176.554L185.718 175.984H186.174L186.744 175.414L188.454 174.844L189.822 173.932L191.646 173.59L192.672 172.906L194.382 172.336L197.802 171.31L199.398 170.512L201.222 170.056L204.072 169.144L207.606 168.004L209.43 167.776L210.114 168.46L210.228 169.942L209.658 171.652L208.404 174.73L207.036 177.922L205.896 181.456L205.554 181.684L205.212 183.052L203.616 186.244L203.16 187.954L202.704 188.638L201.336 191.944L200.424 194.908L199.626 195.934L199.284 197.758L198.6 198.442L198.372 199.468L197.232 202.66L196.32 204.256L193.584 211.324L192.444 214.516L191.418 217.594L190.62 218.734L189.366 221.356L188.91 223.294L188.226 225.004L187.2 226.372L187.086 227.17L186.744 227.626L186.402 228.88H186.174L185.832 229.792L184.578 233.098L184.464 234.352L183.894 234.922L183.552 236.86L184.008 238.342L185.376 239.482H186.174L186.516 239.824H191.076L194.952 239.482H198.144L199.284 238.684L199.854 238L201.45 234.694L202.932 231.388L204.414 228.196L204.756 226.828L205.098 226.6L205.212 226.144L206.124 222.724L207.036 221.014L208.29 217.708L209.658 214.288L210.912 210.754L211.71 209.386L211.938 208.474L213.078 205.624L214.332 202.432L215.814 199.012L216.954 196.39L217.296 194.566L217.98 193.54L219.348 190.234L220.146 187.954L221.286 184.762L221.628 184.534L222.084 183.28L224.478 180.544L227.1 177.808L229.722 175.3L230.406 175.186L230.634 174.73L232.8 173.59L233.256 172.906H233.712L234.054 172.564L236.79 170.284L238.386 169.714L238.842 169.03L239.982 168.688L241.692 167.776L244.998 166.978L246.252 167.662L247.05 169.258L247.164 171.538L246.138 175.072L244.77 178.378L243.288 181.684L242.034 184.648V185.104L241.692 185.332L241.236 187.156L240.894 187.384L239.526 190.462L239.184 192.058L238.842 192.286L238.158 194.566L237.588 195.592L237.132 197.188L236.79 197.416L235.65 200.494L234.396 203.914L233.826 204.598L233.256 206.764L232.914 206.992L232.23 209.158L230.748 212.464L229.608 215.77L228.81 217.138L227.784 219.874L226.416 223.18L225.048 226.828L224.934 227.626L223.338 230.818L221.97 234.124L221.742 235.948L221.172 236.632L220.716 238.57L220.26 239.254V240.052L220.032 240.28V243.13L219.69 244.726L220.032 248.488L220.944 252.022L221.97 254.644L222.654 255.328L222.996 256.126L224.934 258.406L227.556 260.686V260.914L228.126 261.028L229.836 262.51L230.52 262.624L231.66 263.422L234.966 264.562L237.018 263.194L239.412 260.458V260.23ZM221.286 169.6L223.224 169.942L223.794 169.6L223.908 169.03L224.364 169.144V170.626L223.908 172.336V174.16L222.768 174.616L222.084 175.186L221.628 175.984L220.374 175.756L219.576 176.098L219.006 176.782L219.804 178.834L219.234 178.72L218.55 178.264L217.98 177.01L217.41 177.124L216.498 176.668L216.384 174.16L217.296 174.274L217.524 174.502L217.41 174.958L218.208 175.072L219.006 174.73L218.664 173.932L217.98 173.476L218.322 171.766L218.778 171.652L219.006 172.45L219.69 173.02L220.83 174.502L223.11 173.476L222.882 172.678L223.452 172.108V171.538L222.768 171.082L222.54 170.626L222.084 170.512L221.628 171.082L222.426 171.31L222.312 171.652L221.856 171.766L221.628 171.424H221.4L220.83 172.678L220.374 172.222L220.26 171.196L220.602 170.17L221.058 169.6H221.286ZM255.03 165.154L254.802 164.926L254.688 164.014L256.398 161.05L257.196 161.278L256.74 163.672L255.942 165.04L255.144 165.382L255.03 165.154ZM219.234 163.102L220.032 163.33L219.804 164.926L220.146 165.268L220.26 168.004L218.778 168.232L218.664 167.548L218.208 166.75H218.778L219.462 166.18L219.576 165.724L219.006 165.154V164.698L219.234 163.102ZM250.356 167.32L249.216 166.522L249.672 166.18L250.584 166.408L251.838 167.548L251.61 168.118L250.812 168.574L250.47 168.004V167.548L250.356 167.32ZM248.874 191.716L248.304 191.26L248.19 190.348L247.962 190.006L248.646 189.664L248.874 190.348L250.014 190.69L250.356 191.26L249.216 191.716H248.874ZM255.486 166.75L255.714 166.408L257.196 166.75L257.424 166.978L257.196 167.32L257.652 168.004L257.766 168.574L257.424 168.688L257.082 168.46L256.854 167.662L255.942 167.434L255.372 166.978L255.486 166.75ZM206.124 200.152L206.466 200.038L207.948 200.266L207.378 201.862H206.922L206.694 201.178L205.782 200.608L205.896 200.266L206.124 200.152ZM204.186 204.028L204.528 202.888L204.984 203.002L205.098 204.37L204.642 204.598L204.3 205.396L203.388 205.624L203.046 205.396L204.3 204.37L204.186 204.028ZM251.952 160.936L252.522 160.594L253.548 160.366L254.346 160.48L254.118 160.822L253.092 161.164L252.978 161.962L252.636 162.076L252.18 161.848L251.838 161.05L251.952 160.936ZM215.814 167.89L216.954 167.206L216.498 168.802L216.726 169.258L216.042 169.714L215.13 169.828V169.6L216.156 168.346L215.7 168.004L215.814 167.89ZM229.722 245.182L229.266 244.612L229.95 243.244L230.292 243.13L230.748 243.358L231.09 244.156L230.52 244.384L230.064 244.156L229.836 244.27L230.178 244.84L230.064 245.182H229.722ZM212.166 162.418L212.736 161.392L213.534 161.05L213.762 161.506L213.306 162.646L212.85 162.874L212.052 162.646L212.166 162.418ZM202.362 211.78L203.502 211.666V212.692L203.046 213.49L202.704 213.262L202.248 212.464V211.894L202.362 211.78ZM226.986 237.772L226.872 237.202L227.214 236.404L228.354 236.632L228.012 237.658L227.214 238L226.986 237.772ZM214.218 173.704L214.104 173.134H214.332L214.902 173.704V174.73L214.56 174.958H213.534L213.762 174.388L214.218 174.274L214.332 173.932L214.218 173.704ZM225.162 243.13L224.478 242.902V242.218L224.934 241.534H225.39L225.504 243.13H225.162ZM253.434 172.222L253.776 171.766L254.688 171.424L254.46 172.792L254.004 172.906L253.32 172.45L253.434 172.222ZM249.672 189.322L250.356 189.208L251.04 189.664V190.234L249.786 190.12L249.444 189.436L249.672 189.322ZM200.88 210.298V210.07L201.45 209.614L202.248 210.298V210.868L200.994 210.64L200.88 210.298ZM207.606 204.256L208.632 204.142V204.94L207.72 205.168L207.378 204.826V204.37L207.606 204.256ZM254.118 168.688L253.548 168.118V167.548L253.89 167.434L254.46 167.662L254.688 168.118L254.346 168.802L254.118 168.688ZM242.034 196.39L242.262 196.162H243.288L243.06 197.188H242.49L242.034 196.618V196.39ZM213.876 188.182V186.586H214.332L214.674 187.384L214.332 188.182H213.876ZM207.606 197.986L207.15 197.53L207.378 196.618L207.948 196.732L208.176 197.074L207.948 197.986H207.606ZM199.398 214.288L199.626 213.946L200.082 214.06L200.652 214.63V215.2H199.854V214.744L199.398 214.288ZM214.446 182.254L214.104 180.658L214.902 181.114L215.016 182.14L214.332 182.482L214.446 182.254ZM255.486 172.906V172.108L255.828 171.88H256.398V172.45L255.942 173.134L255.486 172.906ZM210.456 196.048L210.798 195.364L211.368 195.478L211.482 196.39H210.456V196.048ZM250.242 186.016L250.014 185.56H251.04L251.382 185.788V186.472L250.47 186.13L250.242 186.016ZM252.522 166.18L253.206 165.724L253.32 165.382L253.548 165.496L253.662 165.952L253.092 166.75L252.522 166.522V166.18ZM217.41 162.646L218.436 163.102V163.33L217.866 163.672L217.41 163.558L217.182 162.874L217.41 162.646ZM230.292 241.99L229.38 241.876L229.038 241.648V241.078L230.064 241.306L230.406 242.104L230.292 241.99ZM210.57 189.778L211.254 189.436L211.824 189.892V190.462L210.456 190.006L210.57 189.778ZM245.34 198.214L245.568 197.416L246.366 197.644L246.252 198.328L245.34 198.442V198.214ZM206.694 198.898L206.124 198.1L206.352 197.644L207.036 198.214L207.15 198.556L206.922 199.012L206.694 198.898ZM213.078 186.586L212.85 186.244V185.674L213.078 185.332H213.306L213.534 185.674V186.244L213.306 186.586H213.078ZM216.84 179.062L216.27 178.834L216.384 178.036L217.068 178.264L217.182 179.062H216.84ZM218.094 179.518L219.006 179.404L218.892 180.088L218.094 180.316L217.98 179.632L218.094 179.518ZM229.608 233.554H230.406V234.352H229.608V233.554ZM209.658 187.84L209.202 188.182L208.746 187.84L208.632 187.384L209.772 187.612L209.658 187.84ZM239.982 210.07L240.894 209.842V210.64L239.868 210.298L239.982 210.07ZM221.286 163.672H222.084L221.856 164.356H221.286V163.672ZM248.418 188.638L249.444 188.41V188.182L249.672 188.524L248.874 188.98H248.418V188.638ZM209.202 200.608L209.316 200.38L209.772 200.266L209.658 200.722L209.088 201.292L208.632 201.064L209.202 200.836V200.608ZM215.13 167.662L214.902 166.75L215.13 166.636L215.472 166.864L215.358 167.776L215.13 167.662ZM243.516 206.992H243.972V207.79H243.516V206.992ZM252.294 169.828H252.75V170.626H252.294V169.828ZM255.03 177.124L255.144 176.782L255.714 177.01L255.372 177.58L254.916 177.352L255.03 177.124ZM216.384 166.18H216.954V166.75H216.384V166.18ZM252.864 186.13H253.32V186.814H252.864V186.13ZM198.714 223.18L198.6 222.268L199.17 222.496L198.828 223.294L198.714 223.18ZM206.808 204.028L206.58 203.116L207.15 203.344L206.922 204.142L206.808 204.028ZM230.862 251.452L230.634 251.11L231.318 251.224L231.432 251.68H230.862V251.452ZM254.118 174.73L254.232 174.502H254.916L254.688 174.844L254.118 174.958V174.73ZM232.458 239.026H232.914V239.482H232.458V239.026ZM203.046 207.562H203.502V208.018H203.046V207.562ZM216.954 164.698H217.41V165.154H216.954V164.698ZM292.969 177.58L292.741 177.694L289.207 178.606L285.673 179.746L282.709 181.228L280.999 182.368L280.315 182.482L278.719 184.078L275.983 186.472L273.361 188.752L273.133 189.55L272.563 189.778L272.449 190.462L270.967 192.514L269.143 195.706L267.091 198.67L265.609 201.862L265.153 203.8L263.785 207.106L263.671 208.816L262.987 212.464L261.961 215.884L262.303 219.418L262.075 222.952L262.417 224.89L263.215 228.196L263.557 228.766V229.222L265.837 232.072L266.749 233.554L268.231 234.808L271.081 236.974L274.615 238L274.957 238.342L277.693 239.026L277.921 239.254L280.543 239.368L281.341 239.596L284.989 239.71L288.523 239.482L290.347 239.026L294.223 238.57L297.301 237.658L298.897 236.86L302.317 235.72L304.597 234.808L305.281 234.238L305.965 234.01L306.193 233.668H306.649L306.877 233.098L307.447 232.87L308.815 231.73L311.779 229.906L314.629 227.398L317.023 225.346L319.075 222.496L320.329 221.242L322.609 218.506L322.723 217.936L323.407 217.366V216.91L324.889 215.314L325.459 213.718H325.801V213.262H326.029L327.397 210.64V209.956L326.827 208.36L325.459 207.106L323.635 206.194H321.697L320.215 207.676L320.101 208.36L319.531 208.588V209.158L319.075 209.386L318.733 210.412L317.707 212.008L315.313 214.744L315.085 215.542L313.945 216.34L312.577 217.708L310.183 220.216L307.219 222.268L306.193 223.294L305.395 223.522L304.027 224.548L300.949 226.144L300.265 226.828L299.011 227.17H298.099L297.871 227.398L294.793 228.082L291.373 229.108L290.119 228.88L285.901 228.652L282.937 227.74L282.367 227.17H281.911V226.942H281.341L279.517 224.89L278.947 223.75L278.491 222.04L278.263 219.988L278.377 218.164L279.061 217.024L281.113 216.34L283.507 216.682L287.383 217.024L291.031 216.796L293.083 216.226L296.389 215.884L298.213 215.428L298.897 214.744L300.493 214.516V214.288L301.177 214.174L301.519 213.832L302.317 213.718V213.49H302.773L303.229 212.92L304.027 212.578L304.597 212.008L305.053 211.894L306.079 210.982L308.701 208.588L308.929 207.79L310.183 206.878L310.639 205.852L312.121 204.256L312.349 203.23L313.717 199.924L314.971 196.39L315.199 194.566L315.427 190.804L314.971 187.384H314.629V186.928H314.401V186.358H314.173V185.902H313.945L313.831 185.218L311.323 182.368L308.815 180.088L307.903 179.974L307.219 179.518L305.623 178.948L305.395 178.606L304.255 178.378L300.949 177.694L297.187 177.58L293.539 177.352L293.197 177.58H292.969ZM283.963 207.22L283.507 207.106L282.367 205.738L282.937 204.256L284.419 200.836H284.647L285.103 199.924L286.357 198.442L286.471 197.758L287.041 197.53L287.269 196.732L288.637 195.706L288.751 195.136L291.487 192.856L294.793 191.26H297.415L299.011 192.856L299.353 194.224L299.011 196.276L298.441 196.96V197.302L296.959 200.608L295.135 203.572L293.767 204.94L292.969 205.168L291.373 206.194L289.549 206.65L286.243 207.448L284.191 207.334L283.963 207.22ZM307.789 189.664L308.473 188.752L308.929 189.322L309.271 191.26L308.473 191.146L307.105 190.12L306.535 190.006L305.167 191.032L305.623 188.98L305.965 188.866L306.649 189.094L306.877 189.436L307.675 189.778L307.789 189.664ZM274.159 206.536L274.615 205.282L275.185 205.168L275.641 205.966L274.615 206.536L275.299 207.562L274.957 209.386L275.185 210.184H274.615L274.273 209.956L274.159 209.158L274.387 208.36L273.931 207.562L274.159 206.764V206.536ZM272.563 220.672L272.791 219.19H273.361L274.159 219.532L275.185 220.786L274.615 221.356L273.817 221.584L272.905 221.356L272.563 221.014V220.672ZM305.395 195.934L305.851 194.794L306.421 194.224L307.219 193.996L308.245 194.11V195.706H306.991L306.307 196.048L305.395 196.162V195.934ZM302.545 185.332L303.229 185.788L303.571 186.7L302.659 187.042L302.317 187.384L301.747 186.928L301.633 186.472L302.317 185.332H302.545ZM275.527 214.744L276.211 215.086L275.983 215.428L275.185 215.542L274.957 216.454L273.931 217.138L273.817 216.568L275.185 214.744H275.527ZM270.511 212.464L271.309 210.64V210.184L272.107 210.64L271.423 212.35L270.511 212.692V212.464ZM268.459 213.262L268.231 213.148L268.117 211.78L267.661 211.666L268.117 211.552L268.573 211.78L269.029 212.692L268.915 213.148L268.687 213.262H268.459ZM277.465 199.126H278.149L278.833 199.582L278.605 200.038H277.921L277.237 199.582L277.465 199.126ZM304.939 197.074L305.737 196.504L306.193 196.732L306.079 197.302L305.737 197.53L304.825 197.302L304.939 197.074ZM277.807 203.002L278.263 202.66H278.833V203.458L277.693 203.23L277.807 203.002ZM271.879 208.816L272.449 208.588L272.791 208.816V209.158L272.221 209.386L271.765 209.158L271.879 208.816ZM305.623 199.126L306.193 198.784L306.535 199.012L306.649 199.582L305.623 199.354V199.126ZM270.853 223.294L270.511 222.496H271.309V223.294H270.853ZM277.237 210.982H278.263L278.149 211.438H277.237V210.982ZM282.595 193.426L283.393 193.654V194.11L282.367 193.882L282.595 193.426ZM305.623 192.628L306.193 192.856L305.851 193.426L305.395 193.084L305.623 192.628ZM278.035 194.68L278.491 194.908V195.364L278.035 195.478V194.68ZM269.485 210.184H270.055V210.64H269.485V210.184ZM269.257 220.102L269.029 219.76H269.713L269.485 220.216L269.257 220.102ZM395.691 217.936L395.805 216.682L396.489 216.112L396.831 214.972L397.629 214.06L397.743 213.262H398.085V212.692L398.427 212.578L398.655 211.666L399.567 210.07L401.277 206.878L402.645 203.572L403.899 200.38L405.039 197.644L406.065 194.338L406.863 191.83L408.231 188.638L408.345 187.612L408.915 184.306L409.371 183.508L409.941 180.088L409.257 178.378L408.459 177.808L406.749 177.466L405.039 177.694L400.821 177.922L397.743 178.606V178.948H397.287L396.261 179.974L395.349 181.456L394.893 183.28H394.665L394.437 184.99L393.867 186.814L392.955 190.234L392.271 192.058L391.359 195.478L390.333 198.556L389.991 198.784L389.877 200.266L387.027 205.966L385.659 206.992L382.923 207.448L381.555 207.904L379.959 209.044L377.337 211.438V211.894H377.109V212.464H376.881L376.311 214.744L376.425 216.796L376.881 217.936L377.223 220.558L376.539 222.154L375.285 223.522L372.207 225.688L369.699 226.942L367.875 227.056L366.507 226.144L366.051 225.346L366.279 221.812L366.735 219.988L367.875 216.91L369.015 213.49L369.813 212.122L369.927 211.438L370.497 210.298L370.953 208.588L371.295 208.246L371.409 207.334L371.979 206.764L372.435 205.738L373.689 202.432L374.829 199.24L375.171 198.898L375.855 197.188L377.109 193.882L377.679 193.312V192.856L377.907 192.628L378.249 190.918L378.591 190.576L378.933 189.436L379.845 187.612L379.959 186.928L380.529 186.358L380.985 184.648L381.783 181L381.555 180.202H381.213V179.632L379.959 178.834L378.249 178.606L374.601 178.492L370.953 178.606L367.305 178.948L365.937 179.86L364.911 181.342L364.227 183.166L362.859 186.586L361.605 190.006L360.009 193.312L358.527 196.504V196.96L358.071 197.758L355.905 204.256H355.677L354.651 207.334L353.169 210.412L352.485 210.868L352.371 211.666L350.889 213.946L349.179 217.024L347.925 218.392V218.962L346.899 219.76L345.645 221.47L343.707 223.864L342.909 224.434L340.287 226.714L339.375 227.056L337.551 227.17L337.323 226.942H336.867V226.6H336.297L335.841 225.916L335.613 225.004L335.841 221.242L336.867 218.734L337.779 215.086L339.033 211.78L339.375 211.438L339.489 210.868L339.831 210.526L340.401 209.044L341.313 205.966L341.883 205.168L343.479 201.862L344.049 200.038L344.391 199.81L344.505 199.126L345.303 197.416L346.443 193.996L347.355 192.514L347.925 190.804L348.267 190.462L349.179 187.384L349.521 186.928V186.358L350.091 185.674L351.573 182.14V181.114L350.661 179.746L349.179 178.834L347.355 178.72L345.531 178.948L343.707 178.72L339.945 178.606L336.411 179.062L334.815 180.658L333.903 182.14L332.421 185.56L332.079 187.042L331.737 187.384V187.84L331.509 188.068L331.281 189.778L330.711 190.804V191.602L330.027 192.286L329.799 193.54L329.115 195.136L328.317 196.162L327.291 199.012L325.581 202.318L325.239 203.914L324.783 204.826V205.51L324.099 206.194L323.643 207.562L322.731 210.982L321.477 213.946L320.337 217.138L320.109 218.962L319.767 219.19L319.653 220.102L319.083 223.75L318.627 227.512L318.855 229.222L319.767 232.756L320.793 234.01L320.907 234.694L321.249 234.922L321.363 235.378L322.617 236.29V236.518L325.467 238.114L326.265 238.228L326.493 238.57L328.317 238.798L328.545 239.026L331.167 239.368L334.815 239.254V239.026L337.323 238.57L338.919 237.886L341.655 236.176L344.505 234.238L345.987 232.87L346.557 232.642L347.697 231.274H348.951L350.547 232.414L351.801 234.58L353.853 236.974L354.537 237.088L354.651 237.544L355.449 237.658L356.361 238.228L357.957 238.798L361.491 239.596L365.253 239.482L367.305 239.026L370.725 238.228L374.259 237.544V237.202L375.171 237.088L377.679 235.72L378.591 234.808L379.503 234.694L379.617 234.352L381.897 232.642L384.747 230.59L387.369 228.082L388.965 227.398H389.877L393.411 227.968H398.997L399.339 227.74L401.163 227.626L404.811 226.828L405.039 226.6H405.495L408.801 224.776L411.765 222.838L413.019 221.47L413.817 221.242L414.957 219.874L417.579 217.024L419.859 214.174L421.797 211.096V209.158L420.087 206.878L417.579 206.08L415.755 206.422L414.501 208.246L412.335 211.324L411.081 212.692L408.345 215.086L407.889 215.77L405.837 216.796L405.267 217.366L404.469 217.594L404.013 218.164L403.215 218.392L402.873 218.734L401.391 219.19L397.857 219.532L396.375 218.962L395.691 218.164V217.936ZM354.879 226.486L355.791 226.6L356.475 226.372L356.817 226.03L357.159 224.662L357.045 224.092L359.553 225.118L359.325 225.688L359.439 226.6L360.123 227.056L361.149 227.17L361.605 225.916L363.315 226.486L363.999 227.17L363.771 227.854L362.631 229.222L360.465 228.082L359.781 228.196L359.667 227.854L358.755 226.942V226.372H358.413L358.185 227.056L357.729 227.17V227.626L358.071 227.968L357.273 228.766L357.501 230.248L355.335 230.932L355.221 230.02L356.703 228.538V227.968L356.475 227.74L355.107 227.398L354.423 228.424H353.853L353.625 227.74L354.651 226.372L354.879 226.486ZM358.641 214.516V213.604L359.781 213.49V213.946L359.097 214.516V214.744L359.439 214.972L360.351 214.516L360.579 214.744L360.465 215.77L359.553 216.34V216.682L360.351 217.594V218.62L359.439 220.102L359.325 221.014L358.527 220.786L358.299 220.444L357.957 220.672H357.045L356.931 220.444L356.247 220.216L356.133 219.76L356.931 219.304L357.159 218.962L357.273 218.05L357.729 217.936V217.366L357.045 216.796V216.34L357.729 215.884L358.299 215.77L358.071 214.744H358.527L358.641 214.516ZM355.677 222.154L356.247 221.584L357.159 221.242L357.615 221.356L357.843 222.268L357.729 222.838H357.501L355.449 225.574L353.853 224.092L353.625 224.206L353.853 224.89L352.371 225.688L351.801 225.574V225.346L352.599 225.118L352.713 224.092L353.169 223.408L353.967 223.066L354.423 223.18L355.449 224.092L355.905 223.864L355.449 222.268L355.677 222.154ZM387.027 213.148L387.939 213.718L387.711 214.174L386.457 214.744L386.001 216.796L386.115 217.594L385.545 217.366L384.975 216.796H384.063V216.568L384.633 215.998L384.405 214.06L384.975 213.832L385.887 213.034L386.913 212.92L387.027 213.148ZM360.807 221.242L361.377 221.014L361.833 221.47L361.719 222.724L361.947 223.864L361.491 223.636L360.009 224.548L359.667 224.434L359.325 223.75L359.439 222.382L360.693 222.496L360.921 222.268L360.579 221.242H360.807ZM367.647 206.65L365.139 205.51L364.683 204.826V204.256H365.823L366.849 205.51H368.331V205.966L367.875 206.764L367.647 206.65ZM328.317 223.75L328.773 222.496L329.457 222.154L331.395 222.268L331.509 222.61L331.167 223.294L329.913 223.522L329.115 223.978L328.317 224.092V223.75ZM329.343 228.196L329.913 226.6L330.483 226.714L330.711 227.512V229.45L330.369 229.222H329.343V228.196ZM333.447 198.784L336.069 199.24V199.696L335.271 200.152L333.447 199.81V198.784ZM362.745 214.744L363.429 215.086L362.973 216.568L361.605 216.796V215.77L362.289 215.314L362.403 214.744H362.745ZM367.647 200.722L367.305 200.152L367.647 199.354L368.445 198.784H368.901L368.787 199.354L367.875 200.836L367.647 200.722ZM359.325 230.818L359.553 229.678L360.123 229.108L360.579 228.994L360.807 229.678L359.781 230.932L359.325 231.046V230.818ZM387.711 217.594L387.141 217.252V216.34H387.711L388.737 217.138L388.509 217.48L387.939 217.594H387.711ZM365.253 209.5L364.455 209.614L363.885 208.93L363.999 208.36L365.139 208.588L365.481 209.386L365.253 209.5ZM354.423 216.226L354.993 215.998L355.221 215.542H355.449L355.677 216.796L355.449 217.138L354.195 216.568V216.112L354.423 216.226ZM336.525 204.256L335.955 203.914V203.572L336.639 202.432L336.981 202.774L336.867 204.256H336.525ZM360.921 231.046L361.947 229.792L362.403 230.02V230.248L361.377 231.616L360.921 231.274V231.046ZM333.561 204.37L332.991 203.686V202.66L334.017 202.888L333.789 203.344V204.484L333.561 204.37ZM331.167 225.118L331.965 224.89L332.307 225.118L332.421 225.916L332.193 226.144L330.939 225.574L331.167 225.118ZM329.115 216.568L329.001 217.252L328.545 217.822V218.392L327.975 217.594L327.519 217.366L329.115 216.568ZM365.823 194.452L366.051 194.11L366.621 194.452L366.849 194.908L366.735 195.25L365.823 195.478V194.452ZM360.351 213.148L359.895 213.034L359.553 212.236H360.921L360.579 213.262L360.351 213.148ZM354.993 219.874L354.879 219.418L355.221 218.62L355.905 218.962V219.418L355.221 219.988L354.993 219.874ZM360.921 219.988L361.491 219.646L361.947 219.76L362.175 220.444L361.947 220.672L360.921 220.216V219.988ZM363.201 224.89L362.175 224.548V224.092L363.315 224.206L363.429 224.89H363.201ZM390.105 215.884L390.447 215.542L391.359 215.77L390.903 216.34L389.991 216.112L390.105 215.884ZM339.717 197.986L339.945 197.188L340.401 197.416L340.515 197.872L340.287 198.214H339.717V197.986ZM344.049 188.41L343.821 187.84L344.049 187.384L344.505 187.612L344.619 188.068L344.391 188.41H344.049ZM355.677 214.858L355.905 214.288H356.475L356.247 215.086H355.677V214.858ZM338.463 205.966L338.235 205.396L338.463 204.94L338.805 205.168L338.919 205.624L338.691 205.966H338.463ZM364.683 198.328L365.025 197.758H365.481L365.253 198.556H364.683V198.328ZM387.939 221.014L388.167 220.9L388.509 221.128V221.584L388.167 221.812L387.939 221.698V221.014ZM337.323 196.504L336.981 196.39L336.867 196.048L337.095 195.706L337.551 196.048L337.665 196.504H337.323ZM386.799 219.988L386.457 219.532L386.799 219.19L387.141 219.418V219.988H386.799ZM358.869 203.458L358.299 203.116V202.66L358.983 203.002L359.097 203.458H358.869ZM383.607 220.672L384.063 220.786V221.47H383.607V220.672ZM364.455 213.718H365.025V214.288H364.455V213.718ZM382.353 213.718L382.011 212.92L382.467 213.034L382.809 213.718H382.353ZM331.053 204.712L330.825 205.054L330.369 205.168L330.141 204.94L330.939 204.484L331.053 204.712ZM363.201 202.66L363.657 202.888L363.429 203.458L362.973 203.116L363.201 202.66ZM371.865 192.742L371.751 191.83H372.093L372.207 192.058L371.979 192.856L371.865 192.742ZM365.481 200.608H364.683L364.911 200.152L365.481 200.38V200.608ZM361.149 205.51H361.605V205.966H361.149V205.51ZM328.089 219.19H328.545V219.646H328.089V219.19ZM331.737 232.642H332.193V233.098H331.737V232.642ZM329.229 214.63L329.115 214.06L329.571 214.288L329.343 214.744L329.229 214.63ZM389.991 220.558L389.877 219.76L389.991 220.444V220.558ZM449.935 223.978L449.593 223.408L449.479 221.47L448.909 217.936L449.137 214.288L449.023 210.64L448.681 207.106L448.567 203.23L448.681 199.81V196.39L448.795 192.628L448.909 188.98L449.251 185.446L449.707 181.342L449.365 179.974L448.453 178.606L446.971 177.694L445.147 177.124L441.499 176.326L437.965 175.3H436.255L434.545 176.44L433.975 177.238L433.747 178.15L433.405 178.264L432.265 180.658L431.923 182.482L431.353 183.052L431.239 183.85L430.441 184.876L428.959 187.954L427.933 189.436L427.705 190.234L427.135 191.032V191.374L426.337 192.97L424.399 195.934V196.39L423.601 197.416L422.119 200.836L421.777 201.064L421.093 202.66L420.523 202.888V203.458L420.067 203.686V204.142L419.497 204.712L419.041 207.562L419.953 209.728L420.637 210.412L422.119 211.21L423.259 211.438L424.399 211.21L425.311 210.754L425.881 209.842L426.337 208.246L427.021 207.562L427.249 206.536L428.275 204.94L429.757 201.862L430.327 201.064L430.441 200.152L431.467 199.354L432.379 199.24L432.835 199.468L433.405 200.608L433.177 203.458L433.405 203.686L433.519 205.054L433.633 208.588L433.747 212.35L433.975 215.998L433.747 218.05L433.405 220.444L433.177 220.672V221.47L432.607 222.04L432.379 223.294H432.151L432.037 223.978L431.239 225.004L430.897 225.916L430.099 226.144L429.871 226.6L428.731 227.284L427.705 227.398L423.943 226.486L422.461 226.6L421.891 227.056L419.041 228.31L417.559 229.45L417.445 229.792L416.533 230.134L416.191 231.046H415.963L415.621 231.616V232.528L416.305 233.782L417.559 235.036L418.243 235.15L418.471 235.72H418.927L420.409 236.86L422.119 237.43L422.347 237.772L423.715 238L426.679 238.798L430.099 239.482L434.089 239.596L437.509 239.482V239.254H438.307L439.333 238.798L441.955 238.456V238.228H442.525V238H442.981L445.261 236.86L446.629 236.746V236.404L449.935 235.15L451.417 234.238L452.215 234.01L452.785 233.326H453.241L453.925 232.414L454.951 231.958L457.801 229.45L459.967 226.486L460.309 226.372L460.651 225.346L463.501 222.838L463.843 222.04L465.325 220.33L465.439 219.646L467.491 217.366L467.719 216.568L468.289 215.998L468.631 215.086L470.569 212.008L471.253 210.298L471.139 209.386L469.771 207.22L468.973 206.992L468.517 206.422L466.579 205.852L465.097 206.536L463.045 209.5L461.335 212.578L459.283 215.314V215.77L456.889 218.506L454.495 221.128L451.987 223.864L451.075 224.206L450.163 224.092L449.935 223.978ZM440.929 208.702L441.499 208.36L442.411 207.334L442.753 206.536L443.665 207.334L443.779 208.36H442.753L441.157 209.044L441.613 210.868L441.385 211.096L441.043 210.754L440.701 208.816L440.929 208.702ZM439.105 190.12L439.903 189.664L440.131 189.208L440.473 189.322L440.815 190.006L440.929 191.032L440.131 191.26L439.333 192.286L438.991 192.172L438.877 190.234L439.105 190.12ZM441.385 191.146L443.437 189.664L443.779 189.892L443.095 191.716L442.297 192.286L441.613 192.172L441.157 191.26L441.385 191.146ZM443.551 197.416L442.981 196.846V196.39H443.779L444.691 198.214L444.463 198.67L443.437 198.784L443.209 199.012L442.981 198.898L443.551 197.758V197.416ZM444.007 202.318L443.893 200.608L444.235 200.266L444.805 200.38L445.261 201.064L444.919 201.976L444.235 202.66H444.007V202.318ZM441.841 223.408L443.209 223.294L443.551 223.522L443.209 224.776L442.183 224.662L441.727 224.092V223.522L441.841 223.408ZM441.841 194.908L441.727 194.338L442.183 193.54L442.981 193.882V194.452L442.753 194.794L441.955 195.136L441.841 194.908ZM439.447 213.034L440.017 212.578L441.385 212.236L441.043 213.034L440.245 213.49L439.333 213.262L439.447 213.034ZM438.877 203.458L439.903 203.344L440.245 203.572L440.359 204.028L440.131 204.256L439.105 204.142L438.877 203.914V203.458ZM443.323 230.248L444.007 228.652L444.463 228.994L444.121 230.134L443.209 230.476L443.323 230.248ZM441.499 198.214L441.157 197.758V196.732H441.727L441.955 197.872L441.727 198.214H441.499ZM437.281 230.704L437.509 230.02L438.649 230.248L437.851 231.046H437.281V230.704ZM445.033 224.092L444.349 223.978L444.235 223.066L444.919 223.294L445.261 224.092H445.033ZM440.473 226.372L440.815 226.144L441.727 226.372L441.613 226.714L440.701 226.828L440.359 226.6L440.473 226.372ZM441.385 218.392H441.727L442.183 218.962L441.955 219.304L441.385 219.418V218.392ZM435.571 186.7L436.369 186.13L436.825 186.358L436.369 186.7L435.457 186.928L435.571 186.7ZM435.457 225.118L435.115 225.004L435.001 224.662L435.229 224.32L435.571 224.434L435.799 225.118H435.457ZM440.473 228.88L441.043 228.538L441.385 228.652L440.929 229.222H440.359L440.473 228.88ZM442.525 187.384L442.981 187.612V188.068L442.525 188.182V187.384ZM437.281 192.856H437.851V193.312H437.281V192.856ZM443.209 225.916H443.779V226.372H443.209V225.916Z" fill="white"/>
<path d="M70.8193 83.998L70.9333 83.314L72.5293 80.122L73.0993 78.298L73.4413 78.07L74.0113 76.246L74.8093 74.764L75.0373 73.852L76.6333 70.318L77.6593 66.898L78.3433 65.53L79.2553 61.996L80.3953 58.462L80.8513 54.814L81.9913 51.508L82.3333 49.228L82.6753 45.466L82.7893 41.932L83.2453 38.398L82.9033 37.03V35.092L82.6753 31.558L81.9913 27.91L81.4213 26.428L81.1933 24.604L80.6233 24.148L80.1673 22.552L79.8253 22.324L79.7113 21.526L79.0273 20.842L78.9133 20.386L78.5713 20.272V19.702L77.6593 18.904L75.1513 16.168L72.4153 13.774L71.6173 13.546L68.4253 12.064L65.4613 11.266L61.6993 11.038L58.1653 11.266L54.5173 11.95L54.2893 12.292L52.2373 13.09L48.9313 14.344L47.7913 15.142L45.0553 17.194L44.5993 17.992L42.0913 20.044L40.6093 20.728L37.5313 22.78L36.1633 24.034L32.9713 25.972L31.6033 27.226L30.8053 27.454L27.0433 31.216L24.3073 33.61L23.2813 35.206L21.1153 37.942L20.7733 38.854L19.4053 40.108V40.678L18.1513 42.502L17.4673 43.072L17.3533 43.756L16.2133 45.124L16.0993 45.808H15.8713V46.264H15.5293V46.834H15.3013V47.404H15.0733V47.86H14.8453V48.43L14.1613 48.886L13.9333 49.684L13.1353 50.824L13.0213 51.508H12.7933V51.964H12.4513V52.534H12.2233V52.99H11.9953V53.56H11.7673L10.6273 56.866L10.2853 57.094L9.94325 58.69H9.60125L8.91725 61.54L8.34725 62.566L8.11925 63.82L6.86525 67.24L6.52325 69.292L5.95325 72.598L5.26925 73.738L4.81325 76.588L4.35725 80.464L3.90125 83.884L3.78725 87.646L4.01525 91.522L4.58525 94.942L4.47125 96.31L4.69925 96.994L5.72525 100.528L6.06725 100.756L6.29525 102.58L8.23325 105.886L9.25925 107.14L9.37325 108.052L11.4253 109.762L12.5653 111.244L13.4773 111.586L14.1613 112.384L15.5293 113.182L18.8353 114.664L20.7733 115.462L21.0013 115.804H22.4833L26.0173 116.032L29.7793 116.26L33.6553 116.032L36.7333 115.234L36.9613 115.006L38.2153 114.664L41.8633 113.638V113.41L43.4593 112.954L44.0293 112.384H44.4853V112.156H45.0553L45.6253 111.472L47.9053 110.332L50.7553 108.052L53.3773 105.544L56.2273 103.378H56.5693L57.2533 102.808L57.8233 101.896L59.9893 99.274L61.0153 98.476L61.1293 97.906L63.1813 95.854L64.6633 95.17L66.4873 94.828H70.4773L74.0113 94.6L77.3173 94.03L79.2553 93.118L82.1053 91.18L84.0433 90.724L84.2713 90.268L85.5253 89.128L86.3233 88.786L86.7793 88.102L87.6913 87.76L90.5413 85.138L92.0233 82.744L92.4793 82.516L92.7073 81.604L94.3033 78.868V77.158L93.1633 75.562L91.5673 74.422L89.7433 73.966L88.4893 74.308L86.3233 76.816L86.2093 77.272L85.5253 77.842L85.2973 78.64L84.7273 78.868L84.4993 79.666L83.8153 80.35L80.9653 82.63L78.4573 83.998L76.0633 84.91L74.2393 85.138L72.6433 85.594L70.8193 84.226V83.998ZM30.9193 50.71L31.8313 49.912H32.6293L33.3133 50.71L33.4273 52.762L33.6553 56.182L33.8833 60.058L34.3393 63.592L35.2513 66.67L36.5053 69.862L37.5313 73.168L38.5573 74.992L40.3813 78.07L42.0913 80.578L44.3713 83.428L44.5993 84.112L46.0813 85.252L47.3353 86.848L47.7913 88.33L47.5633 89.47L46.5373 91.294L45.7393 91.75L44.3713 93.574L44.2573 94.03L41.9773 96.082L39.5833 98.932H39.1273L38.7853 99.502L37.9873 99.616L36.6193 100.642L35.9353 100.756L35.7073 101.326L33.0853 102.352L29.6653 102.58L25.6753 102.124L23.7373 100.528L22.5973 99.16L21.7993 97.678L21.2293 97.222V96.538L20.4313 94.828L19.9753 91.522L19.8613 87.874L19.9753 83.998L20.4313 80.578L20.7733 79.666L21.0013 77.5L21.2293 77.158V76.588L21.6853 75.22L22.7113 71.458L23.8513 68.038L24.1933 67.81L24.7633 66.1L25.6753 62.794L26.0173 62.338L26.5873 59.602L26.9293 59.488V58.918L27.4993 58.462L27.7273 57.664L28.1833 57.436V56.866H28.5253L29.2093 54.586V53.788L29.8933 53.104L30.1213 52.192L30.6913 51.394L30.8053 50.71H30.9193ZM57.9373 28.48L59.1913 28.252L61.2433 28.48L61.3573 28.708L63.1813 29.62L64.3213 31.102L66.1453 34.18V35.434H66.4873L66.6013 38.056L66.3733 41.932L66.0313 45.466L65.3473 48.886L64.6633 52.534L64.3213 52.762L63.9793 55.384L62.9533 58.12L62.6113 58.234L62.2693 60.4L61.4713 62.908L60.6733 64.618L59.5333 68.152L58.1653 71.572L56.3413 74.764L55.7713 75.334L54.5173 75.79L53.2633 74.878L51.0973 71.458L49.6153 68.038L48.7033 65.416L47.7913 61.996L47.2213 58.462L46.8793 55.042L46.7653 51.052L47.1073 47.632L47.5633 44.098L48.3613 40.564L49.3873 37.258L50.6413 34.066L53.1493 31.444L56.1133 29.164L57.7093 28.48H57.9373ZM36.1633 32.014L36.6193 31.9L36.7333 31.558L36.9613 31.9L37.6453 32.128L37.7593 32.356L38.2153 32.242L38.8993 31.672L39.3553 31.558L40.4953 32.584L40.8373 33.382H42.0913L42.6613 32.926L42.8893 33.382L42.7753 34.408L43.2313 34.75L42.3193 35.548L41.0653 35.32L39.9253 34.522L38.7853 34.408L38.5573 33.382L37.7593 33.724L37.3033 34.408V34.978L37.7593 35.776L40.1533 35.434L40.9513 36.46L42.2053 37.03L41.4073 38.854L41.6353 40.678H40.8373L40.6093 41.362L40.1533 41.134L39.6973 40.108L39.8113 38.056H39.2413L38.7853 38.626L37.9873 39.082L37.7593 38.74L38.1013 37.372L37.8733 36.802L36.2773 35.776L35.8213 35.89L35.2513 37.03L36.2773 38.056V38.626L35.7073 39.31L36.2773 40.45V40.906L35.4793 41.932L35.7073 42.388L35.1373 42.502L34.7953 42.274L34.9093 40.906H34.6813L33.9973 42.616L33.1993 42.73L33.0853 42.958H32.7433L32.4013 42.502L32.0593 42.73L32.4013 43.984L31.4893 43.642L31.0333 42.958L29.8933 42.388L29.7793 41.932L30.4633 41.476L31.3753 41.932L32.1733 41.476H32.6293L32.8573 41.704L33.1993 41.476L33.8833 39.88L35.0233 40.336L35.2513 40.108L35.0233 39.196L34.6813 38.968L33.4273 39.082L33.5413 38.626H34.2253V38.284L33.4273 37.258L33.8833 34.978L35.2513 34.408L34.9093 33.154L35.7073 32.926L35.9353 32.128L36.1633 32.014ZM53.6053 89.584L53.0353 89.128V88.9H53.8333V89.47L54.5173 89.698L54.7453 90.61L55.0873 90.724L55.5433 90.496V90.04L55.0873 89.698V89.128L54.8593 88.9L55.3153 87.874L56.6833 86.848L56.7973 86.278L57.1393 86.05L56.9113 85.594L57.8233 84.454L57.7093 83.542L58.8493 84.112L58.9633 84.568H58.6213L57.9373 85.024V86.278L57.2533 86.506L56.6833 88.102L56.3413 88.444L57.7093 89.128L57.9373 88.786L58.3933 88.672L58.2793 89.356L58.0513 89.584L56.7973 89.242L56.3413 89.47L56.5693 90.61L56.4553 91.408L55.5433 91.522L56.1133 92.776H56.4553L57.1393 92.32L57.2533 91.294L57.9373 90.724L58.7353 90.952L57.7093 93.574L55.5433 93.346L54.8593 93.802V94.03L55.8853 94.6L54.2893 97.678L53.4913 97.222L53.2633 96.424L53.3773 94.714L54.2893 93.802L54.4033 92.776L55.0873 92.32V92.092L54.7453 91.864L53.8333 91.75L53.4913 91.522L53.8333 89.698L53.6053 89.584ZM61.6993 79.78H62.9533L63.0673 80.692L63.8653 80.806L64.0933 81.148L64.2073 82.06L64.8913 82.63L65.1193 83.998L63.9793 84.796L63.6373 85.594L63.7513 86.05L64.0933 86.278L63.8653 86.962L63.4093 87.19L63.2953 87.646L62.0413 87.418L62.1553 87.076L63.2953 86.848L62.9533 86.05L62.6113 85.822L61.8133 86.164L61.0153 87.874L59.7613 87.988L59.4193 87.646V87.076L59.9893 85.822H60.7873L61.8133 84.682L62.6113 84.568L61.3573 83.086L61.5853 82.744L62.7253 82.858L63.0673 83.2L63.4093 82.63L62.8393 80.92L61.5853 80.35V79.894L61.6993 79.78ZM40.8373 28.138H41.8633L42.7753 28.48L43.4593 29.05L43.1173 29.848L42.6613 30.076L43.0033 31.33L42.8893 31.558L40.0393 30.646L39.1273 30.874V30.532L39.5833 29.848H40.4953L41.6353 30.304L41.7493 29.734L40.7233 28.822L40.6093 28.252L40.8373 28.138ZM46.4233 30.076L48.0193 31.102L48.3613 31.9L47.6773 32.128L46.4233 31.444H45.5113L45.2833 31.786L44.5993 32.128L44.1433 32.014L43.6873 31.444L44.2573 30.532H45.0553L45.2833 30.076H46.4233ZM63.6373 74.194L63.7513 73.738L64.5493 73.396L65.1193 73.852V74.422L64.3213 74.194L64.8913 75.22V75.79H65.1193L65.6893 75.22H66.1453L65.6893 77.5L64.6633 77.386L64.2073 76.702L63.8653 76.816L64.3213 75.79L64.2073 75.106L63.6373 74.422V74.194ZM51.6673 86.05L52.3513 86.278H54.0613L53.8333 86.734L54.5173 87.19L54.8593 87.874L54.1753 88.102L51.6673 87.418V86.05ZM67.8553 72.142L68.0833 71.914L69.5653 72.142L69.6793 73.624L70.4773 74.08L70.5913 74.764L68.9953 74.422V73.966H68.1973V72.94L67.7413 72.37L67.8553 72.142ZM59.0773 22.324V21.412L59.4193 21.07H60.2173L61.0153 23.122H60.2173L59.9893 22.78H59.7613L59.5333 23.578L58.7353 23.806L58.3933 23.35L58.9633 22.552L59.0773 22.324ZM71.0473 26.2L71.5033 25.516L72.4153 25.402L73.5553 27.682L73.4413 28.48H72.9853L71.9593 26.542L71.0473 26.428V26.2ZM40.4953 47.746L39.9253 46.834L39.3553 45.01L40.4953 45.352L41.2933 46.378L41.4073 46.948L40.6093 47.86L40.4953 47.746ZM70.0213 28.252L70.4773 27.682L71.8453 27.454L71.7313 27.91L71.0473 28.252V28.708L71.8453 29.962L71.9593 30.646L71.0473 30.874L71.1613 29.734L70.0213 28.48V28.252ZM15.5293 94.03L17.2393 94.714L17.6953 94.6L16.2133 95.17L14.3893 95.284L13.8193 95.056L13.7053 94.6L13.9333 94.372H15.3013V94.03H15.5293ZM67.1713 23.35L67.9693 23.692L68.1973 25.174L69.3373 26.314L69.2233 26.656L68.5393 26.77L67.7413 26.428V24.376L67.1713 23.35ZM69.3373 55.27L70.0213 54.814H70.5913L70.0213 55.726L69.2233 56.182L68.6533 56.866V57.322L68.1973 57.436L68.0833 56.638L68.4253 55.954L69.2233 55.384L69.3373 55.27ZM38.6713 42.16L38.5573 41.704L39.6973 41.818L40.3813 42.502L39.9253 43.528L39.8113 44.554L39.3553 44.212V42.502L38.6713 42.16ZM54.2893 84.568L55.3153 84.682L55.8853 85.252L55.3153 86.278H54.2893V84.568ZM60.4453 18.904H61.2433L61.5853 19.246L61.9273 20.386L62.2693 20.728L61.8133 21.07L60.9013 20.158L60.4453 20.044V18.904ZM43.3453 40.108L43.2313 39.994L43.6873 38.284L44.2573 38.398L44.7133 39.082L44.4853 39.88L44.1433 40.222L43.4593 40.336L43.3453 40.108ZM45.7393 27.682L45.3973 27.454L45.6253 25.744L45.5113 25.174H46.3093L46.4233 26.998L46.0813 27.682H45.7393ZM34.9093 44.554L35.3653 44.212L36.3913 44.098L37.6453 44.782L37.7593 45.124L37.5313 45.58L37.0753 45.238L36.9613 44.782L35.3653 45.01L34.9093 44.782V44.554ZM72.8713 42.844L72.1873 42.616L71.9593 42.274L72.0733 41.932L73.6693 42.274L74.3533 42.73L74.4673 43.186L74.2393 43.414L73.0993 42.958L72.8713 42.844ZM67.0573 77.272L67.9693 76.36V75.79L68.5393 75.904L68.9953 76.474L68.3113 77.272L66.9433 77.5L67.0573 77.272ZM75.2653 37.942L74.9233 37.6L75.2653 36.46L75.7213 36.232L76.5193 36.46L75.4933 38.056L75.2653 37.942ZM18.1513 67.354L17.9233 67.126L18.7213 65.416H19.7473L19.6333 65.872L18.3793 67.012L18.6073 67.24L18.3793 67.468L18.1513 67.354ZM58.6213 95.17L58.5073 94.6L58.7353 94.144L59.9893 93.574L60.1033 93.916L59.5333 94.486L59.1913 95.284L58.7353 95.398L58.6213 95.17ZM67.5133 18.448L67.0573 18.22L66.4873 17.536L66.7153 16.624L67.7413 17.194L67.5133 17.536L67.7413 18.448H67.5133ZM70.4773 23.464L71.3893 23.35L71.8453 23.578V23.806L71.2753 24.376H70.3633V23.578L70.4773 23.464ZM68.7673 68.266L69.1093 67.696L69.7933 67.582L70.1353 68.152L70.0213 68.836L68.7673 68.494V68.266ZM30.4633 40.108L30.8053 39.31L31.1473 39.538L31.6033 40.336V40.906L31.0333 40.792L30.3493 40.336L30.4633 40.108ZM68.9953 70.09L68.4253 69.748L68.1973 68.836L69.2233 68.95L69.4513 69.292L69.2233 70.09H68.9953ZM46.1953 33.724L45.3973 33.496L45.2833 32.584L46.4233 32.812L46.5373 33.724H46.1953ZM72.3013 22.894L72.8713 22.78L73.3273 23.008L73.6693 23.806L72.7573 23.692L72.0733 23.35L72.3013 22.894ZM50.6413 25.516L52.0093 25.972L51.4393 26.656L50.7553 26.428L50.4133 25.63L50.6413 25.516ZM69.2233 23.578L68.9953 23.122L69.2233 22.324H69.7933L70.0213 22.78L69.7933 23.578H69.2233ZM72.6433 47.86V47.404L73.2133 46.834H73.6693L73.8973 47.29L73.0993 48.088L72.6433 47.86ZM69.7933 58.12L70.7053 58.006L71.0473 58.234L70.3633 59.032L69.6793 58.804L69.5653 58.234L69.7933 58.12ZM73.6693 57.322L73.0993 56.41V55.84L73.8973 56.182L74.1253 56.638L73.8973 57.436L73.6693 57.322ZM56.4553 21.298L55.7713 20.956L55.5433 20.044L56.2273 20.158L56.6833 20.728V21.298H56.4553ZM58.7353 78.412L59.4193 77.044L59.7613 77.5L59.5333 78.412L58.7353 78.64V78.412ZM31.8313 38.056L32.4013 37.03L32.8573 37.144L32.9713 37.6L32.2873 38.284H31.8313V38.056ZM68.6533 62.338L68.1973 61.882L68.5393 61.084L69.2233 61.654V62.11L68.9953 62.338H68.6533ZM62.8393 24.832V24.604H63.2953L63.6373 24.946V25.402L62.8393 25.63L62.6113 25.402V24.946L62.8393 24.832ZM64.8913 21.184L65.3473 21.07L65.6893 21.298V21.754L65.3473 22.096H64.8913L64.6633 21.298L64.8913 21.184ZM66.1453 73.396L66.6013 73.51L66.9433 74.308L66.7153 74.65L66.1453 74.764V73.396ZM66.1453 86.278L66.7153 85.252L67.0573 85.48V86.278L66.1453 86.62V86.278ZM48.5893 98.932H49.3873V99.616L49.0453 99.958H48.5893V98.932ZM55.5433 80.35L55.8853 80.692L54.7453 80.92L54.5173 80.578L54.6313 80.236L55.5433 80.122V80.35ZM42.2053 45.808H42.8893V46.492L42.6613 46.834H42.2053V45.808ZM26.7013 41.704L27.0433 41.476L27.9553 41.362L27.6133 42.046L26.7013 42.16V41.704ZM37.5313 40.336L36.9613 39.994L36.7333 39.082L37.7593 39.766V40.336H37.5313ZM50.9833 95.056L50.4133 94.828V94.03L51.0973 94.258L51.2113 95.056H50.9833ZM57.1393 80.692L57.2533 79.78L57.5953 79.666L57.8233 80.008L57.5953 80.806L57.1393 80.92V80.692ZM27.8413 38.284L27.4993 38.056L27.7273 37.258L28.2973 37.714L28.4113 38.056L28.1833 38.284H27.8413ZM30.8053 47.062H31.8313L31.7173 47.632H30.8053V47.062ZM65.3473 81.49L65.6893 80.692H66.1453V81.376L65.3473 81.718V81.49ZM11.1973 90.952L10.9693 90.61L11.1973 89.926L11.7673 90.496V90.952H11.1973ZM62.0413 74.65L61.4713 74.992L61.1293 74.764L61.0153 74.194L62.0413 74.422V74.65ZM16.6693 74.422L16.4413 73.852L16.6693 73.396L17.0113 73.624L17.1253 74.08L16.8973 74.422H16.6693ZM64.0933 78.64H63.8653L63.9793 78.298H64.4353L64.7773 78.64L64.6633 78.868H64.0933V78.64ZM60.1033 90.496L60.2173 90.154L60.7873 90.496L60.4453 90.952L59.9893 90.724L60.1033 90.496ZM51.2113 93.802L50.9833 93.004L51.6673 93.346V93.802H51.2113ZM19.1773 58.918H19.7473V59.488H19.1773V58.918ZM16.8973 102.124L17.5813 102.238L17.6953 102.58H16.8973V102.124ZM17.6953 86.734L17.2393 86.62L17.3533 86.278H18.1513L17.9233 86.62L17.6953 86.734ZM30.8053 36.688V36.46L31.0333 36.574V37.258H30.5773V36.802L30.8053 36.688ZM56.6833 81.376H57.1393V81.946H56.6833V81.376ZM65.2333 72.484L65.1193 71.914L65.5753 72.028L65.6893 72.37L65.3473 72.598L65.2333 72.484ZM42.2053 48.658H42.6613V49.114H42.2053V48.658ZM15.8713 68.836H16.3273V69.292H15.8713V68.836ZM50.1853 23.578L50.9833 23.35L50.6413 23.806H50.1853V23.578ZM61.8133 90.724L61.9273 90.952L61.4713 90.154L61.5853 89.926L62.0413 90.496H61.8133V90.724ZM116.727 47.062L116.613 46.606L115.359 46.378L114.561 46.606H109.089L105.327 46.378L103.845 46.72L103.503 47.062L102.819 47.29L101.451 48.544L101.337 49.228L100.767 49.684L100.311 51.508L99.6274 52.534L98.6014 55.954L97.1194 59.488L95.8654 62.794L95.1814 63.934L95.0674 64.504L94.3834 65.53L94.1554 67.354L93.8134 67.582L93.2434 69.634L92.1034 72.484L90.6214 75.79L89.7094 79.21L88.1134 82.288L86.9734 85.822L86.2894 89.242H86.0614L85.9474 89.926L85.6054 93.574V97.222L86.7454 100.072L86.8594 101.326L87.4294 101.896L88.2274 103.492L89.7094 104.746L89.8234 105.088L92.1034 106.342L95.6374 107.482H99.1714L103.161 107.026L104.643 106.57L105.213 106L106.581 105.658L107.265 104.974L107.835 104.86L109.431 103.948L110.913 102.694H111.369L112.053 101.782L115.131 99.388L115.815 99.274L116.613 99.616L117.525 100.756L118.209 102.352H118.437L118.893 103.15L121.401 105.658L122.883 106.456L124.707 106.912L128.469 107.71L130.179 107.824L132.003 107.368L135.423 106.57L135.651 106.228L137.475 105.772V105.544H138.045V105.202H138.501V104.974H139.071V104.746H139.527V104.518L140.211 104.404L140.553 103.948L141.921 103.15L142.491 102.466L143.859 101.554L145.227 100.3L146.139 99.958L148.647 97.336L151.041 95.056V94.6L152.067 93.688L152.409 92.89L153.093 92.32L153.435 91.522L153.777 91.408L155.829 88.672V88.216L156.855 86.962L157.083 86.164L157.881 85.594L158.451 84.454L160.389 81.49L161.871 78.64L161.757 77.272L161.301 76.474L159.249 74.65L156.741 74.08L156.057 74.194L154.347 76.132L152.751 79.21H152.409V79.666H152.181V80.236L151.725 80.464V81.034L150.699 81.832L150.585 82.288L149.559 83.086V83.542L148.989 83.998L148.875 84.91L148.533 85.138L147.735 86.848L145.683 88.9L143.289 91.75L140.667 94.486L139.071 95.17L138.501 95.74L137.703 95.854L136.905 96.31L135.651 96.424L133.941 96.196L133.371 95.626L132.915 94.144V92.206L133.599 88.786L134.511 86.962L134.625 85.594L135.423 84.226L135.651 82.744L136.563 80.92L136.677 80.008L137.247 79.438L137.589 77.728L138.045 77.386L138.615 75.562L138.729 74.308L139.071 73.966L139.299 72.826L139.755 72.256L140.211 71.116L141.693 67.582L142.833 64.96L144.315 61.654L145.341 58.12L147.165 55.042L148.533 51.394L148.761 49.684L148.647 47.86L148.305 47.518L146.823 46.834L143.061 46.606H139.299L139.071 46.378L138.273 46.606L134.511 46.72L133.827 46.948L133.599 47.404L132.801 47.632L132.231 48.772L131.547 49.456L130.521 51.85L130.293 53.674L129.951 53.902L128.583 57.436L128.241 59.032L127.671 59.602V60.058L127.443 60.286L125.961 63.592L125.847 64.618L125.391 65.188V65.644L125.163 65.872L124.023 68.95L123.795 69.064V69.634L123.339 70.546V71.23L122.769 71.8V72.256L121.515 75.334L120.831 76.474L120.717 77.158L120.261 77.842L120.033 78.754L119.121 80.236L118.665 80.464L118.437 81.262L117.753 81.946L117.069 83.542L116.043 85.138L115.587 85.366L115.245 86.164L114.219 87.19L113.991 87.988L109.203 93.232L106.011 95.056H104.415L103.617 94.6L102.477 93.118L102.363 92.206L102.819 90.268L102.933 88.444L103.275 86.848L104.301 83.314L104.871 82.516L105.099 81.718L105.783 81.034L105.897 80.578L107.265 77.158L108.405 73.738L109.317 72.37L110.685 68.608L111.483 67.468L112.395 64.96L112.623 63.592L113.421 62.11V61.312L114.219 60.4L114.903 58.918L115.017 58.006L115.587 57.436L115.701 56.182L116.955 54.016L117.981 51.28L118.209 49.57L117.867 47.632L116.727 47.062ZM127.101 82.174L127.671 81.832H128.469L128.925 82.06L128.811 82.516L127.899 82.744L128.013 83.086L127.443 85.138L128.127 85.48H130.065L130.749 85.936L130.521 86.62L129.837 86.734L127.899 86.392L126.987 86.62L126.417 87.304L125.619 89.014L126.759 89.926L127.101 90.724L126.987 91.75L125.847 92.32L125.391 92.206L124.707 91.636L124.251 91.522L123.567 91.75L122.997 91.066H122.199L121.743 90.838L121.971 90.382L122.883 90.154L124.365 89.242H124.821L124.593 88.216L125.163 88.102L125.619 87.418L125.049 85.594L125.847 84.91L126.759 83.428L126.873 82.288L127.101 82.174ZM126.987 97.222H127.443L125.847 98.59V99.73L125.619 100.072L124.935 99.73L124.479 98.476L123.795 97.792L124.365 96.652L125.049 96.196H125.619L126.987 97.222ZM130.521 77.5H132.117L132.345 77.158L132.573 77.272L132.915 78.07L132.117 80.236L131.661 80.122L130.749 79.21L130.635 78.526L130.293 78.298V77.386L130.521 77.5ZM132.117 74.764L132.345 74.308H132.573L132.801 74.65L132.573 75.676L133.143 76.246V76.816L130.749 76.36L131.091 75.334L132.117 74.992V74.764ZM121.971 93.118L121.515 91.522L123.225 92.662L123.339 93.118L122.883 93.802L121.971 94.144V93.118ZM122.541 84.112L122.769 83.884L123.681 83.77L123.795 83.542L124.365 83.656L124.593 84.112L124.365 85.366L122.541 84.34V84.112ZM137.133 60.742L137.019 59.374L137.247 59.032L137.817 59.146L138.501 60.058L138.159 60.628L137.247 60.856L137.133 60.742ZM120.831 89.47L121.173 88.444H121.743L122.541 88.786L122.769 89.47H121.173L120.489 89.926V89.47H120.831ZM102.363 62.794H103.161L103.617 63.478V63.934L103.275 64.162L102.135 63.706V62.908L102.363 62.794ZM121.629 86.392L121.515 85.708L122.085 85.138H122.541L122.769 85.366V85.936L122.541 86.278L121.743 86.62L121.629 86.392ZM94.4974 90.04L94.3834 90.268H93.1294L92.3314 89.812L92.7874 89.47H93.4714L94.4974 90.04ZM132.345 66.1L133.143 65.074L133.599 64.96L133.371 66.214L132.573 66.556L132.345 66.1ZM123.681 95.626L123.339 95.284V94.714H125.049V95.17L123.795 95.398L123.681 95.626ZM97.1194 98.59L97.2334 98.248L97.0054 97.222L98.0314 97.45L97.8034 98.476L97.0054 98.818L97.1194 98.59ZM130.293 82.516L129.723 82.06L129.495 81.262L130.293 81.376L130.749 82.174L130.521 82.516H130.293ZM98.8294 81.718L98.3734 80.92L98.0314 80.692L98.1454 80.464L98.6014 80.35L99.2854 80.92L99.0574 81.718H98.8294ZM125.163 89.926L124.707 89.812L123.795 90.838H124.593L125.391 90.04L125.163 89.926ZM94.3834 84.682L94.6114 84.454L95.6374 84.34L95.5234 84.796L94.3834 85.366V84.682ZM96.6634 88.102L97.2334 87.988V88.216H97.4614L97.2334 89.014H96.6634L96.4354 88.216L96.6634 88.102ZM96.4354 96.88L96.0934 97.108L95.5234 96.994L95.2954 96.652L95.4094 96.424L96.4354 96.766V96.88ZM99.6274 82.516L100.197 82.288L100.539 82.516V82.744L99.9694 82.972L99.5134 82.744L99.6274 82.516ZM98.3734 91.294L98.9434 91.066L99.2854 91.294L99.0574 91.636L98.6014 91.75L98.2594 91.522L98.3734 91.294ZM93.1294 91.864L92.1034 91.522L92.3314 91.294L93.2434 91.408L93.3574 91.864H93.1294ZM130.863 71.686L130.977 71.23H131.547L131.319 71.914H130.749L130.863 71.686ZM127.671 94.258L126.873 94.486L126.531 94.144L126.645 93.916L127.671 94.144V94.258ZM94.9534 88.786L95.1814 88.444L95.6374 88.672L95.4094 89.242L94.8394 89.014L94.9534 88.786ZM124.137 87.418L123.567 87.076V86.62L124.023 86.734L124.365 87.418H124.137ZM97.4614 102.124L97.6894 101.668L98.1454 101.896L98.0314 102.352H97.4614V102.124ZM96.2074 89.812H96.6634V90.496H96.2074V89.812ZM126.759 87.988L126.873 87.646H127.443L127.101 88.216H126.645L126.759 87.988ZM128.925 74.536H129.495V74.992H128.925V74.536ZM131.319 72.94H131.775V73.51H131.319V72.94ZM128.241 78.412H128.697V78.868H128.241V78.412ZM200.572 99.958V99.73L202.738 97.906L202.966 97.108L203.764 96.652L203.878 96.082L204.676 95.398L205.018 94.6L205.816 94.03L206.044 93.232L206.386 93.004L208.21 90.154L210.49 87.304V86.848L211.06 86.05L211.288 85.252L211.744 85.024V84.454L212.314 84.226V83.656L212.656 83.428L213.568 81.946L215.05 78.298L214.594 76.246L212.998 74.65L210.376 73.852L209.578 74.08L208.096 75.22L207.754 76.132L207.07 76.702L206.386 78.298L205.702 78.982L205.474 79.666L205.132 80.008L204.904 80.692L204.562 80.92V81.376L203.08 84.112L201.94 85.48L200.002 88.558L199.318 89.128L197.038 91.75L194.644 94.6L193.048 95.74L191.452 96.196L190.312 95.74L189.628 95.056L189.286 94.258L189.058 92.434L189.628 90.154L190.426 86.506L191.566 83.086L192.82 80.122L194.188 76.702L195.328 73.396H195.556L196.012 71.686L196.696 70.204L197.038 68.038V66.214L196.696 65.758L196.582 64.618L196.012 63.82V63.364L195.784 63.136L193.39 60.514L193.276 59.716L192.136 58.918L191.908 58.12L191.11 57.892L190.198 56.752L189.514 56.638L188.944 55.954L185.98 53.788L183.016 51.508L182.332 51.394L181.192 50.368H180.85L180.394 50.026L180.28 49.342H180.052V48.886H179.71V47.29L180.052 47.062L180.85 44.782H181.078L181.534 42.616L181.876 42.502V40.45L181.306 39.082L179.71 37.714L176.29 36.118H174.466L171.388 37.6L170.818 38.398L170.134 38.626L168.88 40.108L167.512 41.248L167.398 42.16L166.714 42.958L165.232 46.15L164.89 48.088V49.684L166.144 53.104L167.512 56.068L167.398 57.778L166.714 59.488L165.004 62.794L163.636 66.214L162.952 66.898V67.468H162.724V67.924L162.154 68.494L162.04 68.95L160.786 71.572L159.076 74.992V75.676L159.874 77.272L161.128 78.526L162.724 79.552L164.092 79.666L164.89 79.324L165.46 78.754L168.196 74.194L168.31 73.51L169.45 71.572L169.906 69.976L170.59 69.292L170.818 68.494L171.73 66.898L172.756 63.82L174.238 61.882L175.606 61.54L178.57 63.706L179.71 66.328L180.052 68.152L179.824 69.406L177.316 76.018L176.176 79.552H175.834L175.72 80.236L174.694 81.832L174.58 82.63L174.01 83.428L173.668 85.138L172.756 88.558L172.528 90.268V93.916L172.3 97.564L172.87 98.818L173.668 101.554L174.58 102.922L177.202 105.658L178 105.886L178.456 106.456L179.71 106.912H180.508L182.218 107.368L184.042 107.482L188.032 107.026L191.338 106.456L191.908 105.886L192.706 105.772L194.644 104.518L194.872 104.176L196.012 103.834L196.24 103.378H196.81L197.038 102.808L197.722 102.694L198.976 101.212L200.458 100.186L200.572 99.958ZM186.208 70.774H187.576L188.26 71.002L188.83 72.028L190.084 72.598L189.742 73.396L189.286 73.624L187.918 73.282L187.462 72.598H186.208V70.774ZM188.26 74.764L188.488 74.422L189.4 74.536L189.856 75.22V75.676H188.26V74.764ZM185.638 78.07L186.094 77.386L186.778 77.044L187.234 77.272L187.12 77.956L186.436 78.526L185.638 78.298V78.07ZM179.938 88.102L180.28 87.874L180.508 86.506H181.078L181.306 87.304L180.736 87.988L179.71 88.558V88.102H179.938ZM181.534 93.232L181.876 92.206L182.788 92.776L182.902 93.232L182.56 93.46H181.534V93.232ZM182.218 86.848L182.446 86.62H183.358L183.7 87.19L183.244 87.76L182.104 87.076L182.218 86.848ZM184.84 86.164L185.182 86.05L185.866 86.62L185.98 87.076L185.638 87.304L184.726 86.734L184.612 86.278L184.84 86.164ZM182.218 98.476L182.104 98.134L182.332 97.678L183.13 97.336V97.906L182.788 98.704H182.332L182.218 98.476ZM189.97 69.52L189.628 69.064L190.084 68.266L190.54 68.608L190.312 69.52H189.97ZM189.286 65.416L189.058 64.846L189.286 64.39L189.742 64.504V65.416L189.058 65.872L189.286 65.416ZM182.104 79.21L181.99 79.096L182.446 78.298L182.332 78.07L183.13 78.298L182.332 79.324L182.104 79.21ZM184.612 76.474L185.41 76.588V77.044H184.612V76.474ZM183.586 82.402L183.244 82.288L183.13 81.946L183.358 81.604L183.814 81.946L183.928 82.402H183.586ZM186.892 75.676L186.778 75.22L187.12 74.992L187.462 75.22V75.676H186.892ZM177.316 91.522L177.43 91.18L177.886 91.522L178 91.978L177.202 91.75L177.316 91.522Z" fill="white"/>
<circle cx="252.303" cy="89.3033" r="9.30328" fill="white"/>
<circle cx="282.074" cy="89.3033" r="9.30328" fill="white"/>
<circle cx="311.844" cy="89.3033" r="9.30328" fill="white"/>
<circle cx="341.615" cy="89.3033" r="9.30328" fill="white"/>
<circle cx="371.385" cy="89.3033" r="9.30328" fill="white"/>
<circle cx="401.156" cy="89.3033" r="9.30328" fill="white"/>
<circle cx="430.926" cy="89.3033" r="9.30328" fill="white"/>
<circle cx="460.697" cy="89.3033" r="9.30328" fill="white"/>
<circle cx="16.3033" cy="228.303" r="9.30328" fill="white"/>
<circle cx="46.0738" cy="228.303" r="9.30328" fill="white"/>
<circle cx="75.8443" cy="228.303" r="9.30328" fill="white"/>
<circle cx="105.615" cy="228.303" r="9.30328" fill="white"/>
<circle cx="135.385" cy="228.303" r="9.30328" fill="white"/>
</svg>
