<svg width="65" height="65" viewBox="0 0 65 65" fill="none" xmlns="http://www.w3.org/2000/svg">
<ellipse cx="32.8455" cy="32.1918" rx="32.1541" ry="32.1918" fill="white"/>
<path d="M38.0443 31.2917L30.7243 27.4112C30.3034 27.188 29.8059 27.1964 29.3934 27.4332C28.9806 27.6703 28.7344 28.0891 28.7344 28.554V36.2485C28.7344 36.7112 28.9791 37.1293 29.3891 37.3666C29.6032 37.4905 29.8406 37.5527 30.0784 37.5527C30.2964 37.5527 30.5148 37.5006 30.7157 37.3957L38.036 33.582C38.4705 33.3555 38.7417 32.9178 38.7438 32.4395C38.7455 31.9611 38.4776 31.5215 38.0443 31.2917ZM30.676 35.2806V29.5298L36.1469 32.4301L30.676 35.2806Z" fill="#005A2F"/>
<path d="M49.2668 26.3095L49.2653 26.2948C49.2372 26.0364 48.9579 23.738 47.8047 22.5689C46.4717 21.1939 44.9605 21.0269 44.2338 20.9468C44.1736 20.9402 44.1185 20.934 44.0692 20.9277L44.0113 20.9218C39.631 20.6132 33.0158 20.571 32.9495 20.5708L32.9437 20.5706L32.9379 20.5708C32.8717 20.571 26.2564 20.6132 21.8367 20.9218L21.7783 20.9277C21.7313 20.9338 21.6795 20.9394 21.6231 20.9458C20.9047 21.0261 19.4097 21.1934 18.0729 22.6182C16.9745 23.7747 16.657 26.0239 16.6244 26.2766L16.6206 26.3095C16.6108 26.417 16.377 28.9767 16.377 31.5465V33.9487C16.377 36.5185 16.6108 39.0783 16.6206 39.186L16.6224 39.2022C16.6505 39.4564 16.9295 41.7127 18.0775 42.8822C19.3308 44.2112 20.9155 44.3871 21.7679 44.4816C21.9027 44.4966 22.0187 44.5093 22.0978 44.5228L22.1744 44.533C24.7036 44.7662 32.6333 44.8811 32.9695 44.8857L32.9796 44.886L32.9897 44.8857C33.056 44.8855 39.6709 44.8434 44.0513 44.5348L44.1092 44.5289C44.1645 44.5218 44.2267 44.5154 44.295 44.5086C45.0093 44.4351 46.4962 44.2825 47.8145 42.8771C48.9129 41.7203 49.2307 39.4711 49.263 39.2186L49.2668 39.1858C49.2767 39.078 49.5107 36.5185 49.5107 33.9487V31.5465C49.5105 28.9767 49.2767 26.4172 49.2668 26.3095ZM47.5688 33.9487C47.5688 36.3272 47.3545 38.7768 47.3342 39.0016C47.2518 39.621 46.9169 41.0441 46.3817 41.6076C45.5566 42.4872 44.709 42.5744 44.0902 42.6378C44.0154 42.6454 43.9461 42.6527 43.8834 42.6603C39.6467 42.9572 33.2812 43.0027 32.988 43.0045C32.6591 42.9998 24.8454 42.8839 22.3933 42.6633C22.2677 42.6434 22.1319 42.6282 21.9889 42.6126C21.2631 42.532 20.2696 42.4218 19.5057 41.6076L19.4878 41.589C18.962 41.0583 18.6366 39.7276 18.554 39.0089C18.5386 38.839 18.3186 36.3605 18.3186 33.9487V31.5465C18.3186 29.1707 18.5325 26.7239 18.5532 26.4944C18.6515 25.7647 18.9928 24.4279 19.5057 23.8876C20.3561 22.9814 21.2527 22.881 21.8458 22.8146C21.9024 22.8082 21.9552 22.8023 22.004 22.7962C26.3025 22.4979 32.7137 22.4536 32.9437 22.4518C33.1738 22.4533 39.5827 22.4979 43.843 22.7962C43.8953 22.8026 43.9524 22.8089 44.0138 22.8158C44.6238 22.8832 45.5457 22.9851 46.3918 23.8594L46.3997 23.8675C46.9255 24.3983 47.2508 25.7522 47.3335 26.4853C47.3481 26.6457 47.5688 29.1295 47.5688 31.5465V33.9487Z" fill="#005A2F"/>
</svg>
